<svg width="1150" height="1150" viewBox="0 0 1150 1150" fill="none" xmlns="http://www.w3.org/2000/svg">
<rect width="1150" height="1150" fill="white"/>
<rect width="1150" height="1150" fill="#003ECB"/>
<path opacity="0.3" d="M518.8 476.2L221.2 648.1V803.2L492.5 646.5L518.7 655.1L518.8 476.2Z" fill="url(#paint0_linear)"/>
<path fill-rule="evenodd" clip-rule="evenodd" d="M458.3 563C458.3 575.8 465.9 581.8 475.2 576.4C484.5 571 492.1 556.3 492.1 543.5C492.1 530.7 484.5 524.7 475.2 530.1C465.9 535.5 458.3 550.3 458.3 563Z" fill="#F2994A"/>
<path opacity="0.15" d="M442.3 558.1L377.1 595.8V609.4L442.3 571.7V558.1Z" fill="white"/>
<path opacity="0.15" d="M442.3 585.4L247.5 697.9V711.5L442.3 599V585.4Z" fill="white"/>
<path opacity="0.15" d="M442.3 612.6L290 700.6V714.2L442.3 626.2V612.6Z" fill="white"/>
<path opacity="0.3" d="M735 269.3L567.4 366V676.5L735 579.8V269.3Z" fill="url(#paint1_linear)"/>
<path opacity="0.15" d="M718.5 453.6L583.9 531.3V544.9L718.5 467.2V453.6Z" fill="white"/>
<path opacity="0.15" d="M709.1 485.5L593.4 552.3V565.9L709.1 499.1V485.5Z" fill="white"/>
<path fill-rule="evenodd" clip-rule="evenodd" d="M660.2 541.1L776.8 473.8V508.5L660.2 575.8V541.1Z" fill="#F2C94C"/>
<path fill-rule="evenodd" clip-rule="evenodd" d="M632.1 391.3C632.1 406.3 640.8 413.4 651.5 407.2C662.2 400.9 670.9 383.7 670.9 368.6C670.9 353.6 662.2 346.5 651.5 352.7C640.8 359.1 632.1 376.3 632.1 391.3Z" fill="#F2C94C"/>
<path fill-rule="evenodd" clip-rule="evenodd" d="M651.5 419.3C668.8 409.2 683.1 418.7 685.6 440.4C686 444.2 683.2 449.2 679.7 451.2L623.3 484.2C619.8 486.2 617 484.6 617.4 480.3C619.9 455.6 634.2 429.4 651.5 419.3Z" fill="#F2C94C"/>
<path opacity="0.3" d="M618.7 641.2L451.1 737.9V1048.4L618.7 951.7V641.2Z" fill="url(#paint2_linear)"/>
<path opacity="0.15" d="M602.3 825.5L467.7 903.2V916.8L602.3 839.1V825.5Z" fill="white"/>
<path opacity="0.15" d="M592.9 857.4L477.2 924.2V937.8L592.9 871V857.4Z" fill="white"/>
<path fill-rule="evenodd" clip-rule="evenodd" d="M409.6 990.5L526.2 923.2V957.9L409.6 1025.2V990.5Z" fill="#F2994A"/>
<path fill-rule="evenodd" clip-rule="evenodd" d="M515.9 763.2C515.9 778.2 524.6 785.3 535.3 779.1C546 772.8 554.7 755.6 554.7 740.5C554.7 725.5 546 718.4 535.3 724.6C524.6 730.9 515.9 748.2 515.9 763.2Z" fill="#F2994A"/>
<path fill-rule="evenodd" clip-rule="evenodd" d="M535.3 791.2C552.6 781.1 566.9 790.6 569.4 812.3C569.8 816.1 567 821.1 563.5 823.1L507.1 856.1C503.6 858.1 500.8 856.5 501.2 852.2C503.7 827.5 518 801.3 535.3 791.2Z" fill="#F2994A"/>
<path opacity="0.3" d="M667.2 614.1L964.8 442.2V597.3L693.4 754L667.1 792.9L667.2 614.1Z" fill="url(#paint3_linear)"/>
<path fill-rule="evenodd" clip-rule="evenodd" d="M727.7 631.1C727.7 643.9 720.1 658.6 710.8 664C701.5 669.4 693.9 663.4 693.9 650.6C693.9 637.8 701.5 623.1 710.8 617.7C720.1 612.3 727.7 618.3 727.7 631.1Z" fill="#F2C94C"/>
<path opacity="0.15" d="M743.7 607.6L808.9 569.9V583.5L743.7 621.2V607.6Z" fill="white"/>
<path opacity="0.15" d="M743.7 634.9L938.4 522.4V536L743.7 648.5V634.9Z" fill="white"/>
<path opacity="0.15" d="M743.7 662.2L896 574.2V587.8L743.7 675.8V662.2Z" fill="white"/>
<path opacity="0.4" d="M226.8 231.3C395.6 133.8 533.6 249.3 533.6 491.7L576.7 466.8C576.6 193 420.5 59.8 226.8 171.6V231.3Z" fill="url(#paint4_linear)"/>
<path opacity="0.4" d="M367.6 587.7C367.6 480.1 304.6 429.2 226.9 474V414.3C328.4 355.7 410.6 422.2 410.7 562.8L367.6 587.7Z" fill="url(#paint5_linear)"/>
<path opacity="0.4" d="M451.6 538.1C451.6 366.3 351 285.1 227.1 356.7V297C374.9 211.7 494.7 308.5 494.7 513.2L451.6 538.1Z" fill="url(#paint6_linear)"/>
<path opacity="0.4" d="M267.8 645.2C245.2 658.3 226.9 643.4 226.9 612.1C226.9 580.8 245.2 544.8 267.8 531.7C290.4 518.6 308.7 533.5 308.7 564.8C308.7 596.2 290.4 632.1 267.8 645.2Z" fill="url(#paint7_linear)"/>
<path opacity="0.07" d="M186.8 202.3C355.6 104.8 493.6 220.3 493.6 462.7L536.7 437.8C536.6 164 380.5 30.8 186.8 142.6V202.3Z" fill="url(#paint8_linear)"/>
<path opacity="0.07" d="M327.6 558.7C327.6 451.1 264.6 400.2 186.9 445V385.3C288.4 326.7 370.6 393.2 370.7 533.8L327.6 558.7Z" fill="url(#paint9_linear)"/>
<path opacity="0.07" d="M411.6 509.1C411.6 337.3 311 256.1 187.1 327.7V268C334.9 182.7 454.7 279.5 454.7 484.2L411.6 509.1Z" fill="url(#paint10_linear)"/>
<path opacity="0.07" d="M227.8 616.2C205.2 629.3 186.9 614.4 186.9 583.1C186.9 551.8 205.2 515.8 227.8 502.7C250.4 489.6 268.7 504.5 268.7 535.8C268.7 567.2 250.4 603.1 227.8 616.2Z" fill="url(#paint11_linear)"/>
<path opacity="0.2" d="M358.8 771.5C352.8 774.9 348 783.3 348 790.2V820.7L327.8 832.3C321.8 835.7 317 844.1 317 851C317 857.9 321.8 860.7 327.8 857.3L348 845.7V876.2C348 883.1 352.8 885.9 358.8 882.5C364.8 879.1 369.6 870.7 369.6 863.8V833.3L389.8 821.7C395.8 818.3 400.6 809.9 400.6 803C400.6 796.1 395.8 793.3 389.8 796.7L369.6 808.3V777.8C369.6 770.9 364.8 768.1 358.8 771.5Z" fill="url(#paint12_linear)"/>
<path opacity="0.2" d="M835.3 335.9L807.5 390.5C803.7 398 804.3 405.5 808.9 407.3C813.5 409.1 820.3 404.4 824.1 396.9L824.4 396.2V456.8C824.4 463.7 829.2 466.5 835.2 463.1C841.2 459.6 846 451.3 846 444.4V383.8L846.3 384.1C850.1 387.2 857 384 861.5 376.9C866.1 369.8 866.7 361.6 862.9 358.5L835.3 335.9Z" fill="url(#paint13_linear)"/>
<defs>
<linearGradient id="paint0_linear" x1="248.881" y1="460.221" x2="202.842" y2="771.096" gradientUnits="userSpaceOnUse">
<stop stop-color="white"/>
<stop offset="1" stop-color="white" stop-opacity="0.01"/>
</linearGradient>
<linearGradient id="paint1_linear" x1="496.407" y1="477.345" x2="703.024" y2="537.987" gradientUnits="userSpaceOnUse">
<stop stop-color="white"/>
<stop offset="1" stop-color="white" stop-opacity="0.01"/>
</linearGradient>
<linearGradient id="paint2_linear" x1="380.199" y1="849.222" x2="586.815" y2="909.864" gradientUnits="userSpaceOnUse">
<stop stop-color="white"/>
<stop offset="1" stop-color="white" stop-opacity="0.01"/>
</linearGradient>
<linearGradient id="paint3_linear" x1="681.084" y1="642.407" x2="849.121" y2="737.167" gradientUnits="userSpaceOnUse">
<stop stop-color="white"/>
<stop offset="1" stop-color="white" stop-opacity="0.01"/>
</linearGradient>
<linearGradient id="paint4_linear" x1="145.146" y1="253.713" x2="401.558" y2="536.82" gradientUnits="userSpaceOnUse">
<stop stop-color="white"/>
<stop offset="1" stop-color="white" stop-opacity="0.01"/>
</linearGradient>
<linearGradient id="paint5_linear" x1="-3.8534" y1="388.977" x2="260.567" y2="663.951" gradientUnits="userSpaceOnUse">
<stop stop-color="white"/>
<stop offset="1" stop-color="white" stop-opacity="0.01"/>
</linearGradient>
<linearGradient id="paint6_linear" x1="65.4181" y1="318.444" x2="318.79" y2="604.398" gradientUnits="userSpaceOnUse">
<stop stop-color="white"/>
<stop offset="1" stop-color="white" stop-opacity="0.01"/>
</linearGradient>
<linearGradient id="paint7_linear" x1="-49.4375" y1="517.861" x2="265.162" y2="680.179" gradientUnits="userSpaceOnUse">
<stop stop-color="white"/>
<stop offset="1" stop-color="white" stop-opacity="0.01"/>
</linearGradient>
<linearGradient id="paint8_linear" x1="105.148" y1="224.713" x2="361.56" y2="507.82" gradientUnits="userSpaceOnUse">
<stop stop-color="white"/>
<stop offset="1" stop-color="white" stop-opacity="0.01"/>
</linearGradient>
<linearGradient id="paint9_linear" x1="-43.8517" y1="359.977" x2="220.568" y2="634.951" gradientUnits="userSpaceOnUse">
<stop stop-color="white"/>
<stop offset="1" stop-color="white" stop-opacity="0.01"/>
</linearGradient>
<linearGradient id="paint10_linear" x1="25.4196" y1="289.443" x2="278.791" y2="575.397" gradientUnits="userSpaceOnUse">
<stop stop-color="white"/>
<stop offset="1" stop-color="white" stop-opacity="0.01"/>
</linearGradient>
<linearGradient id="paint11_linear" x1="-89.4363" y1="488.861" x2="225.163" y2="651.179" gradientUnits="userSpaceOnUse">
<stop stop-color="white"/>
<stop offset="1" stop-color="white" stop-opacity="0.01"/>
</linearGradient>
<linearGradient id="paint12_linear" x1="322.727" y1="846.184" x2="381.946" y2="871.366" gradientUnits="userSpaceOnUse">
<stop stop-color="white"/>
<stop offset="1" stop-color="white" stop-opacity="0.01"/>
</linearGradient>
<linearGradient id="paint13_linear" x1="808.85" y1="444.968" x2="862.237" y2="451.526" gradientUnits="userSpaceOnUse">
<stop stop-color="white"/>
<stop offset="1" stop-color="white" stop-opacity="0.01"/>
</linearGradient>
</defs>
</svg>
