<svg width="1150" height="1150" viewBox="0 0 1150 1150" fill="none" xmlns="http://www.w3.org/2000/svg">
<rect width="1150" height="1150" fill="white"/>
<rect width="1150" height="1150" fill="#003ECB"/>
<path opacity="0.3" d="M632.9 476.2L930.5 648.1V803.2L659.2 646.4L633 655L632.9 476.2Z" fill="url(#paint0_linear)"/>
<path fill-rule="evenodd" clip-rule="evenodd" d="M693.4 563.1C693.4 575.9 685.8 581.9 676.5 576.5C667.2 571.1 659.6 556.4 659.6 543.6C659.6 530.8 667.2 524.8 676.5 530.2C685.8 535.5 693.4 550.3 693.4 563.1Z" fill="#F2994A"/>
<path opacity="0.15" d="M709.4 558.1L774.6 595.8V609.4L709.4 571.7V558.1Z" fill="white"/>
<path opacity="0.15" d="M709.4 585.4L904.1 697.9V711.5L709.4 599V585.4Z" fill="white"/>
<path opacity="0.15" d="M709.4 612.6L861.7 700.6V714.2L709.4 626.2V612.6H709.4Z" fill="white"/>
<path opacity="0.3" d="M416.7 269.3L584.3 366V676.5L416.7 579.8V269.3Z" fill="url(#paint1_linear)"/>
<path opacity="0.15" d="M433.2 453.6L567.8 531.3V544.9L433.2 467.2V453.6Z" fill="white"/>
<path opacity="0.15" d="M442.6 485.5L558.3 552.3V565.9L442.6 499.1V485.5Z" fill="white"/>
<path fill-rule="evenodd" clip-rule="evenodd" d="M491.5 541.1L374.9 473.8V508.5L491.5 575.8V541.1Z" fill="#F2C94C"/>
<path fill-rule="evenodd" clip-rule="evenodd" d="M519.6 391.3C519.6 406.3 510.9 413.4 500.2 407.2C489.5 401 480.8 383.7 480.8 368.6C480.8 353.6 489.5 346.5 500.2 352.7C510.9 359.1 519.6 376.3 519.6 391.3Z" fill="#F2C94C"/>
<path fill-rule="evenodd" clip-rule="evenodd" d="M500.2 419.3C482.9 409.2 468.6 418.7 466.1 440.4C465.7 444.2 468.5 449.2 472 451.2L528.4 484.2C531.9 486.2 534.7 484.6 534.3 480.3C531.8 455.6 517.5 429.4 500.2 419.3Z" fill="#F2C94C"/>
<path opacity="0.3" d="M533 641.2L700.6 737.9V1048.4L533 951.7V641.2Z" fill="url(#paint2_linear)"/>
<path opacity="0.15" d="M549.4 825.5L684 903.2V916.8L549.4 839.1V825.5Z" fill="white"/>
<path opacity="0.15" d="M558.8 857.4L674.5 924.2V937.8L558.8 871V857.4Z" fill="white"/>
<path fill-rule="evenodd" clip-rule="evenodd" d="M742.1 990.5L625.5 923.2V957.9L742.1 1025.2V990.5Z" fill="#F2994A"/>
<path fill-rule="evenodd" clip-rule="evenodd" d="M635.8 763.2C635.8 778.2 627.1 785.3 616.4 779.1C605.7 772.8 597 755.6 597 740.5C597 725.5 605.7 718.4 616.4 724.6C627.1 730.9 635.8 748.2 635.8 763.2Z" fill="#F2994A"/>
<path fill-rule="evenodd" clip-rule="evenodd" d="M616.4 791.2C599.1 781.1 584.8 790.6 582.3 812.3C581.9 816.1 584.7 821.1 588.2 823.1L644.6 856.1C648.1 858.1 650.9 856.5 650.5 852.2C648 827.5 633.7 801.3 616.4 791.2Z" fill="#F2994A"/>
<path opacity="0.3" d="M484.5 614.1L186.9 442.2V597.3L458.3 754L484.6 792.9L484.5 614.1Z" fill="url(#paint3_linear)"/>
<path fill-rule="evenodd" clip-rule="evenodd" d="M424 631.1C424 643.9 431.6 658.6 440.9 664C450.2 669.4 457.8 663.4 457.8 650.6C457.8 637.8 450.2 623.1 440.9 617.7C431.6 612.3 424 618.3 424 631.1Z" fill="#F2C94C"/>
<path opacity="0.15" d="M408 607.6L342.8 570V583.6L408 621.3V607.6Z" fill="white"/>
<path opacity="0.15" d="M408 634.9L213.3 522.4V536L408 648.5V634.9Z" fill="white"/>
<path opacity="0.15" d="M408 662.2L255.7 574.2V587.8L408 675.8V662.2Z" fill="white"/>
<path opacity="0.4" d="M924.9 231.3C756.1 133.8 618.1 249.3 618.1 491.7L575 466.8C575.1 193 731.2 59.8 924.9 171.6V231.3Z" fill="url(#paint4_linear)"/>
<path opacity="0.4" d="M784.1 587.7C784.1 480.1 847.1 429.2 924.8 474V414.3C823.3 355.7 741 422.2 741 562.8L784.1 587.7Z" fill="url(#paint5_linear)"/>
<path opacity="0.4" d="M700.1 538.1C700.1 366.3 800.7 285.1 924.6 356.7V297C776.9 211.7 657 308.5 657 513.2L700.1 538.1Z" fill="url(#paint6_linear)"/>
<path opacity="0.4" d="M883.9 645.2C906.5 658.3 924.8 643.4 924.8 612.1C924.8 580.8 906.5 544.8 883.9 531.7C861.3 518.6 843 533.5 843 564.8C843 596.2 861.3 632.1 883.9 645.2Z" fill="url(#paint7_linear)"/>
<path opacity="0.07" d="M964.9 202.3C796 104.8 658.1 220.3 658.1 462.7L615 437.8C615.1 164 771.2 30.8 964.9 142.6V202.3Z" fill="url(#paint8_linear)"/>
<path opacity="0.07" d="M824.1 558.7C824.1 451.1 887.1 400.2 964.8 445V385.3C863.3 326.7 781 393.2 781 533.8L824.1 558.7Z" fill="url(#paint9_linear)"/>
<path opacity="0.07" d="M740.1 509.1C740.1 337.3 840.7 256.1 964.6 327.7V268C816.9 182.7 697 279.5 697 484.2L740.1 509.1Z" fill="url(#paint10_linear)"/>
<path opacity="0.07" d="M923.9 616.2C946.5 629.3 964.8 614.4 964.8 583.1C964.8 551.8 946.5 515.8 923.9 502.7C901.3 489.6 883 504.5 883 535.8C883 567.2 901.3 603.1 923.9 616.2Z" fill="url(#paint11_linear)"/>
<path opacity="0.2" d="M792.9 771.5C798.9 774.9 803.7 783.3 803.7 790.2V820.7L823.9 832.3C829.9 835.7 834.7 844.1 834.7 851.1C834.7 858 829.9 860.8 823.9 857.4L803.7 845.8V876.3C803.7 883.2 798.9 886 792.9 882.6C786.9 879.2 782.1 870.8 782.1 863.8V833.3L761.9 821.7C755.9 818.3 751.1 809.9 751.1 803C751.1 796.1 755.9 793.3 761.9 796.7L782.1 808.3V777.8C782.1 770.9 786.9 768.1 792.9 771.5Z" fill="url(#paint12_linear)"/>
<path opacity="0.2" d="M316.4 335.9L344.2 390.5C348 398 347.4 405.5 342.8 407.3C338.2 409.1 331.4 404.4 327.6 396.9L327.3 396.2V456.8C327.3 463.7 322.5 466.5 316.5 463.1C310.5 459.6 305.7 451.3 305.7 444.4V383.8L305.4 384.1C301.6 387.2 294.7 384 290.2 376.9C285.6 369.8 285 361.6 288.8 358.5L316.4 335.9Z" fill="url(#paint13_linear)"/>
<defs>
<linearGradient id="paint0_linear" x1="618.874" y1="502.273" x2="664.915" y2="813.146" gradientUnits="userSpaceOnUse">
<stop stop-color="white"/>
<stop offset="1" stop-color="white" stop-opacity="0.01"/>
</linearGradient>
<linearGradient id="paint1_linear" x1="549.206" y1="115.898" x2="342.59" y2="176.54" gradientUnits="userSpaceOnUse">
<stop stop-color="white"/>
<stop offset="1" stop-color="white" stop-opacity="0.01"/>
</linearGradient>
<linearGradient id="paint2_linear" x1="665.493" y1="487.821" x2="458.876" y2="548.463" gradientUnits="userSpaceOnUse">
<stop stop-color="white"/>
<stop offset="1" stop-color="white" stop-opacity="0.01"/>
</linearGradient>
<linearGradient id="paint3_linear" x1="368.559" y1="461.423" x2="200.523" y2="556.183" gradientUnits="userSpaceOnUse">
<stop stop-color="white"/>
<stop offset="1" stop-color="white" stop-opacity="0.01"/>
</linearGradient>
<linearGradient id="paint4_linear" x1="724.32" y1="-1.90632" x2="467.908" y2="281.201" gradientUnits="userSpaceOnUse">
<stop stop-color="white"/>
<stop offset="1" stop-color="white" stop-opacity="0.01"/>
</linearGradient>
<linearGradient id="paint5_linear" x1="881.663" y1="125.6" x2="617.243" y2="400.573" gradientUnits="userSpaceOnUse">
<stop stop-color="white"/>
<stop offset="1" stop-color="white" stop-opacity="0.01"/>
</linearGradient>
<linearGradient id="paint6_linear" x1="800.93" y1="65.6072" x2="547.559" y2="351.562" gradientUnits="userSpaceOnUse">
<stop stop-color="white"/>
<stop offset="1" stop-color="white" stop-opacity="0.01"/>
</linearGradient>
<linearGradient id="paint7_linear" x1="1008.18" y1="143.908" x2="693.581" y2="306.226" gradientUnits="userSpaceOnUse">
<stop stop-color="white"/>
<stop offset="1" stop-color="white" stop-opacity="0.01"/>
</linearGradient>
<linearGradient id="paint8_linear" x1="764.32" y1="-30.9062" x2="507.906" y2="252.202" gradientUnits="userSpaceOnUse">
<stop stop-color="white"/>
<stop offset="1" stop-color="white" stop-opacity="0.01"/>
</linearGradient>
<linearGradient id="paint9_linear" x1="921.662" y1="96.6007" x2="657.242" y2="371.574" gradientUnits="userSpaceOnUse">
<stop stop-color="white"/>
<stop offset="1" stop-color="white" stop-opacity="0.01"/>
</linearGradient>
<linearGradient id="paint10_linear" x1="840.929" y1="36.6078" x2="587.558" y2="322.562" gradientUnits="userSpaceOnUse">
<stop stop-color="white"/>
<stop offset="1" stop-color="white" stop-opacity="0.01"/>
</linearGradient>
<linearGradient id="paint11_linear" x1="1048.18" y1="114.908" x2="733.581" y2="277.226" gradientUnits="userSpaceOnUse">
<stop stop-color="white"/>
<stop offset="1" stop-color="white" stop-opacity="0.01"/>
</linearGradient>
<linearGradient id="paint12_linear" x1="798.67" y1="774.844" x2="739.444" y2="799.984" gradientUnits="userSpaceOnUse">
<stop stop-color="white"/>
<stop offset="1" stop-color="white" stop-opacity="0.01"/>
</linearGradient>
<linearGradient id="paint13_linear" x1="329.589" y1="336.941" x2="276.201" y2="343.499" gradientUnits="userSpaceOnUse">
<stop stop-color="white"/>
<stop offset="1" stop-color="white" stop-opacity="0.01"/>
</linearGradient>
</defs>
</svg>
