<svg width="1150" height="1150" viewBox="0 0 1150 1150" fill="none" xmlns="http://www.w3.org/2000/svg">
<rect width="1150" height="1150" fill="white"/>
<rect width="1150" height="1150" fill="#003ECB"/>
<path opacity="0.5" d="M552.7 396.1C615.6 359.4 667.6 393.7 676.8 472.9C678.4 486.6 668 504.7 655.3 512.1L450.1 631.9C437.4 639.3 427 633.3 428.6 617.7C437.8 528 489.9 432.8 552.7 396.1Z" fill="url(#paint0_linear)"/>
<path opacity="0.5" d="M482.6 293.3C482.6 348 514.2 373.8 553.2 351C592.2 328.2 623.8 265.5 623.8 210.8C623.8 156.1 592.2 130.3 553.2 153.1C514.2 175.9 482.6 238.6 482.6 293.3Z" fill="url(#paint1_linear)"/>
<path opacity="0.07" d="M512.3 363.3C575.2 326.6 627.2 360.9 636.4 440.1C638 453.8 627.6 471.9 614.9 479.3L409.7 599.1C397 606.5 386.6 600.5 388.2 584.9C397.4 495.2 449.4 400 512.3 363.3Z" fill="url(#paint2_linear)"/>
<path opacity="0.07" d="M442.2 260.5C442.2 315.2 473.8 341 512.8 318.2C551.8 295.4 583.4 232.7 583.4 178C583.4 123.3 551.8 97.5 512.8 120.3C473.8 143.1 442.2 205.8 442.2 260.5Z" fill="url(#paint3_linear)"/>
<path opacity="0.2" d="M306.3 672.2L484 569.6V662.2L306.3 764.8V672.2Z" fill="url(#paint4_linear)"/>
<path fill-rule="evenodd" clip-rule="evenodd" d="M447.9 621.5C447.9 629.1 452.4 632.7 458 629.5C463.6 626.3 468.1 617.5 468.1 609.9C468.1 602.3 463.6 598.7 458 601.9C452.4 605.1 447.9 613.9 447.9 621.5Z" fill="#F2C94C"/>
<path opacity="0.15" d="M438.5 618.2L385.1 649.1V660.2L438.6 629.3L438.5 618.2Z" fill="white"/>
<path opacity="0.15" d="M438.5 640.5L324.7 706.2V717.5L438.5 651.8V640.5Z" fill="white"/>
<path opacity="0.2" d="M667.3 565.2L845 462.7V555.3L667.3 657.9V565.2Z" fill="url(#paint5_linear)"/>
<path fill-rule="evenodd" clip-rule="evenodd" d="M808.9 514.5C808.9 522.1 813.4 525.7 819 522.5C824.6 519.3 829.1 510.5 829.1 502.9C829.1 495.3 824.6 491.7 819 494.9C813.4 498.1 808.9 506.9 808.9 514.5Z" fill="#F2994A"/>
<path opacity="0.15" d="M799.8 511.7L767.6 530.3V541.6L799.8 523V511.7Z" fill="white"/>
<path opacity="0.15" d="M799.5 534L685.7 599.7V611L799.5 545.3V534Z" fill="white"/>
<path opacity="0.3" d="M552.8 667.6L216.1 862L216 1037.5L523 860.3L552.7 870L552.8 667.6Z" fill="url(#paint6_linear)"/>
<path fill-rule="evenodd" clip-rule="evenodd" d="M484.4 765.9C484.4 780.4 492.9 787.1 503.5 781C514.1 774.9 522.6 758.2 522.6 743.8C522.6 729.3 514.1 722.6 503.5 728.7C493 734.8 484.4 751.5 484.4 765.9Z" fill="#F2C94C"/>
<path opacity="0.15" d="M466.2 760.3L392.4 802.9V818.3L466.2 775.7V760.3Z" fill="white"/>
<path opacity="0.15" d="M466.2 791.2L245.8 918.4V933.8L466.2 806.6V791.2Z" fill="white"/>
<path opacity="0.15" d="M466.2 822.1L293.9 921.6V937L466.2 837.5V822.1Z" fill="white"/>
<path opacity="0.3" d="M598.3 718L935 523.7L934.9 699.2L627.9 876.4L598.2 920.4L598.3 718Z" fill="url(#paint7_linear)"/>
<path fill-rule="evenodd" clip-rule="evenodd" d="M666.7 737.3C666.7 751.8 658.1 768.4 647.6 774.5C637 780.6 628.5 773.8 628.5 759.3C628.5 744.8 637.1 728.2 647.6 722.1C658.1 716.1 666.7 722.9 666.7 737.3Z" fill="#F2994A"/>
<path opacity="0.15" d="M684.9 710.8L758.7 668.2V683.6L684.9 726.2V710.8V710.8Z" fill="white"/>
<path opacity="0.15" d="M684.8 741.6L905.2 614.4V629.8L684.9 757L684.8 741.6Z" fill="white"/>
<path opacity="0.15" d="M684.8 772.5L857.1 673V688.4L684.8 787.9V772.5Z" fill="white"/>
<path opacity="0.2" d="M794.8 827.3C788.8 830.7 784 839.1 784 846.1V876.6L763.8 888.2C757.8 891.6 753 900 753 906.9C753 913.8 757.8 916.6 763.8 913.2L784 901.5V932C784 938.9 788.8 941.7 794.8 938.3C800.8 934.9 805.6 926.5 805.6 919.6V889.1L825.8 877.5C831.8 874.1 836.6 865.7 836.6 858.8C836.6 851.9 831.8 849.1 825.8 852.5L805.6 864.1V833.6C805.7 826.6 800.8 823.8 794.8 827.3Z" fill="url(#paint8_linear)"/>
<path opacity="0.2" d="M360.3 436.6L332.5 491.2C328.7 498.7 329.3 506.2 333.9 508C338.5 509.8 345.3 505.1 349.1 497.6L349.4 496.9V557.5C349.4 564.4 354.2 567.2 360.2 563.8C366.2 560.3 371 552 371 545.1V484.5L371.3 484.8C375.1 487.9 382 484.7 386.5 477.6C391.1 470.5 391.7 462.3 387.9 459.2L360.3 436.6Z" fill="url(#paint9_linear)"/>
<path opacity="0.2" d="M598.3 534.2L641.1 509.5V495.1L598.3 519.8C594.8 521.8 589.7 525.9 585.4 532.2C580.7 538.9 577.4 547.4 577.4 556.6C577.4 566.8 580 572.6 584.9 574.2C589.5 575.7 595 573.1 598.3 571.2L615.9 561L616 560.9C617.5 560 619.9 559.1 621.8 559.7C623.4 560.2 625.1 561.7 625.1 567.4C625.1 573.1 623.3 576.5 621.9 578.6C620.1 581.2 617.7 583 616.2 583.8L616 583.9L562.2 615V629.4L615.7 598.5C619.4 596.6 624.7 592.5 629.3 586.1C634.3 579 637.7 570.1 637.7 560.2C637.7 550.3 634.3 545.3 629.4 543.9C624.8 542.6 619.5 544.5 615.8 546.7L598.4 556.8C595.9 558.3 594 558.9 592.7 558.5C591.7 558.2 589.9 556.8 589.9 549.5C589.9 544.7 591.4 541.6 592.9 539.6C594.6 536.9 596.8 535 598.3 534.2Z" fill="white"/>
<path fill-rule="evenodd" clip-rule="evenodd" d="M633.2 506.4C633.2 519.3 640.8 525.4 650.1 520.1C659.4 514.7 667 499.9 667 486.9C667 474 659.4 467.9 650.1 473.2C640.8 478.6 633.2 493.5 633.2 506.4Z" fill="#F2994A"/>
<path fill-rule="evenodd" clip-rule="evenodd" d="M540.2 634.4C540.2 647.3 547.8 653.4 557.1 648.1C566.4 642.7 574 627.9 574 614.9C574 602 566.4 595.9 557.1 601.2C547.8 606.6 540.2 621.5 540.2 634.4Z" fill="#F2C94C"/>
<defs>
<linearGradient id="paint0_linear" x1="201.967" y1="466.574" x2="460.923" y2="647.901" gradientUnits="userSpaceOnUse">
<stop stop-color="white"/>
<stop offset="1" stop-color="white" stop-opacity="0.01"/>
</linearGradient>
<linearGradient id="paint1_linear" x1="362.079" y1="351.389" x2="647.868" y2="441.732" gradientUnits="userSpaceOnUse">
<stop stop-color="white"/>
<stop offset="1" stop-color="white" stop-opacity="0.01"/>
</linearGradient>
<linearGradient id="paint2_linear" x1="161.552" y1="433.763" x2="420.507" y2="615.088" gradientUnits="userSpaceOnUse">
<stop stop-color="white"/>
<stop offset="1" stop-color="white" stop-opacity="0.01"/>
</linearGradient>
<linearGradient id="paint3_linear" x1="321.662" y1="318.577" x2="607.452" y2="408.92" gradientUnits="userSpaceOnUse">
<stop stop-color="white"/>
<stop offset="1" stop-color="white" stop-opacity="0.01"/>
</linearGradient>
<linearGradient id="paint4_linear" x1="343.47" y1="654.483" x2="389.157" y2="720.079" gradientUnits="userSpaceOnUse">
<stop stop-color="white"/>
<stop offset="1" stop-color="white" stop-opacity="0.01"/>
</linearGradient>
<linearGradient id="paint5_linear" x1="704.458" y1="547.52" x2="750.12" y2="613.082" gradientUnits="userSpaceOnUse">
<stop stop-color="white"/>
<stop offset="1" stop-color="white" stop-opacity="0.01"/>
</linearGradient>
<linearGradient id="paint6_linear" x1="247.406" y1="649.4" x2="195.089" y2="1001.19" gradientUnits="userSpaceOnUse">
<stop stop-color="white"/>
<stop offset="1" stop-color="white" stop-opacity="0.01"/>
</linearGradient>
<linearGradient id="paint7_linear" x1="613.91" y1="750.14" x2="804.052" y2="857.452" gradientUnits="userSpaceOnUse">
<stop stop-color="white"/>
<stop offset="1" stop-color="white" stop-opacity="0.01"/>
</linearGradient>
<linearGradient id="paint8_linear" x1="758.772" y1="901.956" x2="817.996" y2="927.112" gradientUnits="userSpaceOnUse">
<stop stop-color="white"/>
<stop offset="1" stop-color="white" stop-opacity="0.01"/>
</linearGradient>
<linearGradient id="paint9_linear" x1="333.894" y1="545.718" x2="387.282" y2="552.276" gradientUnits="userSpaceOnUse">
<stop stop-color="white"/>
<stop offset="1" stop-color="white" stop-opacity="0.01"/>
</linearGradient>
</defs>
</svg>
