<svg width="1150" height="1150" viewBox="0 0 1150 1150" fill="none" xmlns="http://www.w3.org/2000/svg">
<rect width="1150" height="1150" fill="white"/>
<rect width="1150" height="1150" fill="#003ECB"/>
<path opacity="0.5" d="M598.3 396.8C535.4 360.1 483.4 394.4 474.2 473.6C472.6 487.3 483 505.4 495.7 512.8L700.9 632.6C713.6 640 724 634 722.4 618.4C713.2 528.7 661.1 433.5 598.3 396.8Z" fill="url(#paint0_linear)"/>
<path opacity="0.5" d="M668.4 294C668.4 348.7 636.8 374.5 597.8 351.7C558.8 328.9 527.2 266.2 527.2 211.5C527.2 156.8 558.8 131 597.8 153.8C636.8 176.6 668.4 239.3 668.4 294Z" fill="url(#paint1_linear)"/>
<path opacity="0.07" d="M638.7 364C575.8 327.3 523.8 361.6 514.6 440.8C513 454.5 523.4 472.6 536.1 480L741.3 599.8C754 607.2 764.4 601.2 762.8 585.6C753.6 495.9 701.6 400.7 638.7 364Z" fill="url(#paint2_linear)"/>
<path opacity="0.07" d="M708.8 261.2C708.8 315.9 677.2 341.7 638.2 318.9C599.2 296.1 567.6 233.4 567.6 178.7C567.6 124 599.2 98.2002 638.2 121C677.2 143.8 708.8 206.5 708.8 261.2Z" fill="url(#paint3_linear)"/>
<path opacity="0.2" d="M844.7 672.9L667 570.3V662.9L844.7 765.5V672.9Z" fill="url(#paint4_linear)"/>
<path fill-rule="evenodd" clip-rule="evenodd" d="M703.1 622.2C703.1 629.8 698.6 633.4 693 630.2C687.4 627 682.9 618.2 682.9 610.6C682.9 603 687.4 599.4 693 602.6C698.6 605.8 703.1 614.6 703.1 622.2Z" fill="#F2C94C"/>
<path opacity="0.15" d="M712.5 618.9L765.9 649.8V660.9L712.4 630L712.5 618.9Z" fill="white"/>
<path opacity="0.15" d="M712.5 641.2L826.3 706.9V718.2L712.5 652.5V641.2V641.2Z" fill="white"/>
<path opacity="0.2" d="M483.7 565.9L306 463.4V556L483.7 658.6V565.9Z" fill="url(#paint5_linear)"/>
<path fill-rule="evenodd" clip-rule="evenodd" d="M342.1 515.2C342.1 522.8 337.6 526.4 332 523.2C326.4 520 321.9 511.2 321.9 503.6C321.9 496 326.4 492.4 332 495.6C337.6 498.8 342.1 507.6 342.1 515.2Z" fill="#F2994A"/>
<path opacity="0.15" d="M351.2 512.4L383.4 531V542.3L351.2 523.7V512.4Z" fill="white"/>
<path opacity="0.15" d="M351.5 534.7L465.3 600.4V611.7L351.5 546V534.7Z" fill="white"/>
<path opacity="0.3" d="M598.2 668.3L934.9 862.7L935 1038.2L628 861L598.3 870.7L598.2 668.3Z" fill="url(#paint6_linear)"/>
<path fill-rule="evenodd" clip-rule="evenodd" d="M666.6 766.6C666.6 781.1 658.1 787.8 647.5 781.7C636.9 775.6 628.4 758.9 628.4 744.5C628.4 730 636.9 723.3 647.5 729.4C658 735.5 666.6 752.2 666.6 766.6Z" fill="#F2C94C"/>
<path opacity="0.15" d="M684.8 761L758.6 803.6V819L684.8 776.4V761Z" fill="white"/>
<path opacity="0.15" d="M684.8 791.9L905.2 919.1V934.5L684.8 807.3V791.9Z" fill="white"/>
<path opacity="0.15" d="M684.8 822.8L857.1 922.3V937.7L684.8 838.2V822.8Z" fill="white"/>
<path opacity="0.3" d="M552.7 718.7L216 524.4L216.1 699.9L523.1 877.1L552.8 921.1L552.7 718.7Z" fill="url(#paint7_linear)"/>
<path fill-rule="evenodd" clip-rule="evenodd" d="M484.3 738C484.3 752.5 492.9 769.1 503.4 775.2C514 781.3 522.5 774.5 522.5 760C522.5 745.5 513.9 728.9 503.4 722.8C492.9 716.8 484.3 723.6 484.3 738Z" fill="#F2994A"/>
<path opacity="0.15" d="M466.1 711.5L392.3 668.9V684.3L466.1 726.9V711.5V711.5Z" fill="white"/>
<path opacity="0.15" d="M466.2 742.3L245.8 615.1V630.5L466.1 757.7L466.2 742.3Z" fill="white"/>
<path opacity="0.15" d="M466.2 773.2L293.9 673.7V689.1L466.2 788.6V773.2Z" fill="white"/>
<path opacity="0.2" d="M356.2 828C362.2 831.4 367 839.8 367 846.8V877.3L387.2 888.9C393.2 892.3 398 900.7 398 907.6C398 914.5 393.2 917.3 387.2 913.9L367 902.2V932.7C367 939.6 362.2 942.4 356.2 939C350.2 935.6 345.4 927.2 345.4 920.3V889.8L325.2 878.2C319.2 874.8 314.4 866.4 314.4 859.5C314.4 852.6 319.2 849.8 325.2 853.2L345.4 864.8V834.3C345.3 827.3 350.2 824.5 356.2 828Z" fill="url(#paint8_linear)"/>
<path opacity="0.2" d="M790.7 437.3L818.5 491.9C822.3 499.4 821.7 506.9 817.1 508.7C812.5 510.5 805.7 505.8 801.9 498.3L801.6 497.6V558.2C801.6 565.1 796.8 567.9 790.8 564.5C784.8 561 780 552.7 780 545.8V485.2L779.7 485.5C775.9 488.6 769 485.4 764.5 478.3C759.9 471.2 759.3 463 763.1 459.9L790.7 437.3Z" fill="url(#paint9_linear)"/>
<path opacity="0.2" d="M552.7 534.9L509.9 510.2V495.8L552.7 520.5C556.2 522.5 561.3 526.6 565.6 532.9C570.3 539.6 573.6 548.1 573.6 557.3C573.6 567.5 571 573.3 566.1 574.9C561.5 576.4 556 573.8 552.7 571.9L535.1 561.7L535 561.6C533.5 560.7 531.1 559.8 529.2 560.4C527.6 560.9 525.9 562.4 525.9 568.1C525.9 573.8 527.7 577.2 529.1 579.3C530.9 581.9 533.3 583.7 534.8 584.5L535 584.6L588.8 615.7V630.1L535.3 599.2C531.6 597.3 526.3 593.2 521.7 586.8C516.7 579.7 513.3 570.8 513.3 560.9C513.3 551 516.7 546 521.6 544.6C526.2 543.3 531.5 545.2 535.2 547.4L552.6 557.5C555.1 559 557 559.6 558.3 559.2C559.3 558.9 561.1 557.5 561.1 550.2C561.1 545.4 559.6 542.3 558.1 540.3C556.4 537.6 554.2 535.7 552.7 534.9Z" fill="white"/>
<path fill-rule="evenodd" clip-rule="evenodd" d="M517.8 507.1C517.8 520 510.2 526.1 500.9 520.8C491.6 515.4 484 500.6 484 487.6C484 474.7 491.6 468.6 500.9 473.9C510.2 479.3 517.8 494.2 517.8 507.1Z" fill="#F2994A"/>
<path fill-rule="evenodd" clip-rule="evenodd" d="M610.8 635.1C610.8 648 603.2 654.1 593.9 648.8C584.6 643.4 577 628.6 577 615.6C577 602.7 584.6 596.6 593.9 601.9C603.2 607.3 610.8 622.2 610.8 635.1Z" fill="#F2C94C"/>
<defs>
<linearGradient id="paint0_linear" x1="766.467" y1="206.552" x2="507.511" y2="387.877" gradientUnits="userSpaceOnUse">
<stop stop-color="white"/>
<stop offset="1" stop-color="white" stop-opacity="0.01"/>
</linearGradient>
<linearGradient id="paint1_linear" x1="666.255" y1="-35.9458" x2="380.465" y2="54.3981" gradientUnits="userSpaceOnUse">
<stop stop-color="white"/>
<stop offset="1" stop-color="white" stop-opacity="0.01"/>
</linearGradient>
<linearGradient id="paint2_linear" x1="806.884" y1="173.74" x2="547.928" y2="355.065" gradientUnits="userSpaceOnUse">
<stop stop-color="white"/>
<stop offset="1" stop-color="white" stop-opacity="0.01"/>
</linearGradient>
<linearGradient id="paint3_linear" x1="706.672" y1="-68.7579" x2="420.882" y2="21.5857" gradientUnits="userSpaceOnUse">
<stop stop-color="white"/>
<stop offset="1" stop-color="white" stop-opacity="0.01"/>
</linearGradient>
<linearGradient id="paint4_linear" x1="744.275" y1="611.13" x2="698.588" y2="676.727" gradientUnits="userSpaceOnUse">
<stop stop-color="white"/>
<stop offset="1" stop-color="white" stop-opacity="0.01"/>
</linearGradient>
<linearGradient id="paint5_linear" x1="383.321" y1="504.192" x2="337.659" y2="569.754" gradientUnits="userSpaceOnUse">
<stop stop-color="white"/>
<stop offset="1" stop-color="white" stop-opacity="0.01"/>
</linearGradient>
<linearGradient id="paint6_linear" x1="582.093" y1="697.916" x2="634.41" y2="1049.71" gradientUnits="userSpaceOnUse">
<stop stop-color="white"/>
<stop offset="1" stop-color="white" stop-opacity="0.01"/>
</linearGradient>
<linearGradient id="paint7_linear" x1="421.509" y1="546.047" x2="231.367" y2="653.358" gradientUnits="userSpaceOnUse">
<stop stop-color="white"/>
<stop offset="1" stop-color="white" stop-opacity="0.01"/>
</linearGradient>
<linearGradient id="paint8_linear" x1="361.914" y1="831.292" x2="302.69" y2="856.448" gradientUnits="userSpaceOnUse">
<stop stop-color="white"/>
<stop offset="1" stop-color="white" stop-opacity="0.01"/>
</linearGradient>
<linearGradient id="paint9_linear" x1="803.834" y1="438.371" x2="750.445" y2="444.929" gradientUnits="userSpaceOnUse">
<stop stop-color="white"/>
<stop offset="1" stop-color="white" stop-opacity="0.01"/>
</linearGradient>
</defs>
</svg>
