<svg width="1150" height="1150" viewBox="0 0 1150 1150" fill="none" xmlns="http://www.w3.org/2000/svg">
<rect width="1150" height="1150" fill="white"/>
<rect width="1150" height="1150" fill="#003ECB"/>
<path opacity="0.07" d="M517.2 128.2L964.1 628.1L517.1 612.1C513.8 612 510.2 606.6 511 603L556 403.2L781.2 516L553.3 367.1L511.1 130.4C510.3 125.8 513.9 124.6 517.2 128.2Z" fill="url(#paint0_linear)"/>
<path opacity="0.4" d="M482.9 153.1L929.8 653L482.8 637C479.5 636.9 475.9 631.5 476.7 627.9L521.6 428.2L746.8 541L519.1 392L476.8 155.3C476 150.7 479.6 149.5 482.9 153.1Z" fill="url(#paint1_linear)"/>
<path opacity="0.3" d="M515.8 681.2L218.2 509.4L218.3 664.5L489.6 821.1L515.9 860L515.8 681.2Z" fill="url(#paint2_linear)"/>
<path fill-rule="evenodd" clip-rule="evenodd" d="M186.5 569.9V527.8L298.8 592.6V634.7L186.5 569.9Z" fill="#F2994A"/>
<path opacity="0.15" d="M439.3 674.8L374.1 637.2V650.8L439.3 688.4V674.8Z" fill="white"/>
<path opacity="0.15" d="M439.3 702L313.6 629.5V643.1L439.3 715.6V702Z" fill="white"/>
<path opacity="0.15" d="M439.4 729.3L287.1 641.4V655L439.4 742.9V729.3Z" fill="white"/>
<path fill-rule="evenodd" clip-rule="evenodd" d="M455.4 698.2C455.4 711 463 725.7 472.3 731.1C481.6 736.5 489.2 730.5 489.2 717.7C489.2 704.9 481.6 690.2 472.3 684.8C462.9 679.4 455.4 685.4 455.4 698.2Z" fill="#F2994A"/>
<path opacity="0.3" d="M541.5 553.1L839.1 724.9L839.2 880L567.8 723.3L541.6 731.9L541.5 553.1Z" fill="url(#paint3_linear)"/>
<path fill-rule="evenodd" clip-rule="evenodd" d="M752.5 752.2V710.1L864.8 774.9V817L752.5 752.2Z" fill="#F2C94C"/>
<path opacity="0.15" d="M618 635L683.2 672.6V686.2L618 648.6V635Z" fill="white"/>
<path opacity="0.15" d="M618 662.3L735.7 730.2V743.8L618 675.9V662.3Z" fill="white"/>
<path opacity="0.15" d="M618.1 689.5L770.4 777.4V791L618.1 703.1V689.5Z" fill="white"/>
<path fill-rule="evenodd" clip-rule="evenodd" d="M602 639.9C602 652.7 594.4 658.7 585.1 653.3C575.8 647.9 568.2 633.2 568.2 620.4C568.2 607.6 575.8 601.6 585.1 607C594.4 612.4 602 627.2 602 639.9Z" fill="#F2C94C"/>
<path opacity="0.2" d="M879.8 932.3L702.1 829.7V922.3L879.8 1024.9V932.3Z" fill="url(#paint4_linear)"/>
<path opacity="0.15" d="M747.6 878.3L801 909.2V920.3L747.6 889.4V878.3Z" fill="white"/>
<path opacity="0.15" d="M747.6 900.6L861.4 966.3V977.6L747.6 911.9V900.6Z" fill="white"/>
<path fill-rule="evenodd" clip-rule="evenodd" d="M738.2 881.6C738.2 889.2 733.7 892.8 728.1 889.6C722.5 886.4 718 877.6 718 870C718 862.4 722.5 858.8 728.1 862C733.7 865.2 738.2 874 738.2 881.6Z" fill="#F2C94C"/>
<path opacity="0.2" d="M387.8 790.3L210.1 687.7V780.3L387.8 882.9V790.3Z" fill="url(#paint5_linear)"/>
<path opacity="0.15" d="M255.6 736.3L309 767.2V778.3L255.6 747.4V736.3Z" fill="white"/>
<path opacity="0.15" d="M255.6 758.6L369.4 824.3V835.6L255.6 769.9V758.6Z" fill="white"/>
<path fill-rule="evenodd" clip-rule="evenodd" d="M246.2 739.6C246.2 747.2 241.7 750.8 236.1 747.6C230.5 744.4 226 735.6 226 728C226 720.4 230.5 716.8 236.1 720C241.7 723.2 246.2 732 246.2 739.6Z" fill="#F2994A"/>
<path opacity="0.2" d="M413.3 495.8L370.5 471.1V456.7L413.3 481.4C416.8 483.4 421.9 487.5 426.2 493.8C430.9 500.5 434.2 509 434.2 518.2C434.2 528.4 431.6 534.2 426.7 535.8C422.1 537.3 416.6 534.7 413.3 532.8L395.7 522.6L395.6 522.5C394.1 521.6 391.7 520.7 389.8 521.3C388.2 521.8 386.5 523.3 386.5 529C386.5 534.7 388.3 538.1 389.7 540.2C391.5 542.8 393.9 544.6 395.4 545.4L395.6 545.5L449.4 576.6V591L395.9 560.1C392.2 558.2 386.9 554.1 382.3 547.7C377.3 540.6 373.9 531.7 373.9 521.8C373.9 511.9 377.3 506.9 382.2 505.5C386.8 504.2 392.1 506.1 395.8 508.3L413.2 518.3C415.7 519.8 417.6 520.4 418.9 520C419.9 519.7 421.7 518.3 421.7 511C421.7 506.2 420.2 503.1 418.7 501.1C417 498.5 414.7 496.6 413.3 495.8Z" fill="white"/>
<path fill-rule="evenodd" clip-rule="evenodd" d="M378.3 468C378.3 480.9 370.7 487 361.4 481.7C352.1 476.3 344.5 461.5 344.5 448.5C344.5 435.6 352.1 429.5 361.4 434.8C370.7 440.2 378.3 455.1 378.3 468Z" fill="#F2994A"/>
<path fill-rule="evenodd" clip-rule="evenodd" d="M471.3 596C471.3 608.9 463.7 615 454.4 609.7C445.1 604.3 437.5 589.5 437.5 576.5C437.5 563.6 445.1 557.5 454.4 562.8C463.7 568.2 471.3 583.1 471.3 596Z" fill="#F2C94C"/>
<path opacity="0.2" d="M590.1 802.7V887C590.1 887.9 591 888.9 591.6 888.6L611.3 876.5L631.4 912.1C632.5 914 634.4 914.2 634.4 912.4V828.4L590.1 802.7Z" fill="url(#paint6_linear)"/>
<defs>
<linearGradient id="paint0_linear" x1="675.344" y1="186.983" x2="446.898" y2="432.872" gradientUnits="userSpaceOnUse">
<stop stop-color="white"/>
<stop offset="1" stop-color="white" stop-opacity="0.01"/>
</linearGradient>
<linearGradient id="paint1_linear" x1="641.056" y1="211.867" x2="412.61" y2="457.756" gradientUnits="userSpaceOnUse">
<stop stop-color="white"/>
<stop offset="1" stop-color="white" stop-opacity="0.01"/>
</linearGradient>
<linearGradient id="paint2_linear" x1="399.84" y1="528.558" x2="231.82" y2="623.408" gradientUnits="userSpaceOnUse">
<stop stop-color="white"/>
<stop offset="1" stop-color="white" stop-opacity="0.01"/>
</linearGradient>
<linearGradient id="paint3_linear" x1="527.273" y1="579.217" x2="573.489" y2="890.097" gradientUnits="userSpaceOnUse">
<stop stop-color="white"/>
<stop offset="1" stop-color="white" stop-opacity="0.01"/>
</linearGradient>
<linearGradient id="paint4_linear" x1="779.376" y1="870.532" x2="733.69" y2="936.127" gradientUnits="userSpaceOnUse">
<stop stop-color="white"/>
<stop offset="1" stop-color="white" stop-opacity="0.01"/>
</linearGradient>
<linearGradient id="paint5_linear" x1="287.376" y1="728.531" x2="241.689" y2="794.127" gradientUnits="userSpaceOnUse">
<stop stop-color="white"/>
<stop offset="1" stop-color="white" stop-opacity="0.01"/>
</linearGradient>
<linearGradient id="paint6_linear" x1="625.046" y1="782.678" x2="571.942" y2="788.04" gradientUnits="userSpaceOnUse">
<stop stop-color="white"/>
<stop offset="1" stop-color="white" stop-opacity="0.01"/>
</linearGradient>
</defs>
</svg>
