<svg width="1150" height="1150" viewBox="0 0 1150 1150" fill="none" xmlns="http://www.w3.org/2000/svg">
<rect width="1150" height="1150" fill="white"/>
<rect width="1150" height="1150" fill="#003ECB"/>
<path opacity="0.07" d="M633.4 128.2L186.5 628.1L633.5 612.1C636.8 612 640.4 606.6 639.6 603L594.7 403.3L369.4 516L597.2 367.1L639.5 130.4C640.3 125.8 636.7 124.6 633.4 128.2Z" fill="url(#paint0_linear)"/>
<path opacity="0.4" d="M667.7 153.1L220.8 653L667.8 637C671.1 636.9 674.7 631.5 673.9 627.9L629 428.2L403.7 540.9L631.5 392L673.7 155.3C674.6 150.7 671 149.5 667.7 153.1Z" fill="url(#paint1_linear)"/>
<path opacity="0.3" d="M634.8 681.2L932.4 509.4L932.3 664.5L660.9 821.1L634.7 860L634.8 681.2Z" fill="url(#paint2_linear)"/>
<path fill-rule="evenodd" clip-rule="evenodd" d="M964 569.9V527.8L851.7 592.6V634.7L964 569.9Z" fill="#F2994A"/>
<path opacity="0.15" d="M711.3 674.8L776.5 637.2V650.8L711.3 688.4V674.8Z" fill="white"/>
<path opacity="0.15" d="M711.2 702L836.9 629.5V643.1L711.2 715.6V702Z" fill="white"/>
<path opacity="0.15" d="M711.2 729.3L863.5 641.4V655L711.2 742.9V729.3Z" fill="white"/>
<path fill-rule="evenodd" clip-rule="evenodd" d="M695.2 698.2C695.2 711 687.6 725.7 678.3 731.1C669 736.5 661.4 730.5 661.4 717.7C661.4 704.9 669 690.2 678.3 684.8C687.7 679.4 695.2 685.4 695.2 698.2Z" fill="#F2994A"/>
<path opacity="0.3" d="M609.1 553.1L311.5 724.8L311.4 879.9L582.7 723.3L608.9 731.9L609.1 553.1Z" fill="url(#paint3_linear)"/>
<path fill-rule="evenodd" clip-rule="evenodd" d="M398.1 752.2V710.1L285.8 774.9V817L398.1 752.2Z" fill="#F2C94C"/>
<path opacity="0.15" d="M532.5 635L467.3 672.6V686.2L532.5 648.6V635Z" fill="white"/>
<path opacity="0.15" d="M532.5 662.3L414.8 730.2V743.8L532.5 675.9V662.3Z" fill="white"/>
<path opacity="0.15" d="M532.5 689.5L380.2 777.4V791L532.5 703.1V689.5Z" fill="white"/>
<path fill-rule="evenodd" clip-rule="evenodd" d="M548.6 639.9C548.6 652.7 556.2 658.7 565.5 653.3C574.8 647.9 582.4 633.2 582.4 620.4C582.4 607.6 574.8 601.6 565.5 607C556.2 612.4 548.6 627.2 548.6 639.9Z" fill="#F2C94C"/>
<path opacity="0.2" d="M270.8 932.3L448.5 829.7V922.3L270.8 1024.9V932.3Z" fill="url(#paint4_linear)"/>
<path opacity="0.15" d="M403 878.3L349.6 909.2V920.3L403 889.4V878.3Z" fill="white"/>
<path opacity="0.15" d="M403 900.6L289.2 966.3V977.6L403 911.9V900.6Z" fill="white"/>
<path fill-rule="evenodd" clip-rule="evenodd" d="M412.4 881.6C412.4 889.2 416.9 892.8 422.5 889.6C428.1 886.4 432.6 877.6 432.6 870C432.6 862.4 428.1 858.8 422.5 862C416.9 865.2 412.4 874 412.4 881.6Z" fill="#F2C94C"/>
<path opacity="0.2" d="M762.8 790.3L940.5 687.7V780.3L762.8 882.9V790.3Z" fill="url(#paint5_linear)"/>
<path opacity="0.15" d="M895 736.3L841.6 767.2V778.3L895 747.4V736.3Z" fill="white"/>
<path opacity="0.15" d="M895 758.6L781.2 824.3V835.6L895 769.9V758.6Z" fill="white"/>
<path fill-rule="evenodd" clip-rule="evenodd" d="M904.4 739.6C904.4 747.2 908.9 750.8 914.5 747.6C920.1 744.4 924.6 735.6 924.6 728C924.6 720.4 920.1 716.8 914.5 720C908.9 723.2 904.4 732 904.4 739.6Z" fill="#F2994A"/>
<path opacity="0.2" d="M737.3 495.8L780.1 471.1V456.7L737.3 481.4C733.8 483.4 728.7 487.5 724.4 493.8C719.7 500.5 716.4 509 716.4 518.2C716.4 528.4 719 534.2 723.9 535.8C728.5 537.3 734 534.7 737.3 532.8L754.9 522.6L755 522.5C756.5 521.6 758.9 520.7 760.8 521.3C762.4 521.8 764.1 523.3 764.1 529C764.1 534.7 762.3 538.1 760.9 540.2C759.1 542.8 756.7 544.6 755.2 545.4L755 545.5L701.2 576.6V591L754.7 560.1C758.4 558.2 763.7 554.1 768.3 547.7C773.3 540.6 776.7 531.7 776.7 521.8C776.7 511.9 773.3 506.9 768.4 505.5C763.8 504.2 758.5 506.1 754.8 508.3L737.4 518.3C734.9 519.8 733 520.4 731.7 520C730.7 519.7 728.9 518.3 728.9 511C728.9 506.2 730.4 503.1 731.9 501.1C733.6 498.5 735.9 496.6 737.3 495.8Z" fill="white"/>
<path fill-rule="evenodd" clip-rule="evenodd" d="M772.3 468C772.3 480.9 779.9 487 789.2 481.7C798.5 476.3 806.1 461.5 806.1 448.5C806.1 435.6 798.5 429.5 789.2 434.8C779.9 440.2 772.3 455.1 772.3 468Z" fill="#F2994A"/>
<path fill-rule="evenodd" clip-rule="evenodd" d="M679.3 596C679.3 608.9 686.9 615 696.2 609.7C705.5 604.3 713.1 589.5 713.1 576.5C713.1 563.6 705.5 557.5 696.2 562.8C686.9 568.2 679.3 583.1 679.3 596Z" fill="#F2C94C"/>
<path opacity="0.2" d="M560.5 802.7V887C560.5 887.9 559.6 888.9 559 888.6L539.3 876.5L519.2 912C518.1 913.9 516.2 914.1 516.2 912.3V828.3L560.5 802.7Z" fill="url(#paint6_linear)"/>
<defs>
<linearGradient id="paint0_linear" x1="232.451" y1="412.549" x2="460.896" y2="658.439" gradientUnits="userSpaceOnUse">
<stop stop-color="white"/>
<stop offset="1" stop-color="white" stop-opacity="0.01"/>
</linearGradient>
<linearGradient id="paint1_linear" x1="266.705" y1="437.46" x2="495.151" y2="683.35" gradientUnits="userSpaceOnUse">
<stop stop-color="white"/>
<stop offset="1" stop-color="white" stop-opacity="0.01"/>
</linearGradient>
<linearGradient id="paint2_linear" x1="648.584" y1="709.523" x2="816.604" y2="804.373" gradientUnits="userSpaceOnUse">
<stop stop-color="white"/>
<stop offset="1" stop-color="white" stop-opacity="0.01"/>
</linearGradient>
<linearGradient id="paint3_linear" x1="339.122" y1="536.981" x2="292.933" y2="847.866" gradientUnits="userSpaceOnUse">
<stop stop-color="white"/>
<stop offset="1" stop-color="white" stop-opacity="0.01"/>
</linearGradient>
<linearGradient id="paint4_linear" x1="307.993" y1="914.601" x2="353.655" y2="980.161" gradientUnits="userSpaceOnUse">
<stop stop-color="white"/>
<stop offset="1" stop-color="white" stop-opacity="0.01"/>
</linearGradient>
<linearGradient id="paint5_linear" x1="799.992" y1="772.599" x2="845.655" y2="838.159" gradientUnits="userSpaceOnUse">
<stop stop-color="white"/>
<stop offset="1" stop-color="white" stop-opacity="0.01"/>
</linearGradient>
<linearGradient id="paint6_linear" x1="512.796" y1="908.872" x2="565.905" y2="914.245" gradientUnits="userSpaceOnUse">
<stop stop-color="white"/>
<stop offset="1" stop-color="white" stop-opacity="0.01"/>
</linearGradient>
</defs>
</svg>
