<svg width="1150" height="1150" viewBox="0 0 1150 1150" fill="none" xmlns="http://www.w3.org/2000/svg">
<rect width="1150" height="1150" fill="white"/>
<rect width="1150" height="1150" fill="#003ECB"/>
<path opacity="0.4" d="M823.3 426.3C861.9 448.6 893.2 423.3 893.3 369.8C893.3 316.3 862 254.8 823.4 232.5C784.8 210.2 753.5 235.5 753.4 289C753.4 300.8 754.9 312.9 757.7 324.9L615.4 378C602.8 353.7 585.5 333.2 566.5 322.2C527.9 299.9 496.6 325.2 496.5 378.7C496.5 432.2 527.8 493.7 566.4 516C584.7 526.6 601.4 526.4 613.9 517.7L753.4 730.8C753.4 732.1 753.3 733.3 753.3 734.6C753.3 788.1 784.6 849.6 823.2 871.9C861.8 894.2 893.1 868.9 893.2 815.4C893.2 761.9 861.9 700.4 823.3 678.1C797.9 663.5 775.7 669.4 763.4 690.3L632.3 490C635 481.3 636.4 471.1 636.4 459.5C636.4 448.9 635.2 438.1 632.9 427.3L776.2 373.8C788.6 396.7 805.2 415.8 823.3 426.3Z" fill="url(#paint0_linear)"/>
<path opacity="0.07" d="M932.9 339.4C932.9 392.9 901.6 418.2 862.9 395.9C824.3 373.6 793 312.2 793 258.6C793 205.1 824.3 179.8 863 202.1C901.6 224.4 932.9 285.9 932.9 339.4Z" fill="url(#paint1_linear)"/>
<path opacity="0.07" d="M675.9 427.4C675.9 480.9 644.6 506.2 605.9 483.9C567.3 461.6 536 400.1 536 346.6C536 293.1 567.3 267.8 606 290.1C644.6 312.4 675.9 373.9 675.9 427.4Z" fill="url(#paint2_linear)"/>
<path opacity="0.07" d="M933.9 785.4C933.9 838.9 902.6 864.2 863.9 841.9C825.3 819.6 794 758.1 794 704.6C794 651.1 825.3 625.8 864 648.1C902.6 670.4 933.9 731.9 933.9 785.4Z" fill="url(#paint3_linear)"/>
<path opacity="0.2" d="M342 620L540.6 734.7L540.7 911.5L342.1 796.8L342 620Z" fill="url(#paint4_linear)"/>
<path opacity="0.15" d="M342 620L441.4 783.4L540.7 734.6L342 620Z" fill="url(#paint5_linear)"/>
<path fill-rule="evenodd" clip-rule="evenodd" d="M458.5 787.2C458.5 799.7 451 805.4 441.6 800C432.3 794.6 424.7 780.1 424.7 767.7C424.7 755.2 432.2 749.5 441.6 754.9C451 760.3 458.5 774.8 458.5 787.2Z" fill="#F2994A"/>
<path opacity="0.3" d="M545.5 533.7L248 362.1L248.1 513.4L519.4 669.9L545.7 708.2L545.5 533.7Z" fill="url(#paint6_linear)"/>
<path fill-rule="evenodd" clip-rule="evenodd" d="M216.3 420.7V379.6L328.6 444.4V485.5L216.3 420.7Z" fill="#F2994A"/>
<path opacity="0.15" d="M469 526.4L403.8 488.8V502.1L469 539.7V526.4Z" fill="white"/>
<path opacity="0.15" d="M469.1 553L343.4 480.5V493.8L469.1 566.3V553Z" fill="white"/>
<path opacity="0.15" d="M469.1 579.6L316.8 491.8V505.1L469.1 592.9V579.6Z" fill="white"/>
<path fill-rule="evenodd" clip-rule="evenodd" d="M485.1 549.5C485.1 562 492.7 576.4 502 581.8C511.3 587.2 518.9 581.4 518.9 569C518.9 556.5 511.3 542.1 502 536.7C492.6 531.3 485.1 537.1 485.1 549.5Z" fill="#F2994A"/>
<path opacity="0.3" d="M572.5 634.9L870 806.5L870.1 957.8L598.8 801.3L572.6 809.3L572.5 634.9Z" fill="url(#paint7_linear)"/>
<path fill-rule="evenodd" clip-rule="evenodd" d="M783.5 832V790.9L895.8 855.7V896.8L783.5 832Z" fill="#F2C94C"/>
<path opacity="0.15" d="M649 715.8L714.2 753.4V766.7L649 729.1V715.8Z" fill="white"/>
<path opacity="0.15" d="M649 742.4L766.7 810.3V823.6L649 755.8V742.4Z" fill="white"/>
<path opacity="0.15" d="M649 769.1L801.3 856.9V870.2L649 782.4V769.1Z" fill="white"/>
<path fill-rule="evenodd" clip-rule="evenodd" d="M633 720.4C633 732.9 625.5 738.6 616.1 733.2C606.8 727.8 599.2 713.3 599.2 700.9C599.2 688.4 606.7 682.7 616.1 688.1C625.4 693.5 632.9 708 633 720.4Z" fill="#F2C94C"/>
<path opacity="0.2" d="M411.2 330.6L368.4 305.9V291.5L411.2 316.2C414.7 318.2 419.8 322.3 424.1 328.6C428.8 335.3 432.1 343.8 432.1 353C432.1 363.2 429.5 369 424.6 370.6C420 372.1 414.5 369.5 411.2 367.6L393.6 357.4L393.5 357.3C392 356.4 389.6 355.5 387.7 356.1C386.1 356.6 384.4 358.1 384.4 363.8C384.4 369.5 386.2 372.9 387.6 375C389.4 377.6 391.8 379.4 393.3 380.2L393.5 380.3L447.3 411.4V425.8L393.8 394.9C390.1 393 384.8 388.9 380.2 382.5C375.2 375.4 371.8 366.5 371.8 356.6C371.8 346.7 375.2 341.7 380.1 340.3C384.7 339 390 340.9 393.7 343.1L411.1 353.2C413.6 354.7 415.5 355.3 416.8 354.9C417.8 354.6 419.6 353.2 419.6 345.9C419.6 341.1 418.1 338 416.6 336C414.9 333.3 412.7 331.4 411.2 330.6Z" fill="white"/>
<path fill-rule="evenodd" clip-rule="evenodd" d="M376.3 302.8C376.3 315.7 368.7 321.8 359.4 316.5C350.1 311.1 342.5 296.3 342.5 283.3C342.5 270.4 350.1 264.3 359.4 269.6C368.7 275 376.3 289.9 376.3 302.8Z" fill="#F2994A"/>
<path fill-rule="evenodd" clip-rule="evenodd" d="M469.3 430.8C469.3 443.7 461.7 449.8 452.4 444.5C443.1 439.1 435.5 424.3 435.5 411.3C435.5 398.4 443.1 392.3 452.4 397.6C461.7 403 469.3 417.9 469.3 430.8Z" fill="#F2C94C"/>
<path opacity="0.2" d="M554.1 917.8C501.2 849.7 539.5 825.2 554.1 865C568.7 842 607 910.8 554.1 917.8Z" fill="url(#paint8_linear)"/>
<defs>
<linearGradient id="paint0_linear" x1="839.652" y1="127.931" x2="498.291" y2="255.503" gradientUnits="userSpaceOnUse">
<stop stop-color="white"/>
<stop offset="1" stop-color="white" stop-opacity="0.01"/>
</linearGradient>
<linearGradient id="paint1_linear" x1="802.251" y1="51.8845" x2="460.547" y2="206.587" gradientUnits="userSpaceOnUse">
<stop stop-color="white"/>
<stop offset="1" stop-color="white" stop-opacity="0.01"/>
</linearGradient>
<linearGradient id="paint2_linear" x1="545.25" y1="139.885" x2="203.547" y2="294.587" gradientUnits="userSpaceOnUse">
<stop stop-color="white"/>
<stop offset="1" stop-color="white" stop-opacity="0.01"/>
</linearGradient>
<linearGradient id="paint3_linear" x1="803.251" y1="497.885" x2="461.547" y2="652.587" gradientUnits="userSpaceOnUse">
<stop stop-color="white"/>
<stop offset="1" stop-color="white" stop-opacity="0.01"/>
</linearGradient>
<linearGradient id="paint4_linear" x1="397.1" y1="625.031" x2="352.715" y2="793.673" gradientUnits="userSpaceOnUse">
<stop stop-color="white"/>
<stop offset="1" stop-color="white" stop-opacity="0.01"/>
</linearGradient>
<linearGradient id="paint5_linear" x1="325.073" y1="631.421" x2="330.83" y2="819.06" gradientUnits="userSpaceOnUse">
<stop stop-color="white"/>
<stop offset="1" stop-color="white" stop-opacity="0.01"/>
</linearGradient>
<linearGradient id="paint6_linear" x1="427.537" y1="382.618" x2="263.608" y2="478.91" gradientUnits="userSpaceOnUse">
<stop stop-color="white"/>
<stop offset="1" stop-color="white" stop-opacity="0.01"/>
</linearGradient>
<linearGradient id="paint7_linear" x1="562.667" y1="658.853" x2="600.984" y2="963.749" gradientUnits="userSpaceOnUse">
<stop stop-color="white"/>
<stop offset="1" stop-color="white" stop-opacity="0.01"/>
</linearGradient>
<linearGradient id="paint8_linear" x1="552.563" y1="841.627" x2="507.642" y2="863.66" gradientUnits="userSpaceOnUse">
<stop stop-color="white"/>
<stop offset="1" stop-color="white" stop-opacity="0.01"/>
</linearGradient>
</defs>
</svg>
