<svg width="1150" height="1150" viewBox="0 0 1150 1150" fill="none" xmlns="http://www.w3.org/2000/svg">
<rect width="1150" height="1150" fill="white"/>
<rect width="1150" height="1150" fill="#003ECB"/>
<path opacity="0.4" d="M326.6 426.3C288 448.6 256.7 423.3 256.6 369.8C256.6 316.3 287.9 254.8 326.5 232.5C365.1 210.2 396.4 235.5 396.5 289C396.5 300.8 395 312.9 392.2 324.9L534.5 378C547.1 353.7 564.4 333.2 583.4 322.2C622 299.9 653.3 325.2 653.4 378.7C653.4 432.2 622.1 493.7 583.5 516C565.2 526.6 548.5 526.4 536 517.7L396.5 730.9C396.5 732.2 396.6 733.4 396.6 734.7C396.6 788.2 365.3 849.7 326.7 872C288.1 894.3 256.8 869 256.7 815.5C256.7 762 288 700.5 326.6 678.2C352 663.6 374.2 669.5 386.5 690.4L517.7 490C515 481.3 513.6 471.1 513.6 459.5C513.6 448.9 514.8 438.1 517.1 427.3L373.8 373.8C361.3 396.7 344.8 415.8 326.6 426.3Z" fill="url(#paint0_linear)"/>
<path opacity="0.07" d="M217 339.4C217 392.9 248.3 418.2 287 395.9C325.6 373.6 356.9 312.1 356.9 258.6C356.9 205.1 325.6 179.8 286.9 202.1C248.3 224.4 217 285.9 217 339.4Z" fill="url(#paint1_linear)"/>
<path opacity="0.07" d="M474 427.4C474 480.9 505.3 506.2 544 483.9C582.7 461.6 613.9 400.1 613.9 346.6C613.9 293.1 582.6 267.8 543.9 290.1C505.3 312.4 474 373.9 474 427.4Z" fill="url(#paint2_linear)"/>
<path opacity="0.07" d="M216 785.4C216 838.9 247.3 864.2 286 841.9C324.7 819.6 355.9 758.1 355.9 704.6C355.9 651.1 324.6 625.8 285.9 648.1C247.3 670.4 216 731.9 216 785.4Z" fill="url(#paint3_linear)"/>
<path opacity="0.2" d="M807.9 620L609.3 734.7L609.2 911.5L807.8 796.8L807.9 620Z" fill="url(#paint4_linear)"/>
<path opacity="0.15" d="M807.9 620L708.5 783.4L609.2 734.6L807.9 620Z" fill="url(#paint5_linear)"/>
<path fill-rule="evenodd" clip-rule="evenodd" d="M691.4 787.2C691.4 799.7 698.9 805.4 708.3 800C717.6 794.6 725.2 780.1 725.2 767.7C725.2 755.2 717.7 749.5 708.3 754.9C699 760.3 691.4 774.8 691.4 787.2Z" fill="#F2994A"/>
<path opacity="0.3" d="M604.4 533.7L902 362.1L901.9 513.4L630.5 669.9L604.2 708.2L604.4 533.7Z" fill="url(#paint6_linear)"/>
<path fill-rule="evenodd" clip-rule="evenodd" d="M933.7 420.7V379.6L821.4 444.4V485.5L933.7 420.7Z" fill="#F2994A"/>
<path opacity="0.15" d="M680.9 526.4L746.1 488.8V502.1L680.9 539.7V526.4Z" fill="white"/>
<path opacity="0.15" d="M680.9 553L806.6 480.5V493.8L680.9 566.3V553Z" fill="white"/>
<path opacity="0.15" d="M680.8 579.6L833.1 491.8V505.1L680.8 592.9V579.6Z" fill="white"/>
<path fill-rule="evenodd" clip-rule="evenodd" d="M664.8 549.5C664.8 562 657.2 576.4 647.9 581.8C638.6 587.2 631 581.4 631 569C631 556.5 638.6 542.1 647.9 536.7C657.3 531.3 664.8 537.1 664.8 549.5Z" fill="#F2994A"/>
<path opacity="0.3" d="M577.5 634.9L279.9 806.5L279.8 957.8L551.1 801.3L577.3 809.3L577.5 634.9Z" fill="url(#paint7_linear)"/>
<path fill-rule="evenodd" clip-rule="evenodd" d="M366.4 832V790.9L254.1 855.7V896.8L366.4 832Z" fill="#F2C94C"/>
<path opacity="0.15" d="M500.9 715.8L435.7 753.4V766.7L500.9 729.1V715.8Z" fill="white"/>
<path opacity="0.15" d="M500.9 742.4L383.2 810.3V823.6L500.9 755.7V742.4Z" fill="white"/>
<path opacity="0.15" d="M500.9 769.1L348.6 856.9V870.2L500.9 782.4V769.1Z" fill="white"/>
<path fill-rule="evenodd" clip-rule="evenodd" d="M517 720.4C517 732.9 524.5 738.6 533.9 733.2C543.2 727.8 550.8 713.3 550.8 700.9C550.8 688.4 543.3 682.7 533.9 688.1C524.5 693.5 517 708 517 720.4Z" fill="#F2C94C"/>
<path opacity="0.2" d="M738.7 330.6L781.5 305.9V291.5L738.7 316.2C735.2 318.2 730.1 322.3 725.8 328.6C721.1 335.3 717.8 343.8 717.8 353C717.8 363.2 720.4 369 725.3 370.6C729.9 372.1 735.4 369.5 738.7 367.6L756.3 357.4L756.4 357.3C757.9 356.4 760.3 355.5 762.2 356.1C763.8 356.6 765.5 358.1 765.5 363.8C765.5 369.5 763.7 372.9 762.3 375C760.5 377.6 758.1 379.4 756.6 380.2L756.4 380.3L702.6 411.4V425.8L756.1 394.9C759.8 393 765.1 388.9 769.7 382.5C774.7 375.4 778.1 366.5 778.1 356.6C778.1 346.7 774.7 341.7 769.8 340.3C765.2 339 759.9 340.9 756.2 343.1L738.8 353.2C736.3 354.7 734.4 355.3 733.1 354.9C732.1 354.6 730.3 353.2 730.3 345.9C730.3 341.1 731.8 338 733.3 336C735 333.3 737.3 331.4 738.7 330.6Z" fill="white"/>
<path fill-rule="evenodd" clip-rule="evenodd" d="M773.7 302.8C773.7 315.7 781.3 321.8 790.6 316.5C799.9 311.1 807.5 296.3 807.5 283.3C807.5 270.4 799.9 264.3 790.6 269.6C781.2 275 773.7 289.9 773.7 302.8Z" fill="#F2994A"/>
<path fill-rule="evenodd" clip-rule="evenodd" d="M680.7 430.8C680.7 443.7 688.3 449.8 697.6 444.5C706.9 439.1 714.5 424.3 714.5 411.3C714.5 398.4 706.9 392.3 697.6 397.6C688.2 403 680.7 417.9 680.7 430.8Z" fill="#F2C94C"/>
<path opacity="0.2" d="M595.8 917.8C648.7 849.7 610.4 825.2 595.8 865C581.2 842 542.9 910.8 595.8 917.8Z" fill="url(#paint8_linear)"/>
<defs>
<linearGradient id="paint0_linear" x1="136.332" y1="593.353" x2="477.689" y2="720.885" gradientUnits="userSpaceOnUse">
<stop stop-color="white"/>
<stop offset="1" stop-color="white" stop-opacity="0.01"/>
</linearGradient>
<linearGradient id="paint1_linear" x1="156.244" y1="474.685" x2="497.947" y2="629.388" gradientUnits="userSpaceOnUse">
<stop stop-color="white"/>
<stop offset="1" stop-color="white" stop-opacity="0.01"/>
</linearGradient>
<linearGradient id="paint2_linear" x1="413.244" y1="562.685" x2="754.947" y2="717.388" gradientUnits="userSpaceOnUse">
<stop stop-color="white"/>
<stop offset="1" stop-color="white" stop-opacity="0.01"/>
</linearGradient>
<linearGradient id="paint3_linear" x1="155.244" y1="920.685" x2="496.947" y2="1075.39" gradientUnits="userSpaceOnUse">
<stop stop-color="white"/>
<stop offset="1" stop-color="white" stop-opacity="0.01"/>
</linearGradient>
<linearGradient id="paint4_linear" x1="633.717" y1="656.375" x2="678.104" y2="825.017" gradientUnits="userSpaceOnUse">
<stop stop-color="white"/>
<stop offset="1" stop-color="white" stop-opacity="0.01"/>
</linearGradient>
<linearGradient id="paint5_linear" x1="596.796" y1="624.424" x2="591.04" y2="812.065" gradientUnits="userSpaceOnUse">
<stop stop-color="white"/>
<stop offset="1" stop-color="white" stop-opacity="0.01"/>
</linearGradient>
<linearGradient id="paint6_linear" x1="619.697" y1="557.374" x2="783.605" y2="653.718" gradientUnits="userSpaceOnUse">
<stop stop-color="white"/>
<stop offset="1" stop-color="white" stop-opacity="0.01"/>
</linearGradient>
<linearGradient id="paint7_linear" x1="305.533" y1="623.461" x2="267.24" y2="928.361" gradientUnits="userSpaceOnUse">
<stop stop-color="white"/>
<stop offset="1" stop-color="white" stop-opacity="0.01"/>
</linearGradient>
<linearGradient id="paint8_linear" x1="571.888" y1="893.557" x2="616.81" y2="915.589" gradientUnits="userSpaceOnUse">
<stop stop-color="white"/>
<stop offset="1" stop-color="white" stop-opacity="0.01"/>
</linearGradient>
</defs>
</svg>
