<svg width="1150" height="1150" viewBox="0 0 1150 1150" fill="none" xmlns="http://www.w3.org/2000/svg">
<rect width="1150" height="1150" fill="white"/>
<rect width="1150" height="1150" fill="#003ECB"/>
<path opacity="0.07" d="M868.2 579.2C868.2 716.4 787.9 781.2 688.9 724.1C589.9 667 509.7 509.4 509.7 372.3C509.7 235.1 590 170.3 689 227.4C788 284.5 868.2 442 868.2 579.2Z" fill="url(#paint0_linear)"/>
<path opacity="0.4" d="M607.6 290.7C584 277.1 560.7 270.1 539 270C517.3 269.9 497.5 276.8 480.8 290.3C464.1 303.8 450.9 323.5 441.9 348.4C432.9 373.3 428.2 403 428.2 435.6L607.5 539L607.6 290.7Z" fill="url(#paint1_linear)"/>
<path opacity="0.2" d="M468.2 401.2C468.2 450.3 478.7 504.4 498.4 556.6C518.1 608.8 546.1 656.8 578.8 694.5C611.5 732.2 647.6 757.9 682.4 768.4C717.2 778.9 749.1 773.7 774.2 753.4C799.3 733.1 816.3 698.7 823.3 654.6C830.2 610.4 826.7 558.4 813.1 505.2C799.5 452 776.6 399.9 747.1 355.6C717.6 311.3 683 276.7 647.5 256.3V504.7L468.2 401.2Z" fill="url(#paint2_linear)"/>
<path opacity="0.3" d="M518.7 376L221.2 204.3L221.3 359.4L492.6 516L518.9 554.9L518.7 376Z" fill="url(#paint3_linear)"/>
<path fill-rule="evenodd" clip-rule="evenodd" d="M189.5 264.7V222.6L301.8 287.4V329.5L189.5 264.7Z" fill="#F2994A"/>
<path opacity="0.15" d="M442.2 369.6L377 332V345.6L442.2 383.2V369.6Z" fill="white"/>
<path opacity="0.15" d="M442.3 396.9L316.6 324.4V338L442.3 410.5V396.9Z" fill="white"/>
<path opacity="0.15" d="M442.3 424.1L290 336.3V349.9L442.3 437.8V424.1Z" fill="white"/>
<path fill-rule="evenodd" clip-rule="evenodd" d="M458.3 393.1C458.3 405.9 465.9 420.6 475.2 426C484.5 431.4 492.1 425.4 492.1 412.6C492.1 399.8 484.5 385.1 475.2 379.7C465.8 374.3 458.3 380.3 458.3 393.1Z" fill="#F2994A"/>
<path opacity="0.3" d="M638.4 615.9L936 787.7L936.1 942.8L664.8 786.2L638.6 794.8L638.4 615.9Z" fill="url(#paint4_linear)"/>
<path fill-rule="evenodd" clip-rule="evenodd" d="M849.4 815V772.9L961.7 837.7V879.8L849.4 815Z" fill="#F2994A"/>
<path opacity="0.15" d="M715 697.9L780.2 735.5V749.1L715 711.5V697.9Z" fill="white"/>
<path opacity="0.15" d="M715 725.1L832.7 793V806.6L715 738.8V725.1Z" fill="white"/>
<path opacity="0.15" d="M715 752.4L867.3 840.3V853.9L715 766V752.4Z" fill="white"/>
<path fill-rule="evenodd" clip-rule="evenodd" d="M698.9 702.8C698.9 715.6 691.3 721.6 682 716.2C672.7 710.8 665.1 696.1 665.1 683.3C665.1 670.5 672.7 664.5 682 669.9C691.3 675.3 698.9 690 698.9 702.8Z" fill="#F2994A"/>
<path opacity="0.3" d="M429.1 539.1L596.7 635.8V946.3L429.1 849.6V539.1Z" fill="url(#paint5_linear)"/>
<path opacity="0.15" d="M445.6 723.4L580.2 801.1V814.7L445.6 737V723.4Z" fill="white"/>
<path opacity="0.15" d="M455 755.4L570.7 822.2V835.8L455 769V755.4Z" fill="white"/>
<path fill-rule="evenodd" clip-rule="evenodd" d="M503.9 810.9L387.3 743.6V778.3L503.9 845.6V810.9Z" fill="#F2C94C"/>
<path fill-rule="evenodd" clip-rule="evenodd" d="M532 661.2C532 676.2 523.3 683.3 512.6 677.1C501.9 670.9 493.2 653.6 493.2 638.5C493.2 623.5 501.9 616.4 512.6 622.6C523.3 628.9 532 646.2 532 661.2Z" fill="#F2C94C"/>
<path fill-rule="evenodd" clip-rule="evenodd" d="M512.6 689.2C495.3 679.1 481 688.6 478.5 710.3C478.1 714.1 480.9 719.1 484.4 721.1L540.8 754.1C544.3 756.1 547.1 754.5 546.7 750.2C544.2 725.4 529.9 699.3 512.6 689.2Z" fill="#F2C94C"/>
<path opacity="0.2" d="M335.8 513.7L293 489V474.6L335.8 499.3C339.3 501.3 344.4 505.4 348.7 511.7C353.4 518.4 356.7 526.9 356.7 536.1C356.7 546.3 354.1 552.1 349.2 553.7C344.6 555.2 339.1 552.6 335.8 550.7L318.2 540.5L318.1 540.4C316.6 539.5 314.2 538.6 312.3 539.2C310.7 539.7 309 541.2 309 546.9C309 552.6 310.8 556 312.2 558.1C314 560.7 316.4 562.5 317.9 563.3L318.1 563.4L371.9 594.5V608.9L318.5 578C314.8 576.1 309.5 572 304.9 565.6C299.9 558.5 296.5 549.6 296.5 539.7C296.5 529.8 299.9 524.8 304.8 523.4C309.4 522.1 314.7 524 318.4 526.2L335.8 536.3C338.3 537.8 340.2 538.4 341.5 538C342.5 537.7 344.3 536.3 344.3 529C344.3 524.2 342.8 521.1 341.3 519.1C339.5 516.4 337.2 514.5 335.8 513.7Z" fill="white"/>
<path fill-rule="evenodd" clip-rule="evenodd" d="M300.8 485.9C300.8 498.8 293.2 504.9 283.9 499.6C274.6 494.2 267 479.4 267 466.4C267 453.5 274.6 447.4 283.9 452.7C293.2 458.1 300.8 473 300.8 485.9Z" fill="#F2994A"/>
<path fill-rule="evenodd" clip-rule="evenodd" d="M393.8 613.9C393.8 626.8 386.2 632.9 376.9 627.6C367.6 622.2 360 607.4 360 594.4C360 581.5 367.6 575.4 376.9 580.7C386.2 586.1 393.8 601 393.8 613.9Z" fill="#F2C94C"/>
<defs>
<linearGradient id="paint0_linear" x1="849.391" y1="119.799" x2="498.225" y2="197.095" gradientUnits="userSpaceOnUse">
<stop stop-color="white"/>
<stop offset="1" stop-color="white" stop-opacity="0.01"/>
</linearGradient>
<linearGradient id="paint1_linear" x1="652.25" y1="196.841" x2="440.873" y2="241.111" gradientUnits="userSpaceOnUse">
<stop stop-color="white"/>
<stop offset="1" stop-color="white" stop-opacity="0.01"/>
</linearGradient>
<linearGradient id="paint2_linear" x1="724.82" y1="310.56" x2="546.513" y2="398.972" gradientUnits="userSpaceOnUse">
<stop stop-color="white"/>
<stop offset="1" stop-color="white" stop-opacity="0.01"/>
</linearGradient>
<linearGradient id="paint3_linear" x1="402.81" y1="223.482" x2="234.791" y2="318.332" gradientUnits="userSpaceOnUse">
<stop stop-color="white"/>
<stop offset="1" stop-color="white" stop-opacity="0.01"/>
</linearGradient>
<linearGradient id="paint4_linear" x1="624.224" y1="642.07" x2="670.44" y2="952.948" gradientUnits="userSpaceOnUse">
<stop stop-color="white"/>
<stop offset="1" stop-color="white" stop-opacity="0.01"/>
</linearGradient>
<linearGradient id="paint5_linear" x1="561.588" y1="385.733" x2="354.973" y2="446.374" gradientUnits="userSpaceOnUse">
<stop stop-color="white"/>
<stop offset="1" stop-color="white" stop-opacity="0.01"/>
</linearGradient>
</defs>
</svg>
