<svg width="1150" height="1150" viewBox="0 0 1150 1150" fill="none" xmlns="http://www.w3.org/2000/svg">
<rect width="1150" height="1150" fill="white"/>
<rect width="1150" height="1150" fill="#003ECB"/>
<path opacity="0.07" d="M283 579.2C283 716.4 363.3 781.2 462.3 724.1C561.3 667 641.5 509.4 641.5 372.3C641.5 235.1 561.2 170.3 462.2 227.4C363.2 284.5 283 442 283 579.2Z" fill="url(#paint0_linear)"/>
<path opacity="0.4" d="M543.7 290.7C567.2 277.1 590.5 270.1 612.3 270C634 269.9 653.8 276.8 670.5 290.3C687.2 303.8 700.4 323.5 709.4 348.4C718.4 373.3 723.1 403 723.1 435.6L543.7 539V290.7Z" fill="url(#paint1_linear)"/>
<path opacity="0.2" d="M683 401.2C683 450.3 672.5 504.4 652.8 556.6C633.1 608.8 605.1 656.8 572.4 694.5C539.7 732.2 503.6 757.9 468.8 768.4C434 778.9 402.1 773.7 377 753.4C351.9 733.1 334.9 698.7 327.9 654.6C321 610.4 324.5 558.4 338.1 505.2C351.7 452 374.6 399.9 404.1 355.6C433.6 311.3 468.2 276.7 503.7 256.3V504.7L683 401.2Z" fill="url(#paint2_linear)"/>
<path opacity="0.3" d="M632.5 376L930.1 204.3L930 359.3L658.7 515.9L632.4 554.8L632.5 376Z" fill="url(#paint3_linear)"/>
<path fill-rule="evenodd" clip-rule="evenodd" d="M961.8 264.7V222.6L849.5 287.5V329.6L961.8 264.7Z" fill="#F2994A"/>
<path opacity="0.15" d="M709 369.6L774.2 332V345.6L709 383.2V369.6Z" fill="white"/>
<path opacity="0.15" d="M709 396.9L834.7 324.4V338L709 410.5V396.9Z" fill="white"/>
<path opacity="0.15" d="M709 424.1L861.3 336.2V349.8L709 437.8V424.1Z" fill="white"/>
<path fill-rule="evenodd" clip-rule="evenodd" d="M692.9 393.1C692.9 405.9 685.3 420.6 676 426C666.7 431.4 659.1 425.4 659.1 412.6C659.1 399.8 666.7 385.1 676 379.7C685.4 374.3 692.9 380.3 692.9 393.1Z" fill="#F2994A"/>
<path opacity="0.3" d="M512.8 615.9L215.3 787.7L215.2 942.8L486.5 786.2L512.7 794.8L512.8 615.9Z" fill="url(#paint4_linear)"/>
<path fill-rule="evenodd" clip-rule="evenodd" d="M301.8 815V772.9L189.5 837.8V879.9L301.8 815Z" fill="#F2994A"/>
<path opacity="0.15" d="M436.3 697.9L371.1 735.5V749.1L436.3 711.5V697.9Z" fill="white"/>
<path opacity="0.15" d="M436.3 725.1L318.6 793V806.6L436.3 738.7V725.1Z" fill="white"/>
<path opacity="0.15" d="M436.3 752.4L284 840.3V853.9L436.2 766L436.3 752.4Z" fill="white"/>
<path fill-rule="evenodd" clip-rule="evenodd" d="M452.3 702.8C452.3 715.6 459.9 721.6 469.2 716.2C478.5 710.8 486.1 696.1 486.1 683.3C486.1 670.5 478.5 664.5 469.2 669.9C459.9 675.3 452.3 690 452.3 702.8Z" fill="#F2994A"/>
<path opacity="0.3" d="M722.1 539.1L554.5 635.8V946.3L722.1 849.6V539.1Z" fill="url(#paint5_linear)"/>
<path opacity="0.15" d="M705.6 723.4L571 801.1V814.7L705.6 737V723.4Z" fill="white"/>
<path opacity="0.15" d="M696.2 755.4L580.5 822.2V835.8L696.2 769V755.4Z" fill="white"/>
<path fill-rule="evenodd" clip-rule="evenodd" d="M647.3 810.9L763.9 743.6V778.3L647.3 845.6V810.9Z" fill="#F2C94C"/>
<path fill-rule="evenodd" clip-rule="evenodd" d="M619.2 661.2C619.2 676.2 627.9 683.3 638.6 677.1C649.3 670.8 658 653.6 658 638.5C658 623.5 649.3 616.4 638.6 622.6C627.9 628.9 619.2 646.2 619.2 661.2Z" fill="#F2C94C"/>
<path fill-rule="evenodd" clip-rule="evenodd" d="M638.7 689.2C656 679.1 670.3 688.6 672.8 710.3C673.2 714.1 670.4 719.1 666.9 721.1L610.5 754.1C607 756.1 604.2 754.5 604.6 750.2C607.1 725.4 621.4 699.3 638.7 689.2Z" fill="#F2C94C"/>
<path opacity="0.2" d="M815.4 513.7L858.2 489V474.6L815.4 499.3C811.9 501.3 806.8 505.4 802.5 511.7C797.8 518.4 794.5 526.9 794.5 536.1C794.5 546.3 797.1 552.1 802 553.7C806.6 555.2 812.1 552.6 815.4 550.7L833 540.5L833.1 540.4C834.6 539.5 837 538.6 838.9 539.2C840.5 539.7 842.2 541.2 842.2 546.9C842.2 552.6 840.4 556 839 558.1C837.2 560.7 834.8 562.5 833.3 563.3L833.1 563.4L779.3 594.5V608.9L832.8 578C836.5 576.1 841.8 572 846.4 565.6C851.4 558.5 854.8 549.6 854.8 539.7C854.8 529.8 851.4 524.8 846.5 523.4C841.9 522.1 836.6 524 832.9 526.2L815.5 536.3C813 537.8 811.1 538.4 809.8 538C808.8 537.7 807 536.3 807 529C807 524.2 808.5 521.1 810 519.1C811.8 516.4 814 514.5 815.4 513.7Z" fill="white"/>
<path fill-rule="evenodd" clip-rule="evenodd" d="M850.4 485.9C850.4 498.8 858 504.9 867.3 499.6C876.6 494.2 884.2 479.4 884.2 466.4C884.2 453.5 876.6 447.4 867.3 452.7C858 458.1 850.4 473 850.4 485.9Z" fill="#F2994A"/>
<path fill-rule="evenodd" clip-rule="evenodd" d="M757.4 613.9C757.4 626.8 765 632.9 774.3 627.6C783.6 622.2 791.2 607.4 791.2 594.4C791.2 581.5 783.6 575.4 774.3 580.7C765 586.1 757.4 601 757.4 613.9Z" fill="#F2C94C"/>
<defs>
<linearGradient id="paint0_linear" x1="192.17" y1="618.098" x2="543.335" y2="695.394" gradientUnits="userSpaceOnUse">
<stop stop-color="white"/>
<stop offset="1" stop-color="white" stop-opacity="0.01"/>
</linearGradient>
<linearGradient id="paint1_linear" x1="435.911" y1="498.006" x2="647.286" y2="542.276" gradientUnits="userSpaceOnUse">
<stop stop-color="white"/>
<stop offset="1" stop-color="white" stop-opacity="0.01"/>
</linearGradient>
<linearGradient id="paint2_linear" x1="321.27" y1="522.6" x2="499.577" y2="611.011" gradientUnits="userSpaceOnUse">
<stop stop-color="white"/>
<stop offset="1" stop-color="white" stop-opacity="0.01"/>
</linearGradient>
<linearGradient id="paint3_linear" x1="646.306" y1="404.354" x2="814.309" y2="499.249" gradientUnits="userSpaceOnUse">
<stop stop-color="white"/>
<stop offset="1" stop-color="white" stop-opacity="0.01"/>
</linearGradient>
<linearGradient id="paint4_linear" x1="242.949" y1="599.826" x2="196.703" y2="910.699" gradientUnits="userSpaceOnUse">
<stop stop-color="white"/>
<stop offset="1" stop-color="white" stop-opacity="0.01"/>
</linearGradient>
<linearGradient id="paint5_linear" x1="483.547" y1="747.188" x2="690.162" y2="807.829" gradientUnits="userSpaceOnUse">
<stop stop-color="white"/>
<stop offset="1" stop-color="white" stop-opacity="0.01"/>
</linearGradient>
</defs>
</svg>
