<svg width="1150" height="1150" viewBox="0 0 1150 1150" fill="none" xmlns="http://www.w3.org/2000/svg">
<rect width="1150" height="1150" fill="white"/>
<rect width="1150" height="1150" fill="#003ECB"/>
<path opacity="0.2" d="M462.7 678C462.7 727 491.4 750.2 526.7 729.8C562.1 709.4 590.7 653.1 590.7 604.1C590.7 555.1 562 531.9 526.7 552.3C491.3 572.7 462.6 629 462.7 678Z" fill="url(#paint0_linear)"/>
<path opacity="0.4" fill-rule="evenodd" clip-rule="evenodd" d="M493.3 698C493.4 747 522 770.2 557.4 749.8C592.7 729.4 621.4 673.1 621.3 624.1C621.3 575.1 592.7 551.9 557.3 572.3C522 592.7 493.3 649 493.3 698ZM556.1 616.8L568.4 609.7L568.5 621.8C569.5 621.4 570.5 621 571.4 620.7C574.4 619.6 577.1 619.4 579.3 619.8C581.5 620.2 583.2 621.6 584.4 623.8C585.7 625.9 586.3 629.1 586.3 633.3C586.3 639.7 584.1 646 579.7 652.2C583.3 652 585.8 653.2 587.1 655.7C588.4 658.2 589.1 661.6 589.1 665.7C589.1 674.1 586.9 681.6 582.5 688.4C579.1 693.6 574.4 698.3 568.4 702.5V714.5L556.1 721.6V709.7C555.2 710.2 554.4 710.6 553.5 711C550.4 712.6 547.2 713.9 543.8 714.8V637.6C546.5 635.4 549.4 633.2 552.5 631.1L556.1 628.7V616.8Z" fill="white"/>
<path opacity="0.4" d="M563.2 657.1L556.9 660.7V643.4C557.9 642.7 559 641.9 560.3 641.2C561.6 640.4 562.8 639.7 563.9 639C567.3 637 569.9 636.2 571.7 636.5C573.5 636.8 574.3 638.5 574.3 641.7C574.3 644.8 573.4 647.6 571.7 650.1C570 652.5 567.2 654.8 563.2 657.1Z" fill="white"/>
<path opacity="0.4" d="M556.9 694.8V674.2L565 669.5C568.7 667.4 571.5 666.5 573.5 667C575.5 667.4 576.5 669.4 576.5 673.1C576.5 677.2 575.3 680.8 572.9 683.7C570.5 686.6 567.4 689.2 563.5 691.4C562.2 692.2 561 692.8 559.9 693.4C558.9 693.9 557.9 694.4 556.9 694.8Z" fill="white"/>
<path opacity="0.3" d="M644.4 101C638.1 104.6 633.1 113.4 633.1 120.6V313.8L575.8 346.9V546.2C575.8 553.4 580.9 556.3 587.1 552.7C593.4 549.1 598.4 540.3 598.4 533.1V359.9L655.7 326.8V107.4C655.8 100.3 650.7 97.3001 644.4 101Z" fill="url(#paint1_linear)"/>
<path opacity="0.3" d="M613.2 940.2C606.9 943.8 601.9 940.9 601.9 933.7V788.9L544.5 822V727.2C544.5 720 549.6 711.2 555.8 707.6C562.1 704 567.1 706.9 567.1 714.1V782.8L624.4 749.7V920.6C624.5 927.8 619.4 936.6 613.2 940.2Z" fill="url(#paint2_linear)"/>
<path opacity="0.3" d="M525.1 242.7C518.8 246.3 513.8 255.1 513.8 262.3V591C513.8 598.2 518.9 601.1 525.1 597.5C531.4 593.9 536.4 585.1 536.4 577.9V249.2C536.4 242 531.3 239.1 525.1 242.7Z" fill="url(#paint3_linear)"/>
<path fill-rule="evenodd" clip-rule="evenodd" d="M589.3 923.6C589.3 943.4 600.9 952.8 615.2 944.5C629.5 936.3 641.1 913.5 641.1 893.7C641.1 873.9 629.5 864.5 615.2 872.8C600.9 881.1 589.3 903.8 589.3 923.6Z" fill="#F2C94C"/>
<path opacity="0.3" d="M399 407.6C405.3 404 410.3 406.9 410.3 414.1V511.7L467.6 478.6V598.5C467.6 605.7 462.5 614.5 456.3 618.1C450 621.7 445 618.8 445 611.6V517.8L387.7 550.9V427.2C387.7 420 392.7 411.2 399 407.6Z" fill="url(#paint4_linear)"/>
<path fill-rule="evenodd" clip-rule="evenodd" d="M373.6 442C373.6 461.6 385.1 470.8 399.2 462.7C413.3 454.5 424.8 432.1 424.8 412.5C424.8 392.9 413.3 383.7 399.2 391.8C385.1 399.9 373.6 422.5 373.6 442Z" fill="#F2994A"/>
<path opacity="0.3" d="M289.3 941.2C289.3 934 294.4 925.2 300.6 921.6L389.6 870.2V795.7L478 744.7C484.3 741.1 489.3 744 489.3 751.2C489.3 758.4 484.2 767.2 478 770.8L412.2 808.8V883.3L300.7 947.8C294.4 951.4 289.3 948.4 289.3 941.2Z" fill="url(#paint5_linear)"/>
<path opacity="0.3" d="M504.2 1049.7C510.5 1046.1 515.5 1037.3 515.5 1030.1V793.1C515.5 785.9 510.4 783 504.2 786.6C497.9 790.2 492.9 799 492.9 806.2V1043.2C492.9 1050.3 498 1053.3 504.2 1049.7Z" fill="url(#paint6_linear)"/>
<path fill-rule="evenodd" clip-rule="evenodd" d="M275.6 949.8C275.6 969.6 287.2 979 301.5 970.7C315.8 962.5 327.4 939.7 327.4 919.9C327.4 900.1 315.8 890.7 301.5 899C287.2 907.3 275.6 930 275.6 949.8Z" fill="#F2994A"/>
<path opacity="0.3" d="M829.5 552.1L666.7 646.1V947.7L829.5 853.7V552.1Z" fill="url(#paint7_linear)"/>
<path opacity="0.15" d="M803.7 743.8L706.7 799.8V811.7L803.7 755.7V743.8Z" fill="white"/>
<path opacity="0.15" d="M793.6 773.2L716.7 817.6V829.5L793.6 785.1V773.2Z" fill="white"/>
<path fill-rule="evenodd" clip-rule="evenodd" d="M767.3 826.8L880.6 761.4V795.1L767.3 860.5V826.8Z" fill="#F2C94C"/>
<path opacity="0.2" d="M712.8 676.2L738.1 696.2L755.1 674.4L777.3 693.6L786.1 687.2L753.4 659.7L736.8 681.5L718.5 667.9L712.8 676.2Z" fill="white"/>
<path fill-rule="evenodd" clip-rule="evenodd" d="M693.8 675.7C693.8 687 700.4 692.3 708.5 687.6C716.6 682.9 723.2 670 723.2 658.7C723.2 647.4 716.6 642.1 708.5 646.8C700.4 651.5 693.8 664.4 693.8 675.7Z" fill="#F2C94C"/>
<path fill-rule="evenodd" clip-rule="evenodd" d="M769.6 697.5C769.6 708.8 776.2 714.1 784.3 709.4C792.4 704.7 799 691.8 799 680.5C799 669.2 792.4 663.9 784.3 668.6C776.2 673.3 769.6 686.2 769.6 697.5Z" fill="#F2C94C"/>
<path opacity="0.2" d="M270 749.3L424.8 659.9V740.5L270 829.9V749.3Z" fill="url(#paint8_linear)"/>
<path opacity="0.15" d="M385.2 702.2L338.6 729.1V738.8L385.2 711.9V702.2Z" fill="white"/>
<path opacity="0.15" d="M385.1 721.7L285.9 778.9V788.7L385.1 731.5V721.7Z" fill="white"/>
<path fill-rule="evenodd" clip-rule="evenodd" d="M393.3 705.1C393.3 711.7 397.2 714.9 402.1 712.1C407 709.3 410.9 701.6 410.9 695C410.9 688.4 407 685.2 402.1 688C397.2 690.8 393.3 698.5 393.3 705.1Z" fill="#F2994A"/>
<path opacity="0.2" d="M667.2 502.8L822 413.4V494L667.2 583.4V502.8Z" fill="url(#paint9_linear)"/>
<path opacity="0.15" d="M782.4 455.7L735.8 482.6V492.3L782.4 465.4V455.7Z" fill="white"/>
<path opacity="0.15" d="M782.3 475.2L683.1 532.4V542.2L782.3 485V475.2Z" fill="white"/>
<path fill-rule="evenodd" clip-rule="evenodd" d="M790.5 458.6C790.5 465.2 794.4 468.4 799.3 465.6C804.2 462.8 808.1 455.1 808.1 448.5C808.1 441.9 804.2 438.7 799.3 441.5C794.5 444.3 790.5 451.9 790.5 458.6Z" fill="#F2994A"/>
<defs>
<linearGradient id="paint0_linear" x1="458.985" y1="589.534" x2="519.38" y2="741.898" gradientUnits="userSpaceOnUse">
<stop stop-color="white"/>
<stop offset="1" stop-color="white" stop-opacity="0.01"/>
</linearGradient>
<linearGradient id="paint1_linear" x1="505.851" y1="646.642" x2="684.628" y2="656.2" gradientUnits="userSpaceOnUse">
<stop stop-color="white"/>
<stop offset="1" stop-color="white" stop-opacity="0.01"/>
</linearGradient>
<linearGradient id="paint2_linear" x1="679.956" y1="753.157" x2="545.768" y2="726.439" gradientUnits="userSpaceOnUse">
<stop stop-color="white"/>
<stop offset="1" stop-color="white" stop-opacity="0.01"/>
</linearGradient>
<linearGradient id="paint3_linear" x1="446.162" y1="1423.79" x2="590.184" y2="1424.78" gradientUnits="userSpaceOnUse">
<stop stop-color="white"/>
<stop offset="1" stop-color="white" stop-opacity="0.01"/>
</linearGradient>
<linearGradient id="paint4_linear" x1="294.394" y1="541.213" x2="476.234" y2="585.297" gradientUnits="userSpaceOnUse">
<stop stop-color="white"/>
<stop offset="1" stop-color="white" stop-opacity="0.01"/>
</linearGradient>
<linearGradient id="paint5_linear" x1="252.103" y1="962.746" x2="478.115" y2="962.723" gradientUnits="userSpaceOnUse">
<stop stop-color="white"/>
<stop offset="1" stop-color="white" stop-opacity="0.01"/>
</linearGradient>
<linearGradient id="paint6_linear" x1="563.113" y1="401.603" x2="458.121" y2="400.293" gradientUnits="userSpaceOnUse">
<stop stop-color="white"/>
<stop offset="1" stop-color="white" stop-opacity="0.01"/>
</linearGradient>
<linearGradient id="paint7_linear" x1="597.775" y1="754.21" x2="798.492" y2="813.102" gradientUnits="userSpaceOnUse">
<stop stop-color="white"/>
<stop offset="1" stop-color="white" stop-opacity="0.01"/>
</linearGradient>
<linearGradient id="paint8_linear" x1="302.358" y1="733.854" x2="342.122" y2="790.976" gradientUnits="userSpaceOnUse">
<stop stop-color="white"/>
<stop offset="1" stop-color="white" stop-opacity="0.01"/>
</linearGradient>
<linearGradient id="paint9_linear" x1="699.592" y1="487.326" x2="739.357" y2="544.448" gradientUnits="userSpaceOnUse">
<stop stop-color="white"/>
<stop offset="1" stop-color="white" stop-opacity="0.01"/>
</linearGradient>
</defs>
</svg>
