<svg width="1150" height="1150" viewBox="0 0 1150 1150" fill="none" xmlns="http://www.w3.org/2000/svg">
<rect width="1150" height="1150" fill="white"/>
<rect width="1150" height="1150" fill="#003ECB"/>
<path opacity="0.07" d="M429.6 666.6C768 231.1 523.2 73.6999 429.6 328.9C335.9 181.8 91.2002 621.7 429.6 666.6Z" fill="url(#paint0_linear)"/>
<path opacity="0.4" d="M461.6 706.6C800 271 555.2 113.7 461.6 368.9C367.9 221.8 123.2 661.7 461.6 706.6Z" fill="url(#paint1_linear)"/>
<path opacity="0.2" d="M849.9 515.4C843.9 518.8 839.1 527.2 839.1 534.1V564.6L818.9 576.2C812.9 579.6 808.1 588 808.1 594.9C808.1 601.8 812.9 604.6 818.9 601.2L839.1 589.6V620.1C839.1 627 843.9 629.8 849.9 626.4C855.9 623 860.7 614.6 860.7 607.7V577.2L880.9 565.6C886.9 562.2 891.7 553.8 891.7 546.9C891.7 540 886.9 537.2 880.9 540.6L860.7 552.2V521.7C860.8 514.7 855.9 511.9 849.9 515.4Z" fill="url(#paint2_linear)"/>
<path opacity="0.25" d="M767.6 483.5L580.7 591.3V937.6L767.6 829.7V483.5Z" fill="url(#paint3_linear)"/>
<path opacity="0.15" d="M749.2 689L599.1 775.6V789.2L749.2 702.6V689Z" fill="white"/>
<path opacity="0.15" d="M738.7 721.3L609.6 795.8V809.4L738.7 734.9V721.3Z" fill="white"/>
<path fill-rule="evenodd" clip-rule="evenodd" d="M684.2 786.6L814.2 711.5V750.2L684.2 825.3V786.6Z" fill="#F2C94C"/>
<path fill-rule="evenodd" clip-rule="evenodd" d="M652.8 619.6C652.8 636.4 662.5 644.3 674.5 637.3C686.5 630.3 696.2 611.1 696.2 594.3C696.2 577.5 686.5 569.6 674.5 576.6C662.5 583.6 652.8 602.8 652.8 619.6Z" fill="#F2C94C"/>
<path fill-rule="evenodd" clip-rule="evenodd" d="M674.5 650.8C693.8 639.5 709.7 650.1 712.6 674.4C713.1 678.6 709.9 684.2 706 686.4L643 723.1C639.1 725.4 635.9 723.5 636.4 718.8C639.3 691.2 655.2 662 674.5 650.8Z" fill="#F2C94C"/>
<path opacity="0.25" d="M236.5 788.4L534.2 616.6V771.7L236.5 943.5V788.4Z" fill="url(#paint4_linear)"/>
<path opacity="0.15" d="M437.4 727.5L351.7 777V790.6L437.4 741.1V727.5Z" fill="white"/>
<path opacity="0.15" d="M437.4 753.6L262.6 854.5V868.1L437.5 767.2L437.4 753.6Z" fill="white"/>
<path fill-rule="evenodd" clip-rule="evenodd" d="M203.1 836.8L333.1 761.7V800.4L203.1 875.5V836.8Z" fill="#F2994A"/>
<path fill-rule="evenodd" clip-rule="evenodd" d="M463.7 733.1C463.7 750.3 473.8 758.5 486.2 751.3C498.6 744.1 508.7 724.3 508.7 707.1C508.7 689.9 498.6 681.7 486.2 688.9C473.8 696.1 463.7 715.9 463.7 733.1Z" fill="#F2994A"/>
<path opacity="0.25" d="M649.5 418.4L947.2 246.6V401.7L649.5 573.5V418.4Z" fill="url(#paint5_linear)"/>
<path opacity="0.15" d="M850.4 358.7L704 443.2V456.8L850.3 372.3L850.4 358.7Z" fill="white"/>
<path opacity="0.15" d="M850.4 384.8L675.5 485.7V499.3L850.4 398.4V384.8Z" fill="white"/>
<path fill-rule="evenodd" clip-rule="evenodd" d="M890.8 328C890.8 326.3 892 324.3 893.4 323.5L904.9 316.9C906.3 316.1 907.5 316.7 907.5 318.4V329.8C907.5 332.1 910 333.6 912 332.4L919.1 328.3C920.5 327.5 921.7 328.1 921.7 329.8V346.9C921.7 348.6 920.5 350.6 919.1 351.4L909 357.2C908.1 357.7 907.5 358.7 907.5 359.8V374.7C907.5 376.4 906.3 378.4 904.9 379.2L893.4 385.8C892 386.6 890.8 386 890.8 384.3V372.9C890.8 370.6 888.3 369.1 886.3 370.3L879.2 374.4C877.8 375.2 876.6 374.6 876.6 372.9V355.8C876.6 354.1 877.8 352.1 879.2 351.3L889.3 345.5C890.2 345 890.8 344 890.8 342.9V328Z" fill="#F2994A"/>
<defs>
<linearGradient id="paint0_linear" x1="203.437" y1="511.744" x2="512.673" y2="610.023" gradientUnits="userSpaceOnUse">
<stop stop-color="white"/>
<stop offset="1" stop-color="white" stop-opacity="0.01"/>
</linearGradient>
<linearGradient id="paint1_linear" x1="235.439" y1="551.754" x2="544.677" y2="650.024" gradientUnits="userSpaceOnUse">
<stop stop-color="white"/>
<stop offset="1" stop-color="white" stop-opacity="0.01"/>
</linearGradient>
<linearGradient id="paint2_linear" x1="813.876" y1="590.037" x2="873.099" y2="615.193" gradientUnits="userSpaceOnUse">
<stop stop-color="white"/>
<stop offset="1" stop-color="white" stop-opacity="0.01"/>
</linearGradient>
<linearGradient id="paint3_linear" x1="501.518" y1="715.489" x2="731.94" y2="783.116" gradientUnits="userSpaceOnUse">
<stop stop-color="white"/>
<stop offset="1" stop-color="white" stop-opacity="0.01"/>
</linearGradient>
<linearGradient id="paint4_linear" x1="268.081" y1="648.699" x2="267.55" y2="906.712" gradientUnits="userSpaceOnUse">
<stop stop-color="white"/>
<stop offset="1" stop-color="white" stop-opacity="0.01"/>
</linearGradient>
<linearGradient id="paint5_linear" x1="681.075" y1="278.7" x2="680.544" y2="536.713" gradientUnits="userSpaceOnUse">
<stop stop-color="white"/>
<stop offset="1" stop-color="white" stop-opacity="0.01"/>
</linearGradient>
</defs>
</svg>
