<svg width="1150" height="1150" viewBox="0 0 1150 1150" fill="none" xmlns="http://www.w3.org/2000/svg">
<rect width="1150" height="1150" fill="white"/>
<rect width="1150" height="1150" fill="#003ECB"/>
<path opacity="0.07" d="M858.7 554.2C884.7 531.9 900.7 490.4 900.7 434.4C900.7 319.4 833.3 187.2 750.3 140.2C667.2 93.1 601 148.3 601.8 264.2C602.2 319.3 618 378.4 643.5 429.8C663.2 469.4 676.1 513.6 680.4 554.7C682.1 572.3 692.6 590.5 704.7 597.5L797.5 651C809.7 658.1 820.1 651.7 822 636.2C826.2 600.1 838.9 571.3 858.7 554.2Z" fill="url(#paint0_linear)"/>
<path opacity="0.07" d="M820.2 744.2V719.6C820.2 706.4 812.6 691.5 803.1 685.8L698.9 625.6C689.4 620.1 681.8 626.3 681.8 639.5V664.1C681.8 683.9 692.2 705.9 705.8 716.7L796.4 769C809.8 774.1 820.2 763.8 820.2 744.2Z" fill="url(#paint1_linear)"/>
<path opacity="0.4" d="M808.6 594C834.6 571.7 850.6 530.2 850.6 474.2C850.6 359.2 783.2 227 700.2 180C617 132.9 550.9 188.1 551.7 304C552.1 359.1 567.9 418.2 593.4 469.6C613.1 509.2 626 553.4 630.3 594.5C632 612.1 642.5 630.3 654.6 637.3L747.4 690.8C759.6 697.9 770 691.5 771.9 676C776.2 639.9 788.9 611 808.6 594Z" fill="url(#paint2_linear)"/>
<path opacity="0.4" d="M770.2 784V759.4C770.2 746.2 762.6 731.3 753.1 725.6L648.9 665.4C639.4 659.9 631.8 666.1 631.8 679.3V703.9C631.8 723.7 642.2 745.7 655.8 756.5L746.4 808.8C759.8 813.9 770.2 803.6 770.2 784Z" fill="url(#paint3_linear)"/>
<path opacity="0.3" d="M551.3 792.6L253.7 620.8L253.8 775.9L525.1 932.5L551.4 971.4L551.3 792.6Z" fill="url(#paint4_linear)"/>
<path fill-rule="evenodd" clip-rule="evenodd" d="M222 681.3V639.2L334.4 704V746.1L222 681.3Z" fill="#F2994A"/>
<path opacity="0.15" d="M474.8 786.2L409.6 748.6V762.2L474.8 799.8V786.2Z" fill="white"/>
<path opacity="0.15" d="M474.8 813.5L349.1 741V754.6L474.8 827.1V813.5Z" fill="white"/>
<path opacity="0.15" d="M474.8 840.7L322.5 752.8V766.4L474.8 854.3V840.7Z" fill="white"/>
<path fill-rule="evenodd" clip-rule="evenodd" d="M490.9 809.7C490.9 822.5 498.5 837.2 507.8 842.6C517.1 848 524.7 842 524.7 829.2C524.7 816.4 517.1 801.7 507.8 796.3C498.4 790.9 490.9 796.9 490.9 809.7Z" fill="#F2994A"/>
<path opacity="0.3" d="M574.5 699.3L872 871.1L872.1 1026.2L600.8 869.6L574.6 878.2L574.5 699.3Z" fill="url(#paint5_linear)"/>
<path fill-rule="evenodd" clip-rule="evenodd" d="M785.5 898.4V856.3L897.8 921.1V963.2L785.5 898.4Z" fill="#F2C94C"/>
<path opacity="0.15" d="M651 781.3L716.2 818.9V832.5L651 794.9V781.3Z" fill="white"/>
<path opacity="0.15" d="M651 808.5L768.7 876.4V890L651 822.2V808.5Z" fill="white"/>
<path opacity="0.15" d="M651 835.8L803.3 923.7V937.3L651 849.4V835.8Z" fill="white"/>
<path fill-rule="evenodd" clip-rule="evenodd" d="M634.9 786.2C634.9 799 627.3 805 618 799.6C608.7 794.2 601.1 779.5 601.1 766.7C601.1 753.9 608.7 747.9 618 753.3C627.4 758.7 634.9 773.4 634.9 786.2Z" fill="#F2C94C"/>
<path opacity="0.15" d="M906.5 686.3L914 702.9L850.8 717.6L916.5 809.1L909 817L828.3 704.5L906.5 686.3Z" fill="white"/>
<path fill-rule="evenodd" clip-rule="evenodd" d="M927.4 704.9C927.4 717.8 919.8 723.9 910.5 718.6C901.2 713.2 893.6 698.4 893.6 685.4C893.6 672.5 901.2 666.4 910.5 671.7C919.8 677.1 927.4 692 927.4 704.9Z" fill="#F2994A"/>
<path fill-rule="evenodd" clip-rule="evenodd" d="M927.4 819.5C927.4 832.4 919.8 838.5 910.5 833.2C901.2 827.8 893.6 813 893.6 800C893.6 787.1 901.2 781 910.5 786.3C919.8 791.8 927.4 806.6 927.4 819.5Z" fill="#F2994A"/>
<path fill-rule="evenodd" clip-rule="evenodd" d="M855.3 719.1C855.3 732 847.7 738.1 838.4 732.8C829.1 727.4 821.5 712.6 821.5 699.6C821.5 686.7 829.1 680.6 838.4 685.9C847.7 691.3 855.3 706.2 855.3 719.1Z" fill="#F2C94C"/>
<path opacity="0.3" d="M383.8 376.6L551.4 473.3V783.8L383.8 687.1V376.6Z" fill="url(#paint6_linear)"/>
<path opacity="0.15" d="M400.3 560.9L534.9 638.6V652.2L400.3 574.5V560.9Z" fill="white"/>
<path opacity="0.15" d="M409.7 592.9L525.4 659.7V673.3L409.7 606.5V592.9Z" fill="white"/>
<path fill-rule="evenodd" clip-rule="evenodd" d="M458.6 648.4L342 581.1V615.8L458.6 683.1V648.4Z" fill="#F2C94C"/>
<path fill-rule="evenodd" clip-rule="evenodd" d="M486.7 498.7C486.7 513.7 478 520.8 467.3 514.6C456.6 508.3 447.9 491.1 447.9 476C447.9 461 456.6 453.9 467.3 460.1C478 466.4 486.7 483.7 486.7 498.7Z" fill="#F2C94C"/>
<path fill-rule="evenodd" clip-rule="evenodd" d="M467.2 526.7C449.9 516.6 435.6 526.1 433.1 547.8C432.7 551.6 435.5 556.6 439 558.6L495.4 591.6C498.9 593.6 501.7 592 501.3 587.7C498.9 562.9 484.5 536.8 467.2 526.7Z" fill="#F2C94C"/>
<path opacity="0.2" d="M630 1007.6C569.5 929.8 613.3 901.6 630 947.2C646.7 921 690.5 999.6 630 1007.6Z" fill="url(#paint7_linear)"/>
<defs>
<linearGradient id="paint0_linear" x1="790.055" y1="-1.87335" x2="433.274" y2="101.258" gradientUnits="userSpaceOnUse">
<stop stop-color="white"/>
<stop offset="1" stop-color="white" stop-opacity="0.01"/>
</linearGradient>
<linearGradient id="paint1_linear" x1="895.496" y1="281.407" x2="574.462" y2="541.566" gradientUnits="userSpaceOnUse">
<stop stop-color="white"/>
<stop offset="1" stop-color="white" stop-opacity="0.01"/>
</linearGradient>
<linearGradient id="paint2_linear" x1="740.001" y1="37.8682" x2="383.22" y2="140.999" gradientUnits="userSpaceOnUse">
<stop stop-color="white"/>
<stop offset="1" stop-color="white" stop-opacity="0.01"/>
</linearGradient>
<linearGradient id="paint3_linear" x1="845.495" y1="321.207" x2="524.462" y2="581.366" gradientUnits="userSpaceOnUse">
<stop stop-color="white"/>
<stop offset="1" stop-color="white" stop-opacity="0.01"/>
</linearGradient>
<linearGradient id="paint4_linear" x1="435.315" y1="639.978" x2="267.296" y2="734.828" gradientUnits="userSpaceOnUse">
<stop stop-color="white"/>
<stop offset="1" stop-color="white" stop-opacity="0.01"/>
</linearGradient>
<linearGradient id="paint5_linear" x1="560.273" y1="725.479" x2="606.518" y2="1036.35" gradientUnits="userSpaceOnUse">
<stop stop-color="white"/>
<stop offset="1" stop-color="white" stop-opacity="0.01"/>
</linearGradient>
<linearGradient id="paint6_linear" x1="516.28" y1="223.245" x2="309.665" y2="283.887" gradientUnits="userSpaceOnUse">
<stop stop-color="white"/>
<stop offset="1" stop-color="white" stop-opacity="0.01"/>
</linearGradient>
<linearGradient id="paint7_linear" x1="628.218" y1="920.497" x2="576.843" y2="945.678" gradientUnits="userSpaceOnUse">
<stop stop-color="white"/>
<stop offset="1" stop-color="white" stop-opacity="0.01"/>
</linearGradient>
</defs>
</svg>
