<svg width="1150" height="1150" viewBox="0 0 1150 1150" fill="none" xmlns="http://www.w3.org/2000/svg">
<rect width="1150" height="1150" fill="white"/>
<rect width="1150" height="1150" fill="#003ECB"/>
<path opacity="0.07" d="M291.6 554.2C265.6 531.9 249.6 490.4 249.6 434.4C249.6 319.4 317 187.2 400 140.2C483.1 93.1 549.3 148.3 548.5 264.2C548.1 319.3 532.3 378.4 506.8 429.8C487.1 469.4 474.2 513.6 469.9 554.7C468.2 572.3 457.7 590.5 445.6 597.5L352.8 651C340.6 658.1 330.2 651.7 328.3 636.2C324.1 600.1 311.3 571.3 291.6 554.2Z" fill="url(#paint0_linear)"/>
<path opacity="0.07" d="M330.1 744.2V719.6C330.1 706.4 337.7 691.5 347.2 685.8L451.4 625.6C460.9 620.1 468.5 626.3 468.5 639.5V664.1C468.5 683.9 458.1 705.9 444.5 716.7L353.9 769C340.4 774.1 330.1 763.8 330.1 744.2Z" fill="url(#paint1_linear)"/>
<path opacity="0.4" d="M341.6 594C315.6 571.7 299.6 530.2 299.6 474.2C299.6 359.2 367 227 450 180C533.1 132.9 599.3 188.1 598.5 304C598.1 359.1 582.3 418.2 556.8 469.6C537.1 509.2 524.2 553.4 519.9 594.5C518.2 612.1 507.7 630.3 495.6 637.3L402.8 690.8C390.6 697.9 380.2 691.5 378.3 676C374.1 639.9 361.3 611 341.6 594Z" fill="url(#paint2_linear)"/>
<path opacity="0.4" d="M380.1 784V759.4C380.1 746.2 387.7 731.3 397.2 725.6L501.4 665.4C510.9 659.9 518.5 666.1 518.5 679.3V703.9C518.5 723.7 508.1 745.7 494.5 756.5L403.9 808.8C390.4 813.9 380.1 803.6 380.1 784Z" fill="url(#paint3_linear)"/>
<path opacity="0.3" d="M599 792.6L896.6 620.8L896.5 775.9L625.1 932.5L598.8 971.4L599 792.6Z" fill="url(#paint4_linear)"/>
<path fill-rule="evenodd" clip-rule="evenodd" d="M928.2 681.3V639.2L815.9 704V746.1L928.2 681.3Z" fill="#F2994A"/>
<path opacity="0.15" d="M675.5 786.2L740.7 748.6V762.2L675.5 799.8V786.2Z" fill="white"/>
<path opacity="0.15" d="M675.4 813.5L801.1 741V754.6L675.4 827.1V813.5Z" fill="white"/>
<path opacity="0.15" d="M675.4 840.7L827.7 752.8V766.4L675.4 854.3V840.7Z" fill="white"/>
<path fill-rule="evenodd" clip-rule="evenodd" d="M659.4 809.7C659.4 822.5 651.8 837.2 642.5 842.6C633.2 848 625.6 842 625.6 829.2C625.6 816.4 633.2 801.7 642.5 796.3C651.8 790.9 659.4 796.9 659.4 809.7Z" fill="#F2994A"/>
<path opacity="0.3" d="M575.8 699.3L278.2 871.1L278.1 1026.2L549.4 869.6L575.6 878.2L575.8 699.3Z" fill="url(#paint5_linear)"/>
<path fill-rule="evenodd" clip-rule="evenodd" d="M364.8 898.4V856.3L252.5 921.2V963.3L364.8 898.4Z" fill="#F2C94C"/>
<path opacity="0.15" d="M499.3 781.3L434.1 818.9V832.5L499.3 794.9V781.3Z" fill="white"/>
<path opacity="0.15" d="M499.3 808.5L381.6 876.4V890L499.3 822.1V808.5Z" fill="white"/>
<path opacity="0.15" d="M499.2 835.8L347 923.7V937.3L499.3 849.4L499.2 835.8Z" fill="white"/>
<path fill-rule="evenodd" clip-rule="evenodd" d="M515.3 786.2C515.3 799 522.9 805 532.2 799.6C541.5 794.2 549.1 779.5 549.1 766.7C549.1 753.9 541.5 747.9 532.2 753.3C522.9 758.7 515.3 773.4 515.3 786.2Z" fill="#F2C94C"/>
<path opacity="0.15" d="M243.8 686.3L236.3 702.9L299.5 717.6L233.8 809.1L241.3 817L322 704.6L243.8 686.3Z" fill="white"/>
<path fill-rule="evenodd" clip-rule="evenodd" d="M222.9 704.9C222.9 717.8 230.5 723.9 239.8 718.6C249.1 713.2 256.7 698.4 256.7 685.4C256.7 672.5 249.1 666.4 239.8 671.7C230.4 677.1 222.9 692 222.9 704.9Z" fill="#F2994A"/>
<path fill-rule="evenodd" clip-rule="evenodd" d="M222.9 819.5C222.9 832.4 230.5 838.5 239.8 833.2C249.1 827.8 256.7 813 256.7 800C256.7 787.1 249.1 781 239.8 786.3C230.4 791.8 222.9 806.6 222.9 819.5Z" fill="#F2994A"/>
<path fill-rule="evenodd" clip-rule="evenodd" d="M295 719.1C295 732 302.6 738.1 311.9 732.8C321.2 727.4 328.8 712.6 328.8 699.6C328.8 686.7 321.2 680.6 311.9 685.9C302.6 691.2 295 706.2 295 719.1Z" fill="#F2C94C"/>
<path opacity="0.3" d="M766.4 376.6L598.8 473.3V783.8L766.4 687.1V376.6Z" fill="url(#paint6_linear)"/>
<path opacity="0.15" d="M750 560.9L615.4 638.6V652.2L750 574.6V560.9Z" fill="white"/>
<path opacity="0.15" d="M740.6 592.9L624.9 659.7V673.3L740.6 606.5V592.9Z" fill="white"/>
<path fill-rule="evenodd" clip-rule="evenodd" d="M691.7 648.4L808.3 581.1V615.8L691.7 683.1V648.4Z" fill="#F2C94C"/>
<path fill-rule="evenodd" clip-rule="evenodd" d="M663.6 498.7C663.6 513.7 672.3 520.8 683 514.6C693.7 508.3 702.4 491.1 702.4 476C702.4 461 693.7 453.9 683 460.1C672.3 466.4 663.6 483.7 663.6 498.7Z" fill="#F2C94C"/>
<path fill-rule="evenodd" clip-rule="evenodd" d="M683 526.7C700.3 516.6 714.6 526.1 717.1 547.8C717.5 551.6 714.7 556.6 711.2 558.6L654.8 591.6C651.3 593.6 648.5 592 648.9 587.7C651.4 562.9 665.7 536.8 683 526.7Z" fill="#F2C94C"/>
<path opacity="0.2" d="M520.3 1007.6C580.8 929.8 537 901.6 520.3 947.2C503.5 921 459.8 999.6 520.3 1007.6Z" fill="url(#paint7_linear)"/>
<defs>
<linearGradient id="paint0_linear" x1="203.191" y1="541.299" x2="559.972" y2="644.43" gradientUnits="userSpaceOnUse">
<stop stop-color="white"/>
<stop offset="1" stop-color="white" stop-opacity="0.01"/>
</linearGradient>
<linearGradient id="paint1_linear" x1="-8.1268" y1="605.812" x2="312.906" y2="865.971" gradientUnits="userSpaceOnUse">
<stop stop-color="white"/>
<stop offset="1" stop-color="white" stop-opacity="0.01"/>
</linearGradient>
<linearGradient id="paint2_linear" x1="253.21" y1="581.079" x2="609.991" y2="684.21" gradientUnits="userSpaceOnUse">
<stop stop-color="white"/>
<stop offset="1" stop-color="white" stop-opacity="0.01"/>
</linearGradient>
<linearGradient id="paint3_linear" x1="41.8918" y1="645.593" x2="362.925" y2="905.752" gradientUnits="userSpaceOnUse">
<stop stop-color="white"/>
<stop offset="1" stop-color="white" stop-opacity="0.01"/>
</linearGradient>
<linearGradient id="paint4_linear" x1="612.76" y1="820.923" x2="780.759" y2="915.826" gradientUnits="userSpaceOnUse">
<stop stop-color="white"/>
<stop offset="1" stop-color="white" stop-opacity="0.01"/>
</linearGradient>
<linearGradient id="paint5_linear" x1="305.893" y1="683.232" x2="259.679" y2="994.11" gradientUnits="userSpaceOnUse">
<stop stop-color="white"/>
<stop offset="1" stop-color="white" stop-opacity="0.01"/>
</linearGradient>
<linearGradient id="paint6_linear" x1="527.899" y1="584.689" x2="734.514" y2="645.33" gradientUnits="userSpaceOnUse">
<stop stop-color="white"/>
<stop offset="1" stop-color="white" stop-opacity="0.01"/>
</linearGradient>
<linearGradient id="paint7_linear" x1="492.919" y1="979.901" x2="544.29" y2="1005.1" gradientUnits="userSpaceOnUse">
<stop stop-color="white"/>
<stop offset="1" stop-color="white" stop-opacity="0.01"/>
</linearGradient>
</defs>
</svg>
