<svg width="1150" height="1150" viewBox="0 0 1150 1150" fill="none" xmlns="http://www.w3.org/2000/svg">
<rect width="1150" height="1150" fill="white"/>
<rect width="1150" height="1150" fill="#003ECB"/>
<path opacity="0.07" fill-rule="evenodd" clip-rule="evenodd" d="M323.2 432.6C323.2 569.5 449.2 768.5 449.2 768.5C449.2 768.5 575.2 423.2 575.2 287.5C575.2 190.8 518.8 144.9 449.2 185C379.6 225.1 323.2 335.9 323.2 432.6ZM393.6 391.1C393.6 348.6 418.5 299.9 449.2 282.2C479.9 264.5 504.8 284.6 504.8 327C504.8 369.5 479.9 418.2 449.2 435.9C418.5 453.6 393.6 433.5 393.6 391.1Z" fill="url(#paint0_linear)"/>
<path opacity="0.4" fill-rule="evenodd" clip-rule="evenodd" d="M363.2 462.6C363.2 599.5 489.2 798.5 489.2 798.5C489.2 798.5 615.2 453.2 615.2 317.5C615.2 220.8 558.8 174.9 489.2 215C419.6 255.1 363.2 365.9 363.2 462.6ZM433.6 421.1C433.6 378.6 458.5 329.9 489.2 312.2C519.9 294.5 544.8 314.6 544.8 357C544.8 399.5 519.9 448.2 489.2 465.9C458.5 483.6 433.6 463.5 433.6 421.1Z" fill="url(#paint1_linear)"/>
<path opacity="0.3" d="M745.7 522.8L558.8 630.7V977L745.7 869.1V522.8Z" fill="url(#paint2_linear)"/>
<path opacity="0.15" d="M716 743L604.6 807.3V820.9L716 756.6V743Z" fill="white"/>
<path opacity="0.15" d="M704.5 776.7L616.2 827.6V841.2L704.5 790.2V776.7Z" fill="white"/>
<path fill-rule="evenodd" clip-rule="evenodd" d="M674.3 838.3L804.3 763.2V801.9L674.3 877V838.3Z" fill="#F2C94C"/>
<path opacity="0.15" d="M653.7 636.5L692.6 614V600.9L653.7 623.4C650.5 625.2 645.9 629 642 634.7C637.8 640.8 634.7 648.5 634.7 656.9C634.7 666.1 637.1 671.4 641.5 672.9C645.7 674.3 650.7 671.9 653.7 670.1L669.7 660.9L669.8 660.8C671.2 660 673.4 659.2 675.1 659.7C676.5 660.1 678.1 661.5 678.1 666.7C678.1 671.8 676.5 675 675.2 676.9C673.5 679.2 671.4 680.9 670 681.6L669.8 681.7L620.8 710V723.1L669.4 695C672.7 693.3 677.6 689.6 681.7 683.7C686.3 677.3 689.4 669.2 689.4 660.1C689.4 651.1 686.3 646.5 681.8 645.2C677.6 644 672.8 645.7 669.5 647.8L653.7 656.9C651.4 658.2 649.7 658.8 648.5 658.4C647.6 658.1 646 656.9 646 650.2C646 645.9 647.4 643.1 648.7 641.2C650.3 639 652.4 637.3 653.7 636.5Z" fill="white"/>
<path fill-rule="evenodd" clip-rule="evenodd" d="M678.7 617.7C678.7 630.6 686.3 636.7 695.6 631.4C704.9 626 712.5 611.2 712.5 598.2C712.5 585.3 704.9 579.2 695.6 584.5C686.3 589.9 678.7 604.8 678.7 617.7Z" fill="#F2C94C"/>
<path fill-rule="evenodd" clip-rule="evenodd" d="M595.7 731.7C595.7 744.6 603.3 750.7 612.6 745.4C621.9 740 629.5 725.2 629.5 712.2C629.5 699.3 621.9 693.2 612.6 698.5C603.3 703.9 595.7 718.8 595.7 731.7Z" fill="#F2C94C"/>
<path opacity="0.3" d="M632.2 379.1L929.8 207.3L929.7 362.4L658.4 519L632.1 557.9L632.2 379.1Z" fill="url(#paint3_linear)"/>
<path fill-rule="evenodd" clip-rule="evenodd" d="M961.5 267.8V225.7L849.2 290.5V332.6L961.5 267.8Z" fill="#F2994A"/>
<path opacity="0.15" d="M708.7 372.7L773.9 335.1V348.7L708.7 386.3V372.7Z" fill="white"/>
<path opacity="0.15" d="M708.7 399.9L834.4 327.4V341L708.7 413.5V399.9Z" fill="white"/>
<path opacity="0.15" d="M708.7 427.2L861 339.3V352.9L708.7 440.8V427.2Z" fill="white"/>
<path fill-rule="evenodd" clip-rule="evenodd" d="M692.7 396.1C692.7 408.9 685.1 423.6 675.8 429C666.5 434.4 658.9 428.4 658.9 415.6C658.9 402.8 666.5 388.1 675.8 382.7C685.1 377.4 692.7 383.4 692.7 396.1Z" fill="#F2994A"/>
<path opacity="0.3" d="M512.5 654.1L215 825.8L214.9 980.9L486.2 824.3L512.4 832.9L512.5 654.1Z" fill="url(#paint4_linear)"/>
<path fill-rule="evenodd" clip-rule="evenodd" d="M301.5 853.2V811.1L189.2 875.9V918L301.5 853.2Z" fill="#F2994A"/>
<path opacity="0.15" d="M436 736L370.8 773.6V787.2L436 749.6V736Z" fill="white"/>
<path opacity="0.15" d="M436 763.3L318.3 831.2V844.8L436 776.9V763.3Z" fill="white"/>
<path opacity="0.15" d="M436 790.5L283.7 878.4V892L436 804.2V790.5Z" fill="white"/>
<path fill-rule="evenodd" clip-rule="evenodd" d="M452 740.9C452 753.7 459.6 759.7 468.9 754.3C478.2 748.9 485.8 734.2 485.8 721.4C485.8 708.6 478.2 702.6 468.9 708C459.6 713.4 452.1 728.2 452 740.9Z" fill="#F2994A"/>
<path opacity="0.2" d="M838.9 631C906.5 544.2 857.6 513 838.9 563.8C820.2 534.7 771.3 622.3 838.9 631Z" fill="url(#paint5_linear)"/>
<path opacity="0.2" d="M226.5 693.1L262 721.8C265.8 724.9 272.7 721.7 277.2 714.6C281.8 707.5 282.4 699.3 278.6 696.2L263.7 684.2L320.5 651.4C326.5 647.9 331.3 639.6 331.3 632.7C331.3 625.8 326.5 623 320.5 626.4L263.7 659.2L278.6 629.9C282.4 622.4 281.8 614.9 277.2 613.1C272.6 611.3 265.8 616 262 623.5L226.5 693.1Z" fill="url(#paint6_linear)"/>
<defs>
<linearGradient id="paint0_linear" x1="196.787" y1="781.732" x2="554.93" y2="807.549" gradientUnits="userSpaceOnUse">
<stop stop-color="white"/>
<stop offset="1" stop-color="white" stop-opacity="0.01"/>
</linearGradient>
<linearGradient id="paint1_linear" x1="236.791" y1="811.732" x2="594.933" y2="837.549" gradientUnits="userSpaceOnUse">
<stop stop-color="white"/>
<stop offset="1" stop-color="white" stop-opacity="0.01"/>
</linearGradient>
<linearGradient id="paint2_linear" x1="479.651" y1="754.913" x2="710.056" y2="822.504" gradientUnits="userSpaceOnUse">
<stop stop-color="white"/>
<stop offset="1" stop-color="white" stop-opacity="0.01"/>
</linearGradient>
<linearGradient id="paint3_linear" x1="646.042" y1="407.448" x2="814.062" y2="502.299" gradientUnits="userSpaceOnUse">
<stop stop-color="white"/>
<stop offset="1" stop-color="white" stop-opacity="0.01"/>
</linearGradient>
<linearGradient id="paint4_linear" x1="242.626" y1="637.981" x2="196.406" y2="948.86" gradientUnits="userSpaceOnUse">
<stop stop-color="white"/>
<stop offset="1" stop-color="white" stop-opacity="0.01"/>
</linearGradient>
<linearGradient id="paint5_linear" x1="808.342" y1="600.078" x2="865.529" y2="628.38" gradientUnits="userSpaceOnUse">
<stop stop-color="white"/>
<stop offset="1" stop-color="white" stop-opacity="0.01"/>
</linearGradient>
<linearGradient id="paint6_linear" x1="272.477" y1="737.293" x2="371.021" y2="677.527" gradientUnits="userSpaceOnUse">
<stop stop-color="white"/>
<stop offset="1" stop-color="white" stop-opacity="0.01"/>
</linearGradient>
</defs>
</svg>
