<svg width="1150" height="1150" viewBox="0 0 1150 1150" fill="none" xmlns="http://www.w3.org/2000/svg">
<rect width="1150" height="1150" fill="white"/>
<rect width="1150" height="1150" fill="#003ECB"/>
<path opacity="0.07" fill-rule="evenodd" clip-rule="evenodd" d="M827.5 432.6C827.5 569.5 701.5 768.5 701.5 768.5C701.5 768.5 575.5 423.2 575.5 287.5C575.5 190.8 631.9 144.9 701.5 185C771.1 225.1 827.5 335.9 827.5 432.6ZM757.1 391.1C757.1 348.6 732.2 299.9 701.5 282.2C670.8 264.5 645.9 284.6 645.9 327C645.9 369.5 670.8 418.2 701.5 435.9C732.2 453.6 757.1 433.6 757.1 391.1Z" fill="url(#paint0_linear)"/>
<path opacity="0.4" fill-rule="evenodd" clip-rule="evenodd" d="M787.5 462.6C787.5 599.5 661.5 798.5 661.5 798.5C661.5 798.5 535.5 453.2 535.5 317.5C535.5 220.8 591.9 174.9 661.5 215C731.1 255.1 787.5 365.9 787.5 462.6ZM717.1 421.1C717.1 378.6 692.2 329.9 661.5 312.2C630.8 294.5 605.9 314.5 605.9 357C605.9 399.5 630.8 448.2 661.5 465.9C692.2 483.6 717.1 463.6 717.1 421.1Z" fill="url(#paint1_linear)"/>
<path opacity="0.3" d="M405 522.8L591.9 630.7V977L405 869.1V522.8Z" fill="url(#paint2_linear)"/>
<path opacity="0.15" d="M434.7 743L546 807.3V820.9L434.6 756.6L434.7 743Z" fill="white"/>
<path opacity="0.15" d="M446.2 776.7L534.5 827.6V841.2L446.2 790.3V776.7Z" fill="white"/>
<path fill-rule="evenodd" clip-rule="evenodd" d="M476.4 838.3L346.4 763.2V801.9L476.4 877V838.3Z" fill="#F2C94C"/>
<path opacity="0.15" d="M497 636.5L458.1 614V600.9L497 623.4C500.2 625.2 504.8 629 508.7 634.7C512.9 640.8 516 648.5 516 656.9C516 666.1 513.6 671.4 509.2 672.9C505 674.3 500 671.9 497 670.1L481 660.9L480.9 660.8C479.5 660 477.3 659.2 475.6 659.7C474.2 660.1 472.6 661.5 472.6 666.7C472.6 671.8 474.2 675 475.5 676.9C477.2 679.2 479.3 680.9 480.7 681.6L480.9 681.7L529.9 710V723.1L481.3 695C478 693.3 473.1 689.6 469 683.7C464.4 677.3 461.3 669.2 461.3 660.1C461.3 651.1 464.4 646.5 468.9 645.2C473.1 644 477.9 645.7 481.2 647.8L497 657C499.3 658.3 501 658.9 502.2 658.5C503.1 658.2 504.7 657 504.7 650.3C504.7 646 503.3 643.2 502 641.3C500.4 639 498.3 637.3 497 636.5Z" fill="white"/>
<path fill-rule="evenodd" clip-rule="evenodd" d="M471.9 617.7C471.9 630.6 464.3 636.7 455 631.4C445.7 626 438.1 611.2 438.1 598.2C438.1 585.3 445.7 579.2 455 584.5C464.4 589.9 471.9 604.8 471.9 617.7Z" fill="#F2C94C"/>
<path fill-rule="evenodd" clip-rule="evenodd" d="M554.9 731.7C554.9 744.6 547.3 750.7 538 745.4C528.7 740 521.1 725.2 521.1 712.2C521.1 699.3 528.7 693.2 538 698.5C547.4 703.9 554.9 718.8 554.9 731.7Z" fill="#F2C94C"/>
<path opacity="0.3" d="M518.4 379.1L220.9 207.3L221 362.4L492.3 519L518.6 557.9L518.4 379.1Z" fill="url(#paint3_linear)"/>
<path fill-rule="evenodd" clip-rule="evenodd" d="M189.2 267.8V225.7L301.5 290.5V332.6L189.2 267.8Z" fill="#F2994A"/>
<path opacity="0.15" d="M442 372.7L376.8 335V348.6L442 386.2V372.7Z" fill="white"/>
<path opacity="0.15" d="M442 399.9L316.3 327.4V341L442 413.6V399.9Z" fill="white"/>
<path opacity="0.15" d="M442 427.2L289.7 339.3V352.9L442 440.9V427.2Z" fill="white"/>
<path fill-rule="evenodd" clip-rule="evenodd" d="M458 396.1C458 408.9 465.6 423.6 474.9 429C484.2 434.4 491.8 428.4 491.8 415.6C491.8 402.8 484.2 388.1 474.9 382.7C465.6 377.4 458 383.4 458 396.1Z" fill="#F2994A"/>
<path opacity="0.3" d="M638.1 654.1L935.7 825.9L935.8 981L664.5 824.3L638.3 832.9L638.1 654.1Z" fill="url(#paint4_linear)"/>
<path fill-rule="evenodd" clip-rule="evenodd" d="M849.1 853.2V811.1L961.4 875.9V918L849.1 853.2Z" fill="#F2994A"/>
<path opacity="0.15" d="M714.7 736L779.9 773.6V787.2L714.7 749.6V736Z" fill="white"/>
<path opacity="0.15" d="M714.7 763.3L832.4 831.2V844.8L714.7 776.9V763.3Z" fill="white"/>
<path opacity="0.15" d="M714.7 790.5L867 878.4V892L714.7 804.1V790.5Z" fill="white"/>
<path fill-rule="evenodd" clip-rule="evenodd" d="M698.6 740.9C698.6 753.7 691 759.7 681.7 754.3C672.4 748.9 664.8 734.2 664.8 721.4C664.8 708.6 672.4 702.6 681.7 708C691.1 713.4 698.6 728.2 698.6 740.9Z" fill="#F2994A"/>
<path opacity="0.2" d="M311.8 631C244.2 544.2 293.1 513 311.8 563.8C330.5 534.7 379.4 622.3 311.8 631Z" fill="url(#paint5_linear)"/>
<path opacity="0.2" d="M924.2 693.1L888.7 721.8C884.9 724.9 878 721.7 873.5 714.6C868.9 707.5 868.3 699.3 872.1 696.2L887 684.2L830.2 651.4C824.2 647.9 819.4 639.6 819.4 632.7C819.4 625.8 824.2 623 830.2 626.4L887 659.2L872 629.9C868.2 622.4 868.8 614.9 873.4 613.1C878 611.3 884.8 616 888.6 623.5L924.2 693.1Z" fill="url(#paint6_linear)"/>
<defs>
<linearGradient id="paint0_linear" x1="894.076" y1="-48.2405" x2="535.935" y2="-22.4234" gradientUnits="userSpaceOnUse">
<stop stop-color="white"/>
<stop offset="1" stop-color="white" stop-opacity="0.01"/>
</linearGradient>
<linearGradient id="paint1_linear" x1="854.073" y1="-18.2392" x2="495.932" y2="7.57789" gradientUnits="userSpaceOnUse">
<stop stop-color="white"/>
<stop offset="1" stop-color="white" stop-opacity="0.01"/>
</linearGradient>
<linearGradient id="paint2_linear" x1="552.771" y1="351.735" x2="322.366" y2="419.326" gradientUnits="userSpaceOnUse">
<stop stop-color="white"/>
<stop offset="1" stop-color="white" stop-opacity="0.01"/>
</linearGradient>
<linearGradient id="paint3_linear" x1="402.489" y1="226.499" x2="234.469" y2="321.349" gradientUnits="userSpaceOnUse">
<stop stop-color="white"/>
<stop offset="1" stop-color="white" stop-opacity="0.01"/>
</linearGradient>
<linearGradient id="paint4_linear" x1="623.924" y1="680.223" x2="670.141" y2="991.102" gradientUnits="userSpaceOnUse">
<stop stop-color="white"/>
<stop offset="1" stop-color="white" stop-opacity="0.01"/>
</linearGradient>
<linearGradient id="paint5_linear" x1="309.695" y1="534.138" x2="252.509" y2="562.439" gradientUnits="userSpaceOnUse">
<stop stop-color="white"/>
<stop offset="1" stop-color="white" stop-opacity="0.01"/>
</linearGradient>
<linearGradient id="paint6_linear" x1="939.314" y1="636.531" x2="840.769" y2="576.764" gradientUnits="userSpaceOnUse">
<stop stop-color="white"/>
<stop offset="1" stop-color="white" stop-opacity="0.01"/>
</linearGradient>
</defs>
</svg>
