<svg width="1150" height="1150" viewBox="0 0 1150 1150" fill="none" xmlns="http://www.w3.org/2000/svg">
<rect width="1150" height="1150" fill="white"/>
<rect width="1150" height="1150" fill="#003ECB"/>
<path opacity="0.07" d="M211 578.5C223.7 571.1 232.9 570.9 238.6 577.9C244.3 584.8 247.1 596.5 247.1 613V701.9C247.1 718.8 248.7 732.8 251.8 743.9C254.9 755.4 260.2 763.6 267.5 768.4C274.6 773.3 284.2 774.6 296.4 772.3C308.3 770.1 323.2 763.9 341 753.6L349.5 748.7V678.7L338.9 684.8C326.2 692.2 317.7 693.1 313.4 687.7C308.9 682.5 306.6 671.6 306.6 655.1V576.8C306.6 556.4 304.6 540.3 300.6 528.4C296.6 516.6 288.7 509 276.8 505.6C288.7 488.5 296.6 471.8 300.6 455.4C304.6 439 306.5 420.6 306.5 400.2V321.9C306.5 305.4 308.8 292 313.3 281.5C317.5 271.2 326 262.4 338.8 255L349.4 248.9V178.9L340.9 183.8C323 194.2 308.1 205.1 296.3 216.7C284.1 228.4 274.5 240.9 267.4 254C260 267.3 254.8 281.5 251.7 296.6C248.6 311.3 247 327.1 247 344V432.9C247 449.4 244.2 464.4 238.5 477.8C232.8 491.3 223.6 501.7 210.9 509L211 578.5Z" fill="url(#paint0_linear)"/>
<path opacity="0.07" d="M533.5 321C520.8 328.4 511.6 328.6 505.9 321.6C500.2 314.7 497.4 303 497.4 286.5V197.6C497.4 180.7 495.8 166.7 492.7 155.6C489.6 144.1 484.5 135.8 477.4 130.9C470 126.1 460.4 124.8 448.5 127C436.3 129.3 421.3 135.6 403.5 145.9L395 150.8V220.8L405.6 214.7C418.3 207.3 427 206.3 431.5 211.5C435.7 216.9 437.9 227.8 437.9 244.3V322.6C437.9 343 439.9 359.1 443.9 371C447.9 382.8 455.8 390.4 467.7 393.8C455.8 410.9 447.9 427.6 443.9 444C439.9 460.4 438 478.8 438 499.2V577.5C438 594 435.9 607.4 431.6 617.7C427.1 628.2 418.4 637.1 405.7 644.4L395.1 650.5V720.5L403.6 715.6C421.4 705.3 436.4 694.3 448.6 682.6C460.5 671 470.1 658.6 477.5 645.3C484.6 632.2 489.7 618.1 492.8 602.9C495.9 588.2 497.5 572.3 497.5 555.5V466.6C497.5 450.1 500.3 435.1 506 421.7C511.7 408.2 520.9 397.8 533.6 390.5L533.5 321Z" fill="url(#paint1_linear)"/>
<path opacity="0.4" d="M251 608.5C263.7 601.1 272.9 600.9 278.6 607.9C284.3 614.8 287.1 626.5 287.1 643V731.9C287.1 748.8 288.7 762.8 291.8 773.9C294.9 785.4 300.2 793.6 307.5 798.4C314.6 803.3 324.2 804.6 336.4 802.3C348.3 800.1 363.2 793.9 381 783.6L389.5 778.7V708.7L378.9 714.8C366.2 722.2 357.7 723.1 353.4 717.7C348.9 712.5 346.6 701.6 346.6 685.1V606.8C346.6 586.4 344.6 570.3 340.6 558.4C336.6 546.6 328.7 539 316.8 535.6C328.7 518.5 336.6 501.8 340.6 485.4C344.6 469 346.5 450.6 346.5 430.2V351.9C346.5 335.4 348.8 322 353.3 311.5C357.5 301.2 366 292.4 378.8 285L389.4 278.9V208.9L380.9 213.8C363.1 224.1 348.2 235 336.3 246.6C324.1 258.3 314.5 270.8 307.4 283.9C300 297.2 294.8 311.4 291.7 326.5C288.6 341.3 287 357.1 287 374V462.9C287 479.4 284.2 494.4 278.5 507.8C272.8 521.2 263.7 531.7 250.9 539L251 608.5Z" fill="url(#paint2_linear)"/>
<path opacity="0.4" d="M573.5 351C560.8 358.4 551.6 358.6 545.9 351.6C540.2 344.7 537.4 333 537.4 316.5V227.6C537.4 210.7 535.8 196.7 532.7 185.6C529.6 174.1 524.5 165.8 517.4 160.9C510 156.1 500.4 154.8 488.5 157C476.3 159.3 461.3 165.6 443.5 175.9L435 180.8V250.8L445.6 244.7C458.3 237.3 467 236.3 471.5 241.5C475.7 246.9 477.9 257.8 477.9 274.3V352.6C477.9 373 479.9 389.1 483.9 401C487.9 412.8 495.8 420.4 507.7 423.8C495.8 440.9 487.9 457.6 483.9 474C479.9 490.4 478 508.8 478 529.2V607.5C478 624 475.9 637.4 471.6 647.7C467.1 658.2 458.4 667.1 445.7 674.4L435.1 680.5V750.5L443.6 745.6C461.4 735.3 476.4 724.3 488.6 712.6C500.5 701 510.1 688.6 517.5 675.3C524.6 662.2 529.7 648.1 532.8 632.9C535.9 618.2 537.5 602.3 537.5 585.5V496.6C537.5 480.1 540.3 465.1 546 451.7C551.7 438.2 560.9 427.8 573.6 420.5L573.5 351Z" fill="url(#paint3_linear)"/>
<path opacity="0.15" d="M795.5 138.2L624.6 236.9L624.7 646.2L795.6 547.5L795.5 138.2Z" fill="url(#paint4_linear)"/>
<path fill-rule="evenodd" clip-rule="evenodd" d="M827.6 201.1L691.7 279.6V317.2L827.6 238.7V201.1Z" fill="#F2C94C"/>
<path opacity="0.15" d="M774.4 364.7L643.8 440.1V498.7L774.4 423.3V364.7Z" fill="white"/>
<path opacity="0.15" d="M774.5 293.8L643.7 369.3V382.9L774.5 307.4V293.8Z" fill="white"/>
<path opacity="0.15" d="M774.5 320.4L661.4 385.7V399.3L774.5 334V320.4Z" fill="white"/>
<path opacity="0.2" d="M795.5 138.2L624.6 236.9V291.8L795.5 193.1V138.2Z" fill="url(#paint5_linear)"/>
<path opacity="0.2" d="M752.8 190.6C752.8 198.9 757.7 202.8 763.7 199.4C769.7 195.9 774.5 186.4 774.5 178.1C774.5 169.8 769.6 165.9 763.6 169.3C757.6 172.8 752.8 182.3 752.8 190.6Z" fill="white"/>
<path opacity="0.15" d="M585.5 517.7L414.6 616.4L414.7 1025.7L585.6 927L585.5 517.7Z" fill="url(#paint6_linear)"/>
<path fill-rule="evenodd" clip-rule="evenodd" d="M520.4 636.8L384.5 715.3V752.9L520.4 674.4V636.8Z" fill="#F2994A"/>
<path opacity="0.15" d="M564.4 675.7L433.7 751.2V809.7L564.4 734.2V675.7Z" fill="white"/>
<path opacity="0.15" d="M564.5 759.3L433.7 834.8V848.4L564.5 773V759.3Z" fill="white"/>
<path opacity="0.15" d="M564.5 783.9L451.4 849.2V862.8L564.5 797.5V783.9Z" fill="white"/>
<path opacity="0.2" d="M585.5 517.7L414.6 616.4V671.3L585.5 572.6V517.7Z" fill="url(#paint7_linear)"/>
<path opacity="0.2" d="M542.8 570.2C542.8 578.5 547.7 582.4 553.7 579C559.7 575.5 564.5 566 564.5 557.7C564.5 549.4 559.6 545.5 553.6 548.9C547.6 552.3 542.8 561.9 542.8 570.2Z" fill="white"/>
<path opacity="0.3" d="M615 574.4L912.6 402.6L912.5 557.7L641.2 714.4L615 753.3V574.4Z" fill="url(#paint8_linear)"/>
<path opacity="0.15" d="M691.5 568L756.7 530.4V544L691.5 581.6V568Z" fill="white"/>
<path opacity="0.15" d="M691.5 595.3L853 502.1V515.7L691.5 608.9V595.3Z" fill="white"/>
<path opacity="0.15" d="M691.5 622.6L886.3 510.1V523.7L691.5 636.2V622.6Z" fill="white"/>
<path fill-rule="evenodd" clip-rule="evenodd" d="M675.5 591.5C675.5 604.3 667.9 619 658.6 624.4C649.3 629.8 641.7 623.8 641.7 611C641.7 598.2 649.3 583.5 658.6 578.1C667.9 572.7 675.5 578.7 675.5 591.5Z" fill="#F2994A"/>
<path opacity="0.15" d="M883.2 293.8L922.6 271V257.7L883.2 280.5C880 282.4 875.3 286.1 871.3 291.9C867 298.1 863.9 305.9 863.9 314.4C863.9 323.8 866.3 329.1 870.8 330.7C875.1 332.1 880.1 329.7 883.2 327.9L899.4 318.5L899.5 318.4C900.9 317.6 903.1 316.8 904.8 317.3C906.2 317.7 907.9 319.2 907.9 324.4C907.9 329.6 906.3 332.8 904.9 334.7C903.2 337.1 901 338.8 899.6 339.5L899.4 339.6L849.8 368.2V381.5L899.1 353C902.5 351.2 907.4 347.5 911.6 341.6C916.2 335.1 919.4 326.9 919.4 317.7C919.4 308.6 916.2 303.9 911.7 302.6C907.5 301.4 902.6 303.2 899.2 305.2L883.1 314.5C880.8 315.8 879 316.4 877.9 316C877 315.7 875.4 314.4 875.4 307.7C875.4 303.3 876.8 300.5 878.2 298.5C879.8 296.3 881.9 294.5 883.2 293.8Z" fill="white"/>
<path fill-rule="evenodd" clip-rule="evenodd" d="M910.9 272.4C910.9 283.8 917.6 289.1 925.8 284.4C934 279.7 940.7 266.6 940.7 255.2C940.7 243.8 934 238.5 925.8 243.2C917.5 248 910.9 261.1 910.9 272.4Z" fill="#F2C94C"/>
<path fill-rule="evenodd" clip-rule="evenodd" d="M831.9 382.4C831.9 393.8 838.6 399.2 846.8 394.4C855 389.6 861.7 376.6 861.7 365.2C861.7 353.8 855 348.4 846.8 353.2C838.5 358 831.9 371.1 831.9 382.4Z" fill="#F2C94C"/>
<path opacity="0.2" d="M725.6 730.1C719.6 733.6 714.8 741.9 714.8 748.9V779.4L694.6 791C688.6 794.5 683.8 802.8 683.8 809.8C683.8 816.7 688.7 819.5 694.6 816.1L714.8 804.5V835C714.8 841.9 719.7 844.7 725.6 841.3C731.6 837.8 736.4 829.5 736.4 822.5V792L756.6 780.4C762.6 776.9 767.4 768.6 767.4 761.6C767.4 754.7 762.5 751.9 756.6 755.3L736.4 766.9V736.4C736.4 729.4 731.6 726.6 725.6 730.1Z" fill="url(#paint9_linear)"/>
<defs>
<linearGradient id="paint0_linear" x1="98.2294" y1="728.059" x2="382.602" y2="754.847" gradientUnits="userSpaceOnUse">
<stop stop-color="white"/>
<stop offset="1" stop-color="white" stop-opacity="0.01"/>
</linearGradient>
<linearGradient id="paint1_linear" x1="216.82" y1="657.818" x2="501.189" y2="684.603" gradientUnits="userSpaceOnUse">
<stop stop-color="white"/>
<stop offset="1" stop-color="white" stop-opacity="0.01"/>
</linearGradient>
<linearGradient id="paint2_linear" x1="138.23" y1="758.059" x2="422.603" y2="784.847" gradientUnits="userSpaceOnUse">
<stop stop-color="white"/>
<stop offset="1" stop-color="white" stop-opacity="0.01"/>
</linearGradient>
<linearGradient id="paint3_linear" x1="256.82" y1="687.818" x2="541.189" y2="714.603" gradientUnits="userSpaceOnUse">
<stop stop-color="white"/>
<stop offset="1" stop-color="white" stop-opacity="0.01"/>
</linearGradient>
<linearGradient id="paint4_linear" x1="573.861" y1="481.169" x2="784.538" y2="522.526" gradientUnits="userSpaceOnUse">
<stop stop-color="white"/>
<stop offset="1" stop-color="white" stop-opacity="0.01"/>
</linearGradient>
<linearGradient id="paint5_linear" x1="654.789" y1="115.662" x2="612.023" y2="265.774" gradientUnits="userSpaceOnUse">
<stop stop-color="white"/>
<stop offset="1" stop-color="white" stop-opacity="0.01"/>
</linearGradient>
<linearGradient id="paint6_linear" x1="363.869" y1="860.694" x2="574.546" y2="902.051" gradientUnits="userSpaceOnUse">
<stop stop-color="white"/>
<stop offset="1" stop-color="white" stop-opacity="0.01"/>
</linearGradient>
<linearGradient id="paint7_linear" x1="444.797" y1="495.187" x2="402.031" y2="645.299" gradientUnits="userSpaceOnUse">
<stop stop-color="white"/>
<stop offset="1" stop-color="white" stop-opacity="0.01"/>
</linearGradient>
<linearGradient id="paint8_linear" x1="628.893" y1="602.865" x2="796.95" y2="697.619" gradientUnits="userSpaceOnUse">
<stop stop-color="white"/>
<stop offset="1" stop-color="white" stop-opacity="0.01"/>
</linearGradient>
<linearGradient id="paint9_linear" x1="689.585" y1="804.819" x2="748.829" y2="829.88" gradientUnits="userSpaceOnUse">
<stop stop-color="white"/>
<stop offset="1" stop-color="white" stop-opacity="0.01"/>
</linearGradient>
</defs>
</svg>
