<svg width="1150" height="1150" viewBox="0 0 1150 1150" fill="none" xmlns="http://www.w3.org/2000/svg">
<rect width="1150" height="1150" fill="white"/>
<rect width="1150" height="1150" fill="#003ECB"/>
<path opacity="0.07" d="M940.5 578.5C927.8 571.1 918.6 570.9 912.9 577.9C907.2 584.8 904.4 596.5 904.4 613V701.9C904.4 718.8 902.8 732.8 899.7 743.9C896.6 755.4 891.3 763.6 884 768.4C876.9 773.3 867.3 774.6 855.1 772.3C843.2 770.1 828.3 763.9 810.5 753.6L802 748.7V678.7L812.6 684.8C825.3 692.2 833.8 693.1 838.1 687.7C842.6 682.5 844.9 671.6 844.9 655.1V576.8C844.9 556.4 846.9 540.3 850.9 528.4C854.9 516.5 862.8 509 874.7 505.6C862.8 488.5 854.9 471.8 850.9 455.4C846.9 439 845 420.6 845 400.2V321.9C845 305.4 842.7 292 838.2 281.5C834 271.2 825.5 262.4 812.7 255L802.1 248.9V178.9L810.6 183.8C828.4 194.1 843.3 205 855.2 216.6C867.4 228.3 877 240.8 884.1 253.9C891.5 267.2 896.7 281.4 899.8 296.5C902.9 311.2 904.5 327.1 904.5 343.9V432.8C904.5 449.3 907.3 464.3 913 477.7C918.7 491.2 927.9 501.6 940.6 508.9L940.5 578.5Z" fill="url(#paint0_linear)"/>
<path opacity="0.07" d="M618 321C630.7 328.4 639.9 328.6 645.6 321.6C651.3 314.7 654.1 303 654.1 286.5V197.6C654.1 180.7 655.7 166.7 658.8 155.6C661.9 144.1 667 135.8 674.1 130.9C681.5 126.1 691.1 124.8 703 127C715.2 129.3 730.2 135.6 748 145.9L756.5 150.8V220.8L745.9 214.7C733.2 207.3 724.5 206.3 720 211.5C715.8 216.9 713.6 227.8 713.6 244.3V322.6C713.6 343 711.6 359.1 707.6 371C703.6 382.8 695.7 390.4 683.8 393.8C695.7 410.9 703.6 427.6 707.6 444C711.6 460.4 713.5 478.8 713.5 499.2V577.5C713.5 594 715.6 607.4 719.9 617.7C724.4 628.2 733.1 637.1 745.8 644.4L756.4 650.5V720.5L747.9 715.6C730.1 705.3 715.1 694.3 702.9 682.6C691 671 681.4 658.6 674 645.3C666.9 632.2 661.8 618.1 658.7 602.9C655.6 588.2 654 572.3 654 555.5V466.6C654 450.1 651.2 435.1 645.5 421.7C639.8 408.2 630.6 397.8 617.9 390.5L618 321Z" fill="url(#paint1_linear)"/>
<path opacity="0.4" d="M900.5 608.5C887.8 601.1 878.6 600.9 872.9 607.9C867.2 614.8 864.4 626.5 864.4 643V731.9C864.4 748.8 862.8 762.8 859.7 773.9C856.6 785.4 851.3 793.6 844 798.4C836.9 803.3 827.3 804.6 815.1 802.3C803.2 800.1 788.3 793.9 770.5 783.6L762 778.7V708.7L772.6 714.8C785.3 722.2 793.8 723.1 798.1 717.7C802.6 712.5 804.9 701.6 804.9 685.1V606.8C804.9 586.4 806.9 570.3 810.9 558.4C814.9 546.5 822.8 539 834.7 535.6C822.8 518.5 814.9 501.8 810.9 485.4C806.9 469 805 450.6 805 430.2V351.9C805 335.4 802.7 322 798.2 311.5C794 301.2 785.5 292.4 772.7 285L762.1 278.9V208.9L770.6 213.8C788.4 224.1 803.3 235 815.2 246.6C827.4 258.3 837 270.8 844.1 283.9C851.5 297.2 856.7 311.4 859.8 326.5C862.9 341.2 864.5 357.1 864.5 373.9V462.8C864.5 479.3 867.3 494.3 873 507.7C878.7 521.2 887.9 531.6 900.6 538.9L900.5 608.5Z" fill="url(#paint2_linear)"/>
<path opacity="0.4" d="M578 351C590.7 358.4 599.9 358.6 605.6 351.6C611.3 344.7 614.1 333 614.1 316.5V227.6C614.1 210.7 615.7 196.7 618.8 185.6C621.9 174.1 627 165.8 634.1 160.9C641.5 156.1 651.1 154.8 663 157C675.2 159.3 690.2 165.6 708 175.9L716.5 180.8V250.8L705.9 244.7C693.2 237.3 684.5 236.3 680 241.5C675.8 246.9 673.6 257.8 673.6 274.3V352.6C673.6 373 671.6 389.1 667.6 401C663.6 412.8 655.7 420.4 643.8 423.8C655.7 440.9 663.6 457.6 667.6 474C671.6 490.4 673.5 508.8 673.5 529.2V607.5C673.5 624 675.6 637.4 679.9 647.7C684.4 658.2 693.1 667.1 705.8 674.4L716.4 680.5V750.5L707.9 745.6C690.1 735.3 675.1 724.3 662.9 712.6C651 701 641.4 688.6 634 675.3C626.9 662.2 621.8 648.1 618.7 632.9C615.6 618.2 614 602.3 614 585.5V496.6C614 480.1 611.2 465.1 605.5 451.7C599.8 438.2 590.6 427.8 577.9 420.5L578 351Z" fill="url(#paint3_linear)"/>
<path opacity="0.15" d="M356 138.2L526.9 236.9L526.8 646.2L355.9 547.5L356 138.2Z" fill="url(#paint4_linear)"/>
<path fill-rule="evenodd" clip-rule="evenodd" d="M323.9 201.1L459.8 279.6V317.3L323.9 238.8V201.1Z" fill="#F2C94C"/>
<path opacity="0.15" d="M377.1 364.7L507.7 440.1V498.7L377.1 423.3V364.7Z" fill="white"/>
<path opacity="0.15" d="M377 293.8L507.8 369.3V382.9L377 307.5V293.8Z" fill="white"/>
<path opacity="0.15" d="M377 320.4L490.1 385.7V399.3L377 334V320.4Z" fill="white"/>
<path opacity="0.2" d="M356 138.2L526.9 236.9V291.8L356 193.1V138.2Z" fill="url(#paint5_linear)"/>
<path opacity="0.2" d="M398.7 190.6C398.7 198.9 393.8 202.8 387.8 199.4C381.8 195.9 377 186.4 377 178.1C377 169.8 381.9 165.9 387.9 169.3C393.8 172.8 398.7 182.3 398.7 190.6Z" fill="white"/>
<path opacity="0.15" d="M566 517.7L736.9 616.4L736.8 1025.7L565.9 927L566 517.7Z" fill="url(#paint6_linear)"/>
<path fill-rule="evenodd" clip-rule="evenodd" d="M631.1 636.8L767 715.2V752.8L631 674.4L631.1 636.8Z" fill="#F2994A"/>
<path opacity="0.15" d="M587.1 675.7L717.8 751.2V809.7L587.1 734.2V675.7Z" fill="white"/>
<path opacity="0.15" d="M586.9 759.3L717.7 834.8V848.4L586.9 773V759.3Z" fill="white"/>
<path opacity="0.15" d="M586.9 783.9L700 849.2V862.8L586.9 797.5V783.9Z" fill="white"/>
<path opacity="0.2" d="M566 517.7L736.9 616.4V671.3L566 572.6V517.7Z" fill="url(#paint7_linear)"/>
<path opacity="0.2" d="M608.7 570.2C608.7 578.5 603.8 582.4 597.8 579C591.8 575.5 587 566 587 557.7C587 549.4 591.9 545.5 597.9 548.9C603.8 552.3 608.7 561.9 608.7 570.2Z" fill="white"/>
<path opacity="0.3" d="M536.4 574.4L238.9 402.7L239 557.8L510.3 714.4L536.6 753.3L536.4 574.4Z" fill="url(#paint8_linear)"/>
<path opacity="0.15" d="M459.9 568L394.7 530.4V544L459.9 581.6V568V568Z" fill="white"/>
<path opacity="0.15" d="M459.9 595.3L298.5 502.1V515.7L460 608.9L459.9 595.3Z" fill="white"/>
<path opacity="0.15" d="M460 622.6L265.1 510.1V523.7L460 636.2V622.6Z" fill="white"/>
<path fill-rule="evenodd" clip-rule="evenodd" d="M476 591.5C476 604.3 483.6 619 492.9 624.4C502.2 629.8 509.8 623.8 509.8 611C509.8 598.2 502.2 583.5 492.9 578.1C483.5 572.7 476 578.7 476 591.5Z" fill="#F2994A"/>
<path opacity="0.15" d="M268.3 293.8L228.9 271V257.7L268.3 280.5C271.5 282.4 276.2 286.1 280.2 291.9C284.5 298.1 287.6 305.9 287.6 314.4C287.6 323.8 285.2 329.1 280.7 330.7C276.4 332.1 271.4 329.7 268.3 327.9L252.1 318.5L252 318.4C250.6 317.6 248.4 316.8 246.7 317.3C245.3 317.7 243.6 319.2 243.6 324.4C243.6 329.6 245.2 332.8 246.6 334.7C248.3 337.1 250.5 338.8 251.9 339.5L252.1 339.6L301.7 368.2V381.5L252.4 353C249 351.2 244.1 347.5 239.9 341.6C235.3 335.1 232.1 326.9 232.1 317.7C232.1 308.6 235.3 303.9 239.8 302.6C244 301.4 248.9 303.2 252.3 305.2L268.4 314.5C270.7 315.8 272.5 316.4 273.6 316C274.5 315.7 276.1 314.4 276.1 307.7C276.1 303.3 274.7 300.5 273.3 298.5C271.7 296.3 269.6 294.5 268.3 293.8Z" fill="white"/>
<path fill-rule="evenodd" clip-rule="evenodd" d="M240.6 272.4C240.6 283.8 233.9 289.1 225.7 284.4C217.5 279.7 210.8 266.6 210.8 255.2C210.8 243.8 217.5 238.5 225.7 243.2C233.9 248 240.6 261.1 240.6 272.4Z" fill="#F2C94C"/>
<path fill-rule="evenodd" clip-rule="evenodd" d="M319.6 382.4C319.6 393.8 312.9 399.1 304.7 394.4C296.5 389.7 289.8 376.6 289.8 365.2C289.8 353.8 296.5 348.5 304.7 353.2C312.9 358 319.6 371.1 319.6 382.4Z" fill="#F2C94C"/>
<path opacity="0.2" d="M425.9 730.1C431.9 733.6 436.7 741.9 436.7 748.9V779.4L456.9 791C462.9 794.5 467.7 802.8 467.7 809.8C467.7 816.7 462.8 819.5 456.9 816.1L436.7 804.5V835C436.7 841.9 431.8 844.7 425.9 841.3C419.9 837.8 415.1 829.5 415.1 822.5V792L394.9 780.4C388.9 776.9 384.1 768.6 384.1 761.6C384.1 754.7 389 751.9 394.9 755.3L415.1 766.9V736.4C415.1 729.4 419.9 726.6 425.9 730.1Z" fill="url(#paint9_linear)"/>
<defs>
<linearGradient id="paint0_linear" x1="953.552" y1="-329.941" x2="669.123" y2="-303.148" gradientUnits="userSpaceOnUse">
<stop stop-color="white"/>
<stop offset="1" stop-color="white" stop-opacity="0.01"/>
</linearGradient>
<linearGradient id="paint1_linear" x1="834.976" y1="-400.151" x2="550.601" y2="-373.366" gradientUnits="userSpaceOnUse">
<stop stop-color="white"/>
<stop offset="1" stop-color="white" stop-opacity="0.01"/>
</linearGradient>
<linearGradient id="paint2_linear" x1="913.552" y1="-299.941" x2="629.123" y2="-273.148" gradientUnits="userSpaceOnUse">
<stop stop-color="white"/>
<stop offset="1" stop-color="white" stop-opacity="0.01"/>
</linearGradient>
<linearGradient id="paint3_linear" x1="794.976" y1="-370.151" x2="510.601" y2="-343.366" gradientUnits="userSpaceOnUse">
<stop stop-color="white"/>
<stop offset="1" stop-color="white" stop-opacity="0.01"/>
</linearGradient>
<linearGradient id="paint4_linear" x1="482.421" y1="-3.86587" x2="271.743" y2="37.492" gradientUnits="userSpaceOnUse">
<stop stop-color="white"/>
<stop offset="1" stop-color="white" stop-opacity="0.01"/>
</linearGradient>
<linearGradient id="paint5_linear" x1="332.612" y1="162.403" x2="375.378" y2="312.515" gradientUnits="userSpaceOnUse">
<stop stop-color="white"/>
<stop offset="1" stop-color="white" stop-opacity="0.01"/>
</linearGradient>
<linearGradient id="paint6_linear" x1="692.421" y1="375.634" x2="481.743" y2="416.992" gradientUnits="userSpaceOnUse">
<stop stop-color="white"/>
<stop offset="1" stop-color="white" stop-opacity="0.01"/>
</linearGradient>
<linearGradient id="paint7_linear" x1="542.619" y1="541.923" x2="585.386" y2="692.034" gradientUnits="userSpaceOnUse">
<stop stop-color="white"/>
<stop offset="1" stop-color="white" stop-opacity="0.01"/>
</linearGradient>
<linearGradient id="paint8_linear" x1="420.49" y1="421.898" x2="252.47" y2="516.749" gradientUnits="userSpaceOnUse">
<stop stop-color="white"/>
<stop offset="1" stop-color="white" stop-opacity="0.01"/>
</linearGradient>
<linearGradient id="paint9_linear" x1="431.7" y1="733.391" x2="372.457" y2="758.451" gradientUnits="userSpaceOnUse">
<stop stop-color="white"/>
<stop offset="1" stop-color="white" stop-opacity="0.01"/>
</linearGradient>
</defs>
</svg>
