<svg width="1150" height="1150" viewBox="0 0 1150 1150" fill="none" xmlns="http://www.w3.org/2000/svg">
<rect width="1150" height="1150" fill="white"/>
<rect width="1150" height="1150" fill="#003ECB"/>
<path opacity="0.2" d="M452.9 487.7L285.9 391.3V478.3L452.9 574.7V487.7Z" fill="url(#paint0_linear)"/>
<path fill-rule="evenodd" clip-rule="evenodd" d="M319.8 440.1C319.8 447.3 315.6 450.6 310.3 447.6C305.1 444.6 300.8 436.3 300.8 429.1C300.8 421.9 305 418.6 310.3 421.6C315.6 424.6 319.8 432.9 319.8 440.1Z" fill="#F2C94C"/>
<path opacity="0.15" d="M328.6 434.3L389.5 469.4V483L328.6 448V434.3Z" fill="white"/>
<path opacity="0.15" d="M328.7 463.5L435.7 525.2V538.8L328.7 477.1V463.5Z" fill="white"/>
<path opacity="0.07" d="M584.1 206.8L771.3 314.9V718.1L584.1 610.1V206.8V206.8Z" fill="url(#paint1_linear)"/>
<path opacity="0.3" d="M540.8 243.2L728 351.3V754.5L540.8 646.5V243.2Z" fill="url(#paint2_linear)"/>
<path opacity="0.15" d="M558.9 467.9L709.3 554.7V568.3L558.9 481.5V467.9Z" fill="white"/>
<path opacity="0.15" d="M569.4 501L698.7 575.7V589.3L569.4 514.6V501Z" fill="white"/>
<path fill-rule="evenodd" clip-rule="evenodd" d="M491.9 554V509L602.4 572.8V617.8L491.9 554Z" fill="#F2994A"/>
<path opacity="0.2" d="M877.4 544.4C868.8 530.7 856.9 528.9 856.4 528.8C855.2 528.6 854.5 529.7 854.5 531.3V567.5C854.5 579.8 850.3 587.7 842 591.1C841.2 591.4 840.7 592.3 840.7 593.5C840.7 610.9 841 685.6 841.1 708.9C841.1 712.8 843.8 717.4 847.1 719.3C864.9 729.6 916 759.1 916 759.1C929.6 767 938.3 762.1 939.8 745.9L939.9 674.2C939.9 663.3 938 652.1 932 642.8C928.6 637.5 924.6 633.4 920.4 631L885.5 610.9V577.3C885.6 564.1 882.8 553.1 877.4 544.4Z" fill="url(#paint3_linear)"/>
<path fill-rule="evenodd" clip-rule="evenodd" d="M794 562.6L833 585.1V712.7L794 690.2V562.6Z" fill="#F2C94C"/>
<path opacity="0.3" d="M508.6 319.8L211 148L211.1 303.1L482.4 459.7L508.7 498.6L508.6 319.8Z" fill="url(#paint4_linear)"/>
<path opacity="0.15" d="M432.1 313.3L366.9 275.7V289.3L432.1 326.9V313.3V313.3Z" fill="white"/>
<path opacity="0.15" d="M432.1 340.6L270.6 247.4V261L432.1 354.2V340.6Z" fill="white"/>
<path opacity="0.15" d="M432.1 367.9L237.3 255.4V269L432.1 381.5V367.9Z" fill="white"/>
<path fill-rule="evenodd" clip-rule="evenodd" d="M448.1 336.8C448.1 349.6 455.7 364.3 465 369.7C474.3 375.1 481.9 369.1 481.9 356.3C481.9 343.5 474.3 328.8 465 323.4C455.7 318 448.1 324 448.1 336.8Z" fill="#F2994A"/>
<path opacity="0.3" d="M636.9 674.3L934.5 846.1L934.6 1001.2L663.2 844.6L637 853.2L636.9 674.3Z" fill="url(#paint5_linear)"/>
<path opacity="0.15" d="M713.4 756.3L778.6 793.9V807.5L713.4 769.9V756.3Z" fill="white"/>
<path opacity="0.15" d="M713.4 783.5L831.1 851.4V865L713.4 797.1V783.5Z" fill="white"/>
<path opacity="0.15" d="M713.4 810.8L865.7 898.7V912.3L713.4 824.4V810.8Z" fill="white"/>
<path fill-rule="evenodd" clip-rule="evenodd" d="M697.4 761.2C697.4 774 689.8 780 680.5 774.6C671.2 769.2 663.6 754.5 663.6 741.7C663.6 728.9 671.2 722.9 680.5 728.3C689.8 733.7 697.3 748.4 697.4 761.2Z" fill="#F2C94C"/>
<path opacity="0.2" d="M533.9 647.7C539.9 651.1 544.7 659.5 544.7 666.4V696.9L564.9 708.5C570.9 711.9 575.7 720.3 575.7 727.2C575.7 734.1 570.9 736.9 564.9 733.5L544.7 721.9V752.4C544.7 759.3 539.9 762.1 533.9 758.7C527.9 755.3 523.1 746.9 523.1 740V709.5L502.9 697.9C496.9 694.5 492.1 686.1 492.1 679.2C492.1 672.3 496.9 669.5 502.9 672.9L523.1 684.5V654C523 647.1 527.9 644.2 533.9 647.7Z" fill="url(#paint6_linear)"/>
<path opacity="0.05" d="M634 453C548.2 341.4 610.3 301 634 366.4C657.8 328.8 719.8 441.5 634 453Z" fill="url(#paint7_linear)"/>
<path opacity="0.3" d="M614 473C528.2 361.4 590.3 321 614 386.4C637.8 348.8 699.8 461.5 614 473Z" fill="white"/>
<defs>
<linearGradient id="paint0_linear" x1="358.521" y1="429.684" x2="315.623" y2="491.307" gradientUnits="userSpaceOnUse">
<stop stop-color="white"/>
<stop offset="1" stop-color="white" stop-opacity="0.01"/>
</linearGradient>
<linearGradient id="paint1_linear" x1="726.524" y1="16.2864" x2="475.31" y2="74.6284" gradientUnits="userSpaceOnUse">
<stop stop-color="white"/>
<stop offset="1" stop-color="white" stop-opacity="0.01"/>
</linearGradient>
<linearGradient id="paint2_linear" x1="683.231" y1="52.6754" x2="432.017" y2="111.017" gradientUnits="userSpaceOnUse">
<stop stop-color="white"/>
<stop offset="1" stop-color="white" stop-opacity="0.01"/>
</linearGradient>
<linearGradient id="paint3_linear" x1="843.214" y1="779.249" x2="971.213" y2="788.05" gradientUnits="userSpaceOnUse">
<stop stop-color="white"/>
<stop offset="1" stop-color="white" stop-opacity="0.01"/>
</linearGradient>
<linearGradient id="paint4_linear" x1="392.612" y1="167.18" x2="224.593" y2="262.031" gradientUnits="userSpaceOnUse">
<stop stop-color="white"/>
<stop offset="1" stop-color="white" stop-opacity="0.01"/>
</linearGradient>
<linearGradient id="paint5_linear" x1="622.674" y1="700.477" x2="668.891" y2="1011.36" gradientUnits="userSpaceOnUse">
<stop stop-color="white"/>
<stop offset="1" stop-color="white" stop-opacity="0.01"/>
</linearGradient>
<linearGradient id="paint6_linear" x1="539.608" y1="651.021" x2="480.385" y2="676.185" gradientUnits="userSpaceOnUse">
<stop stop-color="white"/>
<stop offset="1" stop-color="white" stop-opacity="0.01"/>
</linearGradient>
<linearGradient id="paint7_linear" x1="631.917" y1="327.901" x2="558.373" y2="362.824" gradientUnits="userSpaceOnUse">
<stop stop-color="white"/>
<stop offset="1" stop-color="white" stop-opacity="0.01"/>
</linearGradient>
</defs>
</svg>
