<svg width="1150" height="1150" viewBox="0 0 1150 1150" fill="none" xmlns="http://www.w3.org/2000/svg">
<rect width="1150" height="1150" fill="white"/>
<rect width="1150" height="1150" fill="#003ECB"/>
<path opacity="0.2" d="M698 487.7L865 391.3V478.3L698 574.7V487.7Z" fill="url(#paint0_linear)"/>
<path fill-rule="evenodd" clip-rule="evenodd" d="M831.1 440.1C831.1 447.3 835.3 450.6 840.6 447.6C845.8 444.6 850.1 436.3 850.1 429.1C850.1 421.9 845.9 418.6 840.6 421.6C835.3 424.6 831.1 432.9 831.1 440.1Z" fill="#F2C94C"/>
<path opacity="0.15" d="M822.3 434.3L761.4 469.4V483L822.3 447.9V434.3Z" fill="white"/>
<path opacity="0.15" d="M822.2 463.5L715.2 525.2V538.8L822.2 477.1V463.5Z" fill="white"/>
<path opacity="0.07" d="M566.8 206.8L379.5 314.9V718.1L566.7 610L566.8 206.8Z" fill="url(#paint1_linear)"/>
<path opacity="0.3" d="M610.1 243.2L422.8 351.3V754.5L610 646.4L610.1 243.2Z" fill="url(#paint2_linear)"/>
<path opacity="0.15" d="M592 467.9L441.6 554.7V568.3L592 481.5V467.9Z" fill="white"/>
<path opacity="0.15" d="M581.5 501L452.2 575.7V589.3L581.5 514.6V501Z" fill="white"/>
<path fill-rule="evenodd" clip-rule="evenodd" d="M659 554V509L548.5 572.8V617.8L659 554Z" fill="#F2994A"/>
<path opacity="0.2" d="M273.5 544.4C282.1 530.7 294 528.9 294.5 528.8C295.7 528.6 296.4 529.7 296.4 531.3V567.5C296.4 579.8 300.6 587.7 308.9 591.1C309.7 591.4 310.2 592.3 310.2 593.5C310.2 610.9 309.9 685.6 309.8 708.9C309.8 712.8 307.1 717.4 303.8 719.3C286.1 729.6 235 759.1 235 759.1C221.4 767 212.7 762.1 211.2 745.9L211 674.2C211 663.3 212.9 652.1 218.9 642.8C222.3 637.5 226.3 633.4 230.5 631L265.4 610.9V577.3C265.3 564.1 268.1 553.1 273.5 544.4Z" fill="url(#paint3_linear)"/>
<path fill-rule="evenodd" clip-rule="evenodd" d="M356.9 562.6L317.9 585.1V712.7L356.9 690.2V562.6Z" fill="#F2C94C"/>
<path opacity="0.3" d="M642.3 319.8L939.9 148L939.8 303.1L668.5 459.7L642.2 498.6L642.3 319.8Z" fill="url(#paint4_linear)"/>
<path opacity="0.15" d="M718.8 313.3L784 275.7V289.3L718.8 327V313.3Z" fill="white"/>
<path opacity="0.15" d="M718.8 340.6L880.3 247.4V261L718.8 354.2V340.6Z" fill="white"/>
<path opacity="0.15" d="M718.8 367.9L913.6 255.4V269L718.8 381.5V367.9Z" fill="white"/>
<path fill-rule="evenodd" clip-rule="evenodd" d="M702.8 336.8C702.8 349.6 695.2 364.3 685.9 369.7C676.6 375.1 669 369.1 669 356.3C669 343.5 676.6 328.8 685.9 323.4C695.2 318 702.8 324 702.8 336.8Z" fill="#F2994A"/>
<path opacity="0.3" d="M514 674.3L216.5 846.1L216.4 1001.2L487.7 844.6L513.9 853.2L514 674.3Z" fill="url(#paint5_linear)"/>
<path opacity="0.15" d="M437.5 756.3L372.3 793.9V807.5L437.5 769.9V756.3Z" fill="white"/>
<path opacity="0.15" d="M437.5 783.5L319.8 851.4V865L437.5 797.1V783.5Z" fill="white"/>
<path opacity="0.15" d="M437.5 810.8L285.2 898.7V912.3L437.5 824.4V810.8Z" fill="white"/>
<path fill-rule="evenodd" clip-rule="evenodd" d="M453.5 761.2C453.5 774 461.1 780 470.4 774.6C479.7 769.2 487.3 754.5 487.3 741.7C487.3 728.9 479.7 722.9 470.4 728.3C461.1 733.7 453.5 748.4 453.5 761.2Z" fill="#F2C94C"/>
<path opacity="0.2" d="M617 647.7C611 651.1 606.2 659.5 606.2 666.4V696.9L586 708.5C580 711.9 575.2 720.3 575.2 727.2C575.2 734.1 580 736.9 586 733.5L606.2 721.9V752.4C606.2 759.3 611 762.1 617 758.7C623 755.3 627.8 746.9 627.8 740V709.5L648 697.9C654 694.5 658.8 686.1 658.8 679.2C658.8 672.3 654 669.5 648 672.9L627.8 684.5V654C627.9 647.1 623 644.2 617 647.7Z" fill="url(#paint6_linear)"/>
<path opacity="0.05" d="M516.9 453C602.7 341.4 540.6 301 516.9 366.4C493.1 328.8 431 441.5 516.9 453Z" fill="url(#paint7_linear)"/>
<path opacity="0.3" d="M536.9 473C622.7 361.4 560.6 321 536.9 386.4C513.1 348.8 451 461.5 536.9 473Z" fill="white"/>
<defs>
<linearGradient id="paint0_linear" x1="732.988" y1="471.088" x2="775.881" y2="532.703" gradientUnits="userSpaceOnUse">
<stop stop-color="white"/>
<stop offset="1" stop-color="white" stop-opacity="0.01"/>
</linearGradient>
<linearGradient id="paint1_linear" x1="304.551" y1="531.831" x2="555.816" y2="590.247" gradientUnits="userSpaceOnUse">
<stop stop-color="white"/>
<stop offset="1" stop-color="white" stop-opacity="0.01"/>
</linearGradient>
<linearGradient id="paint2_linear" x1="347.823" y1="568.231" x2="599.087" y2="626.647" gradientUnits="userSpaceOnUse">
<stop stop-color="white"/>
<stop offset="1" stop-color="white" stop-opacity="0.01"/>
</linearGradient>
<linearGradient id="paint3_linear" x1="287.356" y1="483.657" x2="159.357" y2="492.459" gradientUnits="userSpaceOnUse">
<stop stop-color="white"/>
<stop offset="1" stop-color="white" stop-opacity="0.01"/>
</linearGradient>
<linearGradient id="paint4_linear" x1="656.136" y1="348.119" x2="824.156" y2="442.97" gradientUnits="userSpaceOnUse">
<stop stop-color="white"/>
<stop offset="1" stop-color="white" stop-opacity="0.01"/>
</linearGradient>
<linearGradient id="paint5_linear" x1="244.161" y1="658.233" x2="197.914" y2="969.107" gradientUnits="userSpaceOnUse">
<stop stop-color="white"/>
<stop offset="1" stop-color="white" stop-opacity="0.01"/>
</linearGradient>
<linearGradient id="paint6_linear" x1="580.981" y1="722.354" x2="640.203" y2="747.517" gradientUnits="userSpaceOnUse">
<stop stop-color="white"/>
<stop offset="1" stop-color="white" stop-opacity="0.01"/>
</linearGradient>
<linearGradient id="paint7_linear" x1="478.12" y1="413.893" x2="551.658" y2="448.848" gradientUnits="userSpaceOnUse">
<stop stop-color="white"/>
<stop offset="1" stop-color="white" stop-opacity="0.01"/>
</linearGradient>
</defs>
</svg>
