<svg width="1150" height="1150" viewBox="0 0 1150 1150" fill="none" xmlns="http://www.w3.org/2000/svg">
<g clip-path="url(#clip0)">
<rect width="1150" height="1150" fill="white"/>
<rect width="1150" height="1150" fill="#003ECB"/>
<path fill-rule="evenodd" clip-rule="evenodd" d="M605.8 708.6C623 730.1 642.1 753.7 655.5 770.2C670.4 725.4 650.5 662.8 628.3 616C623 645.1 615.6 675.9 605.8 708.6Z" fill="#F2C94C"/>
<path fill-rule="evenodd" clip-rule="evenodd" d="M501 542.8C478.9 564 459.1 603.6 474 665.5C487.4 664.4 506.4 662.9 523.6 661.3C513.8 617.3 506.4 578 501 542.8Z" fill="#F2994A"/>
<path opacity="0.2" d="M548.6 763.3C425 288.7 526.7 248.4 565.1 232.2C603.5 292.8 705.1 450.4 581.4 782.2L548.6 763.3Z" fill="url(#paint0_linear)"/>
<path opacity="0.1" d="M585 736C461.4 261.5 563 221.1 601.5 204.9C639.9 265.5 741.5 423.1 617.8 754.9L585 736Z" fill="url(#paint1_linear)"/>
<path opacity="0.15" d="M581.4 782.2C705.1 450.4 603.5 292.8 565.1 232.2V772.8L581.4 782.2Z" fill="url(#paint2_linear)"/>
<path opacity="0.1" d="M601.9 399.3C601.9 428.2 584.9 441.8 563.9 429.7C542.9 417.6 525.9 384.3 525.9 355.4C525.9 326.5 542.9 312.9 563.9 325C584.9 337.1 601.9 370.4 601.9 399.3Z" fill="white"/>
<path opacity="0.1" d="M594.4 889.6C585.7 875.4 581.5 857.4 577.8 841.6C573.5 823.4 569.9 807.9 560.9 804C550.6 799.5 546 810.9 539.5 826.7V826.7C535.7 836 531.2 847 524.6 857.1C517.5 849.6 510 843.4 502.1 838.9C469 819.8 441.4 836.3 434.9 875.7C430.4 872.3 425.9 869.2 421.3 866.5C368.2 835.9 325.2 870.6 325.2 944.2C325.2 1017.7 368.2 1102.1 421.2 1132.7C472.7 1162.4 514.8 1130.5 517.2 1061.4C526.9 1079.4 539.8 1094.5 554.1 1102.7C557.8 1104.8 561.4 1106.4 564.8 1107.4C585.4 1152.7 616.1 1191.7 650.4 1211.5C712.4 1247.3 762.7 1206.9 762.8 1121.3C762.8 1035.7 712.5 937.2 650.5 901.4C630 889.6 610.9 886 594.4 889.6Z" fill="url(#paint3_linear)"/>
<path opacity="0.3" d="M694.3 562.2L965 718.5L965.1 859.6L718.3 717.1L694.4 724.9L694.3 562.2Z" fill="url(#paint4_linear)"/>
<path fill-rule="evenodd" clip-rule="evenodd" d="M886.3 743.3V705L988.5 764V802.3L886.3 743.3Z" fill="#F2C94C"/>
<path opacity="0.1" d="M763.9 636.7L823.2 670.9V683.3L763.9 649.1V636.7Z" fill="white"/>
<path opacity="0.1" d="M764 661.5L871 723.3V735.7L764 673.9V661.5Z" fill="white"/>
<path opacity="0.15" d="M764 686.3L902.5 766.3V778.7L764 698.7V686.3Z" fill="white"/>
<path fill-rule="evenodd" clip-rule="evenodd" d="M749.3 641.2C749.3 652.8 742.4 658.3 733.9 653.4C725.4 648.5 718.5 635.1 718.5 623.5C718.5 611.9 725.4 606.4 733.9 611.3C742.5 616.2 749.3 629.6 749.3 641.2Z" fill="#F2C94C"/>
<path opacity="0.3" d="M460.8 362.9L190.1 206.7L190.2 347.8L437 490.2L460.9 525.6L460.8 362.9Z" fill="url(#paint5_linear)"/>
<path fill-rule="evenodd" clip-rule="evenodd" d="M161.2 261.7V223.4L263.4 282.4V320.7L161.2 261.7Z" fill="#F2994A"/>
<path opacity="0.15" d="M391.2 357.1L331.9 322.9V335.3L391.2 369.5V357.1Z" fill="white"/>
<path opacity="0.15" d="M391.2 381.9L276.9 315.9V328.3L391.2 394.3V381.9Z" fill="white"/>
<path opacity="0.15" d="M391.2 406.7L252.7 326.7V339.1L391.2 419.1V406.7Z" fill="white"/>
<path fill-rule="evenodd" clip-rule="evenodd" d="M405.8 378.4C405.8 390 412.7 403.4 421.2 408.3C429.7 413.2 436.6 407.7 436.6 396.1C436.6 384.5 429.7 371.1 421.2 366.2C412.7 361.4 405.8 366.8 405.8 378.4Z" fill="#F2994A"/>
<path opacity="0.2" d="M424.8 513.5L263.1 420.2V504.4L424.8 597.7V513.5Z" fill="url(#paint6_linear)"/>
<path opacity="0.15" d="M304.5 464.3L359.9 496.3V506.4L304.5 474.4V464.3Z" fill="white"/>
<path opacity="0.15" d="M304.5 484.6L408.1 544.4V554.6L304.5 494.8V484.6Z" fill="white"/>
<path fill-rule="evenodd" clip-rule="evenodd" d="M296 467.3C296 474.2 291.9 477.5 286.8 474.6C281.7 471.7 277.6 463.7 277.6 456.7C277.6 449.8 281.7 446.5 286.8 449.4C291.8 452.4 296 460.4 296 467.3Z" fill="#F2994A"/>
<path opacity="0.2" d="M905 577.1L743.3 483.8V568L905 661.4V577.1Z" fill="url(#paint7_linear)"/>
<path opacity="0.15" d="M784.7 528L840.1 560V570.1L784.7 538.1V528Z" fill="white"/>
<path opacity="0.15" d="M784.8 548.3L888.4 608.1V618.3L784.8 558.5V548.3Z" fill="white"/>
<path fill-rule="evenodd" clip-rule="evenodd" d="M776.2 531C776.2 537.9 772.1 541.2 767 538.3C761.9 535.4 757.8 527.4 757.8 520.4C757.8 513.5 761.9 510.2 767 513.1C772.1 516.1 776.2 524.1 776.2 531Z" fill="#F2C94C"/>
</g>
<defs>
<linearGradient id="paint0_linear" x1="634.962" y1="-314.728" x2="259.698" y2="-265.311" gradientUnits="userSpaceOnUse">
<stop stop-color="white"/>
<stop offset="1" stop-color="white" stop-opacity="0.01"/>
</linearGradient>
<linearGradient id="paint1_linear" x1="671.332" y1="-341.933" x2="296.051" y2="-292.498" gradientUnits="userSpaceOnUse">
<stop stop-color="white"/>
<stop offset="1" stop-color="white" stop-opacity="0.01"/>
</linearGradient>
<linearGradient id="paint2_linear" x1="621.42" y1="-504.481" x2="366.929" y2="-495.766" gradientUnits="userSpaceOnUse">
<stop stop-color="white" stop-opacity="0.01"/>
<stop offset="1" stop-color="white"/>
</linearGradient>
<linearGradient id="paint3_linear" x1="507.978" y1="824.188" x2="381.233" y2="1060.83" gradientUnits="userSpaceOnUse">
<stop stop-color="white"/>
<stop offset="1" stop-color="white" stop-opacity="0.01"/>
</linearGradient>
<linearGradient id="paint4_linear" x1="681.359" y1="585.99" x2="723.417" y2="868.806" gradientUnits="userSpaceOnUse">
<stop stop-color="white"/>
<stop offset="1" stop-color="white" stop-opacity="0.01"/>
</linearGradient>
<linearGradient id="paint5_linear" x1="355.315" y1="224.117" x2="202.464" y2="310.415" gradientUnits="userSpaceOnUse">
<stop stop-color="white"/>
<stop offset="1" stop-color="white" stop-opacity="0.01"/>
</linearGradient>
<linearGradient id="paint6_linear" x1="333.405" y1="457.342" x2="291.898" y2="517.021" gradientUnits="userSpaceOnUse">
<stop stop-color="white"/>
<stop offset="1" stop-color="white" stop-opacity="0.01"/>
</linearGradient>
<linearGradient id="paint7_linear" x1="813.62" y1="520.927" x2="772.05" y2="580.629" gradientUnits="userSpaceOnUse">
<stop stop-color="white"/>
<stop offset="1" stop-color="white" stop-opacity="0.01"/>
</linearGradient>
<clipPath id="clip0">
<rect width="1150" height="1150" fill="white"/>
</clipPath>
</defs>
</svg>
