<svg width="1150" height="1150" viewBox="0 0 1150 1150" fill="none" xmlns="http://www.w3.org/2000/svg">
<g clip-path="url(#clip0)">
<rect width="1150" height="1150" fill="white"/>
<rect width="1150" height="1150" fill="#003ECB"/>
<path fill-rule="evenodd" clip-rule="evenodd" d="M543.8 699.6C526.6 721.1 507.5 744.7 494.1 761.2C479.2 716.4 499.1 653.8 521.3 607C526.7 636.1 534.1 666.9 543.8 699.6Z" fill="#F2C94C"/>
<path fill-rule="evenodd" clip-rule="evenodd" d="M648.6 533.8C670.7 555 690.5 594.6 675.6 656.5C662.2 655.4 643.2 653.9 626 652.3C635.8 608.3 643.2 569 648.6 533.8Z" fill="#F2994A"/>
<path opacity="0.2" d="M601.1 754.3C724.6 279.7 623 239.4 584.6 223.2C546.2 283.8 444.6 441.4 568.3 773.2L601.1 754.3Z" fill="url(#paint0_linear)"/>
<path opacity="0.1" d="M564.7 727C688.3 252.5 586.7 212.2 548.2 195.9C509.8 256.5 408.2 414.1 531.9 745.9L564.7 727Z" fill="url(#paint1_linear)"/>
<path opacity="0.15" d="M568.3 773.2C444.6 441.4 546.2 283.8 584.6 223.2V763.8L568.3 773.2Z" fill="url(#paint2_linear)"/>
<path opacity="0.1" d="M547.7 390.3C547.7 419.2 564.7 432.8 585.7 420.7C606.7 408.6 623.7 375.3 623.7 346.4C623.7 317.5 606.7 303.9 585.7 316C564.7 328.1 547.7 361.4 547.7 390.3Z" fill="white"/>
<path opacity="0.1" d="M584.9 1098.4C564.3 1143.7 533.6 1182.7 499.3 1202.5C437.3 1238.3 387 1197.9 386.9 1112.3C386.9 1026.7 437.2 928.2 499.2 892.4C519.6 880.6 538.7 877.1 555.2 880.7C563.9 866.5 568.1 848.5 571.8 832.7C576.1 814.5 579.7 799 588.7 795.1C599 790.6 603.6 802 610.1 817.8C613.9 827.1 618.4 838.1 625 848.2C632.1 840.7 639.6 834.5 647.5 830C680.6 810.9 708.2 827.4 714.7 866.8C719.2 863.4 723.7 860.3 728.3 857.6C781.4 827 824.4 861.7 824.4 935.3C824.4 1008.8 781.4 1093.2 728.4 1123.8C676.9 1153.5 634.8 1121.6 632.4 1052.5C622.7 1070.5 609.8 1085.6 595.5 1093.8C592 1095.8 588.4 1097.3 584.9 1098.4Z" fill="url(#paint3_linear)"/>
<path opacity="0.3" d="M455.4 553.2L184.6 709.5L184.5 850.6L431.3 708.1L455.2 715.9L455.4 553.2Z" fill="url(#paint4_linear)"/>
<path fill-rule="evenodd" clip-rule="evenodd" d="M263.4 734.3V696L161.2 755V793.3L263.4 734.3Z" fill="#F2C94C"/>
<path opacity="0.1" d="M385.7 627.7L326.4 662V674.4L385.7 640.2V627.7Z" fill="white"/>
<path opacity="0.1" d="M385.7 652.5L278.6 714.3V726.7L385.7 664.9V652.5Z" fill="white"/>
<path opacity="0.15" d="M385.7 677.3L247.2 757.3V769.7L385.7 689.7V677.3Z" fill="white"/>
<path fill-rule="evenodd" clip-rule="evenodd" d="M400.3 632.2C400.3 643.8 407.2 649.3 415.7 644.4C424.2 639.5 431.1 626.1 431.1 614.5C431.1 602.9 424.2 597.4 415.7 602.3C407.2 607.2 400.3 620.6 400.3 632.2Z" fill="#F2C94C"/>
<path opacity="0.3" d="M688.9 353.9L959.6 197.7L959.5 338.8L712.7 481.2L688.8 516.6L688.9 353.9Z" fill="url(#paint5_linear)"/>
<path fill-rule="evenodd" clip-rule="evenodd" d="M988.4 252.7V214.4L886.2 273.4V311.7L988.4 252.7Z" fill="#F2994A"/>
<path opacity="0.15" d="M758.5 348.1L817.8 313.9V326.3L758.5 360.5V348.1Z" fill="white"/>
<path opacity="0.15" d="M758.4 372.9L872.7 306.9V319.3L758.4 385.3V372.9Z" fill="white"/>
<path opacity="0.15" d="M758.4 397.7L896.9 317.7V330.1L758.4 410.1V397.7Z" fill="white"/>
<path fill-rule="evenodd" clip-rule="evenodd" d="M743.8 369.4C743.8 381 736.9 394.4 728.4 399.3C719.9 404.2 713 398.7 713 387.1C713 375.5 719.9 362.1 728.4 357.2C737 352.4 743.9 357.8 743.8 369.4Z" fill="#F2994A"/>
<path opacity="0.2" d="M724.9 504.5L886.6 411.2V495.4L724.9 588.7L724.9 504.5Z" fill="url(#paint6_linear)"/>
<path opacity="0.15" d="M845.2 455.3L789.8 487.3V497.4L845.2 465.4V455.3Z" fill="white"/>
<path opacity="0.15" d="M845.1 475.6L741.5 535.4V545.6L845.1 485.8V475.6Z" fill="white"/>
<path fill-rule="evenodd" clip-rule="evenodd" d="M853.7 458.3C853.7 465.2 857.8 468.5 862.9 465.6C868 462.7 872.1 454.7 872.1 447.7C872.1 440.8 868 437.5 862.9 440.4C857.8 443.4 853.7 451.4 853.7 458.3Z" fill="#F2994A"/>
<path opacity="0.2" d="M244.6 568.1L406.3 474.8V559L244.6 652.4V568.1Z" fill="url(#paint7_linear)"/>
<path opacity="0.15" d="M364.9 519L309.5 551V561.1L364.9 529.1V519Z" fill="white"/>
<path opacity="0.15" d="M364.9 539.3L261.3 599.1V609.3L364.9 549.5V539.3Z" fill="white"/>
<path fill-rule="evenodd" clip-rule="evenodd" d="M373.4 522C373.4 528.9 377.5 532.2 382.6 529.3C387.7 526.4 391.8 518.4 391.8 511.4C391.8 504.5 387.7 501.2 382.6 504.1C377.5 507 373.4 515.1 373.4 522Z" fill="#F2C94C"/>
</g>
<defs>
<linearGradient id="paint0_linear" x1="366.255" y1="803.949" x2="741.485" y2="853.332" gradientUnits="userSpaceOnUse">
<stop stop-color="white"/>
<stop offset="1" stop-color="white" stop-opacity="0.01"/>
</linearGradient>
<linearGradient id="paint1_linear" x1="329.83" y1="776.4" x2="705.111" y2="825.835" gradientUnits="userSpaceOnUse">
<stop stop-color="white"/>
<stop offset="1" stop-color="white" stop-opacity="0.01"/>
</linearGradient>
<linearGradient id="paint2_linear" x1="468.616" y1="1228.42" x2="723.107" y2="1237.13" gradientUnits="userSpaceOnUse">
<stop stop-color="white" stop-opacity="0.01"/>
<stop offset="1" stop-color="white"/>
</linearGradient>
<linearGradient id="paint3_linear" x1="400.275" y1="944.485" x2="527.018" y2="1181.13" gradientUnits="userSpaceOnUse">
<stop stop-color="white"/>
<stop offset="1" stop-color="white" stop-opacity="0.01"/>
</linearGradient>
<linearGradient id="paint4_linear" x1="209.768" y1="538.557" x2="167.741" y2="821.379" gradientUnits="userSpaceOnUse">
<stop stop-color="white"/>
<stop offset="1" stop-color="white" stop-opacity="0.01"/>
</linearGradient>
<linearGradient id="paint5_linear" x1="701.431" y1="379.706" x2="854.281" y2="466.004" gradientUnits="userSpaceOnUse">
<stop stop-color="white"/>
<stop offset="1" stop-color="white" stop-opacity="0.01"/>
</linearGradient>
<linearGradient id="paint6_linear" x1="758.721" y1="488.341" x2="800.223" y2="548.013" gradientUnits="userSpaceOnUse">
<stop stop-color="white"/>
<stop offset="1" stop-color="white" stop-opacity="0.01"/>
</linearGradient>
<linearGradient id="paint7_linear" x1="278.473" y1="552.029" x2="320.007" y2="611.679" gradientUnits="userSpaceOnUse">
<stop stop-color="white"/>
<stop offset="1" stop-color="white" stop-opacity="0.01"/>
</linearGradient>
<clipPath id="clip0">
<rect width="1150" height="1150" fill="white"/>
</clipPath>
</defs>
</svg>
