<svg width="1150" height="1150" viewBox="0 0 1150 1150" fill="none" xmlns="http://www.w3.org/2000/svg">
<rect width="1150" height="1150" fill="white"/>
<rect width="1150" height="1150" fill="#003ECB"/>
<path opacity="0.1" d="M603.3 204.1L205.7 802.9L603.3 573.2V204.1Z" fill="url(#paint0_linear)"/>
<path opacity="0.4" fill-rule="evenodd" clip-rule="evenodd" d="M221 837.3C217.8 842.1 219.6 847 223.7 844.6L644.1 601.8C646.5 600.4 648.4 597.1 648.4 594.3L648.5 204.1C648.5 199.9 644.3 200 641.5 204.3L221 837.3ZM579.3 384.6C582.1 380.3 586.3 380.2 586.3 384.4L586.2 555.1C586.2 557.9 584.3 561.2 581.9 562.6L397.5 669.1C393.4 671.5 391.6 666.6 394.8 661.8L579.3 384.6Z" fill="url(#paint1_linear)"/>
<path opacity="0.3" d="M449.9 217.2L152.3 389.1V544.2L423.6 387.5L449.8 396.1L449.9 217.2Z" fill="url(#paint2_linear)"/>
<path fill-rule="evenodd" clip-rule="evenodd" d="M389.4 304.1C389.4 316.9 397 322.9 406.3 317.5C415.6 312.1 423.2 297.4 423.2 284.6C423.2 271.8 415.6 265.8 406.3 271.2C397 276.6 389.4 291.3 389.4 304.1Z" fill="#F2C94C"/>
<path opacity="0.15" d="M373.4 299.1L308.2 336.8V350.4L373.4 312.7V299.1Z" fill="white"/>
<path opacity="0.15" d="M373.4 326.4L178.6 438.9V452.5L373.4 340V326.4Z" fill="white"/>
<path opacity="0.15" d="M373.4 353.7L221.1 441.7V455.3L373.4 367.3V353.7Z" fill="white"/>
<path opacity="0.3" d="M699.7 599.4L997.3 427.5V582.6L725.9 739.3L699.6 778.2L699.7 599.4Z" fill="url(#paint3_linear)"/>
<path fill-rule="evenodd" clip-rule="evenodd" d="M760.2 616.4C760.2 629.2 752.6 643.9 743.3 649.3C734 654.7 726.4 648.7 726.4 635.9C726.4 623.1 734 608.4 743.3 603C752.6 597.7 760.2 603.7 760.2 616.4Z" fill="#F2994A"/>
<path opacity="0.15" d="M776.2 593L841.4 555.3V568.9L776.2 606.6V593Z" fill="white"/>
<path opacity="0.15" d="M776.2 620.2L970.9 507.7V521.3L776.2 633.9V620.2Z" fill="white"/>
<path opacity="0.15" d="M776.2 647.5L928.5 559.5V573.1L776.2 661.1V647.5Z" fill="white"/>
<path opacity="0.2" d="M805.6 198.3L681.3 270.1L681.2 539.4L805.5 467.6L805.6 198.3Z" fill="url(#paint4_linear)"/>
<path fill-rule="evenodd" clip-rule="evenodd" d="M844.4 272.2L746.6 328.7V361L844.4 304.5V272.2Z" fill="#F2994A"/>
<path opacity="0.15" d="M805.5 427.6L681.2 499.4V539.3L805.5 467.5V427.6Z" fill="white"/>
<path opacity="0.15" d="M790.2 247.2L739.2 276.6V290.2L790.2 260.8V247.2Z" fill="white"/>
<path opacity="0.15" d="M790.2 274.5L700 326.6V340.2L790.2 288.1V274.5Z" fill="white"/>
<path opacity="0.15" d="M737.3 423.5V437.1L790.2 406.5V392.9L737.3 423.5Z" fill="white"/>
<path opacity="0.2" d="M543 682.2L667.3 610.4L667.2 879.7L542.9 951.5L543 682.2Z" fill="url(#paint5_linear)"/>
<path fill-rule="evenodd" clip-rule="evenodd" d="M504 801L601.8 744.5V776.8L504 833.3V801Z" fill="#F2C94C"/>
<path opacity="0.15" d="M542.9 911.5L667.2 839.7V879.6L542.9 951.4V911.5Z" fill="white"/>
<path opacity="0.15" d="M648.5 661.3L597.5 690.7V704.3L648.5 674.9V661.3Z" fill="white"/>
<path opacity="0.15" d="M648.5 688.6L558.3 740.7V754.3L648.5 702.2V688.6Z" fill="white"/>
<path opacity="0.15" d="M611.2 828.6V842.2L558.3 872.8V859.2L611.2 828.6Z" fill="white"/>
<path opacity="0.2" d="M289.3 510.9C283.3 514.3 278.5 522.7 278.5 529.6V560.1L258.3 571.7C252.3 575.1 247.5 583.5 247.5 590.4C247.5 597.3 252.3 600.1 258.3 596.7L278.5 585.1V615.6C278.5 622.5 283.3 625.3 289.3 621.9C295.3 618.5 300.1 610.1 300.1 603.2V572.7L320.3 561.1C326.3 557.7 331.1 549.3 331.1 542.4C331.1 535.5 326.3 532.7 320.3 536.1L300.1 547.7V517.2C300.1 510.2 295.3 507.4 289.3 510.9Z" fill="url(#paint6_linear)"/>
<defs>
<linearGradient id="paint0_linear" x1="196.645" y1="499.571" x2="495.292" y2="727.492" gradientUnits="userSpaceOnUse">
<stop stop-color="white"/>
<stop offset="1" stop-color="white" stop-opacity="0.01"/>
</linearGradient>
<linearGradient id="paint1_linear" x1="216.615" y1="507.335" x2="518.647" y2="739.189" gradientUnits="userSpaceOnUse">
<stop stop-color="white"/>
<stop offset="0.8963" stop-color="white" stop-opacity="0.01"/>
</linearGradient>
<linearGradient id="paint2_linear" x1="179.983" y1="201.242" x2="133.943" y2="512.116" gradientUnits="userSpaceOnUse">
<stop stop-color="white"/>
<stop offset="1" stop-color="white" stop-opacity="0.01"/>
</linearGradient>
<linearGradient id="paint3_linear" x1="713.574" y1="627.755" x2="881.61" y2="722.514" gradientUnits="userSpaceOnUse">
<stop stop-color="white"/>
<stop offset="1" stop-color="white" stop-opacity="0.01"/>
</linearGradient>
<linearGradient id="paint4_linear" x1="651.177" y1="415.215" x2="793.878" y2="448.07" gradientUnits="userSpaceOnUse">
<stop stop-color="white"/>
<stop offset="1" stop-color="white" stop-opacity="0.01"/>
</linearGradient>
<linearGradient id="paint5_linear" x1="512.812" y1="827.319" x2="655.513" y2="860.174" gradientUnits="userSpaceOnUse">
<stop stop-color="white"/>
<stop offset="1" stop-color="white" stop-opacity="0.01"/>
</linearGradient>
<linearGradient id="paint6_linear" x1="253.223" y1="585.55" x2="312.446" y2="610.706" gradientUnits="userSpaceOnUse">
<stop stop-color="white"/>
<stop offset="1" stop-color="white" stop-opacity="0.01"/>
</linearGradient>
</defs>
</svg>
