<svg width="1150" height="1150" viewBox="0 0 1150 1150" fill="none" xmlns="http://www.w3.org/2000/svg">
<rect width="1150" height="1150" fill="white"/>
<rect width="1150" height="1150" fill="#003ECB"/>
<path opacity="0.5" d="M412.5 419.5C495.2 371.2 563.6 416.4 575.7 520.5C577.8 538.6 564.1 562.4 547.5 572.1L277.6 729.6C261 739.3 247.3 731.5 249.3 711C261.4 592.8 329.8 467.7 412.5 419.5Z" fill="url(#paint0_linear)"/>
<path opacity="0.5" d="M320.3 284.2C320.3 356.1 361.9 390.1 413.2 360.1C464.5 330.2 506 247.6 506 175.8C506 103.9 464.4 69.8998 413.1 99.8998C361.8 129.8 320.3 212.4 320.3 284.2Z" fill="url(#paint1_linear)"/>
<path opacity="0.07" d="M372.5 389.5C455.2 341.2 523.6 386.4 535.7 490.5C537.8 508.6 524.1 532.4 507.5 542.1L237.6 699.6C221 709.3 207.3 701.5 209.3 681C221.4 562.8 289.8 437.7 372.5 389.5Z" fill="url(#paint2_linear)"/>
<path opacity="0.07" d="M280.3 254.2C280.3 326.1 321.9 360.1 373.2 330.1C424.4 300.2 466 217.7 466 145.8C466 73.8998 424.4 39.8998 373.1 69.8998C321.8 99.7998 280.3 182.4 280.3 254.2Z" fill="url(#paint3_linear)"/>
<path opacity="0.2" d="M754.6 456.2L940.9 348.7V445.7L754.6 553.3V456.2Z" fill="url(#paint4_linear)"/>
<path fill-rule="evenodd" clip-rule="evenodd" d="M903 403.1C903 411.1 907.7 414.8 913.6 411.5C919.4 408.1 924.2 398.9 924.2 390.9C924.2 382.9 919.5 379.2 913.6 382.5C907.8 385.9 903 395.1 903 403.1Z" fill="#F2994A"/>
<path opacity="0.15" d="M893.5 400.1L832.6 435.2V448.8L893.5 413.7V400.1Z" fill="white"/>
<path opacity="0.15" d="M893.2 427.5L773.9 496.4V510L893.2 441.1V427.5Z" fill="white"/>
<path opacity="0.05" d="M460.6 554L273.5 662V1064.9L460.6 956.9V554Z" fill="url(#paint5_linear)"/>
<path opacity="0.3" fill-rule="evenodd" clip-rule="evenodd" d="M304.7 1092.1V689.2L491.8 581.2V984.1L304.7 1092.1ZM367.9 693.9L430.5 657.8V641.7L367.9 677.8V693.9Z" fill="url(#paint6_linear)"/>
<path opacity="0.15" d="M473.8 836.3L323.5 923V936.6L473.8 849.9V836.3Z" fill="white"/>
<path opacity="0.15" d="M463.3 868.9L334 943.5V957.1L463.3 882.5V868.9Z" fill="white"/>
<path fill-rule="evenodd" clip-rule="evenodd" d="M356.6 802.4C356.6 770.5 375.3 733.8 398.3 720.5C421.3 707.2 440 722.3 440 754.2C440 786.1 421.3 822.8 398.3 836.1C375.3 849.4 356.6 834.3 356.6 802.4Z" fill="#F2994A"/>
<path opacity="0.05" d="M693.6 229.7L506.5 337.7V740.6L693.6 632.6V229.7Z" fill="url(#paint7_linear)"/>
<path opacity="0.3" fill-rule="evenodd" clip-rule="evenodd" d="M537.7 767.8V364.9L724.8 256.9V659.8L537.7 767.8ZM600.9 369.5L663.5 333.4V317.3L600.9 353.4V369.5Z" fill="url(#paint8_linear)"/>
<path opacity="0.15" d="M706.8 511.9L556.5 598.6V612.2L706.8 525.5V511.9Z" fill="white"/>
<path opacity="0.15" d="M696.3 544.6L567 619.2V632.8L696.3 558.2V544.6Z" fill="white"/>
<path fill-rule="evenodd" clip-rule="evenodd" d="M589.6 478.1C589.6 446.2 608.3 409.5 631.3 396.2C654.3 382.9 673 398 673 429.9C673 461.8 654.3 498.5 631.3 511.8C608.3 525.1 589.6 510 589.6 478.1Z" fill="#F2C94C"/>
<path opacity="0.3" d="M589.6 702.8L887.1 531L887 686.1L615.8 842.7L589.5 881.6L589.6 702.8Z" fill="url(#paint9_linear)"/>
<path fill-rule="evenodd" clip-rule="evenodd" d="M918.9 591.5V549.4L806.6 614.2V656.3L918.9 591.5Z" fill="#F2994A"/>
<path opacity="0.15" d="M666.1 696.4L731.3 658.8V672.4L666.1 710V696.4Z" fill="white"/>
<path opacity="0.15" d="M666.1 723.7L791.8 651.2V664.8L666.1 737.3V723.7Z" fill="white"/>
<path opacity="0.15" d="M666 750.9L818.3 663V676.6L666 764.6V750.9V750.9Z" fill="white"/>
<path fill-rule="evenodd" clip-rule="evenodd" d="M650 719.9C650 732.7 642.4 747.4 633.1 752.8C623.8 758.2 616.2 752.2 616.2 739.4C616.2 726.6 623.8 711.9 633.1 706.5C642.5 701.1 650 707.1 650 719.9Z" fill="#F2994A"/>
<path opacity="0.2" d="M822.9 237.4C816.9 240.8 812.1 249.2 812.1 256.1V286.6L791.9 298.2C785.9 301.6 781.1 310 781.1 316.9C781.1 323.8 785.9 326.6 791.9 323.2L812.1 311.6V342.1C812.1 349 816.9 351.8 822.9 348.4C828.9 345 833.7 336.6 833.7 329.7V299.2L853.9 287.6C859.9 284.2 864.7 275.8 864.7 268.9C864.7 262 859.9 259.2 853.9 262.6L833.7 274.2V243.7C833.7 236.8 828.9 234 822.9 237.4Z" fill="url(#paint10_linear)"/>
<defs>
<linearGradient id="paint0_linear" x1="-48.7773" y1="512.148" x2="291.784" y2="750.568" gradientUnits="userSpaceOnUse">
<stop stop-color="white"/>
<stop offset="1" stop-color="white" stop-opacity="0.01"/>
</linearGradient>
<linearGradient id="paint1_linear" x1="161.768" y1="360.556" x2="537.599" y2="479.424" gradientUnits="userSpaceOnUse">
<stop stop-color="white"/>
<stop offset="1" stop-color="white" stop-opacity="0.01"/>
</linearGradient>
<linearGradient id="paint2_linear" x1="-88.7766" y1="482.148" x2="251.785" y2="720.568" gradientUnits="userSpaceOnUse">
<stop stop-color="white"/>
<stop offset="1" stop-color="white" stop-opacity="0.01"/>
</linearGradient>
<linearGradient id="paint3_linear" x1="121.768" y1="330.556" x2="497.599" y2="449.424" gradientUnits="userSpaceOnUse">
<stop stop-color="white"/>
<stop offset="1" stop-color="white" stop-opacity="0.01"/>
</linearGradient>
<linearGradient id="paint4_linear" x1="793.562" y1="437.656" x2="841.439" y2="506.427" gradientUnits="userSpaceOnUse">
<stop stop-color="white"/>
<stop offset="1" stop-color="white" stop-opacity="0.01"/>
</linearGradient>
<linearGradient id="paint5_linear" x1="184.936" y1="937.66" x2="493.287" y2="1009.31" gradientUnits="userSpaceOnUse">
<stop stop-color="white"/>
<stop offset="1" stop-color="white" stop-opacity="0.01"/>
</linearGradient>
<linearGradient id="paint6_linear" x1="227.484" y1="915.89" x2="488.142" y2="976.455" gradientUnits="userSpaceOnUse">
<stop stop-color="white"/>
<stop offset="1" stop-color="white" stop-opacity="0.01"/>
</linearGradient>
<linearGradient id="paint7_linear" x1="417.93" y1="613.348" x2="726.28" y2="684.995" gradientUnits="userSpaceOnUse">
<stop stop-color="white"/>
<stop offset="1" stop-color="white" stop-opacity="0.01"/>
</linearGradient>
<linearGradient id="paint8_linear" x1="460.478" y1="591.579" x2="721.136" y2="652.144" gradientUnits="userSpaceOnUse">
<stop stop-color="white"/>
<stop offset="1" stop-color="white" stop-opacity="0.01"/>
</linearGradient>
<linearGradient id="paint9_linear" x1="603.423" y1="731.179" x2="771.462" y2="825.977" gradientUnits="userSpaceOnUse">
<stop stop-color="white"/>
<stop offset="1" stop-color="white" stop-opacity="0.01"/>
</linearGradient>
<linearGradient id="paint10_linear" x1="786.823" y1="312.061" x2="846.043" y2="337.243" gradientUnits="userSpaceOnUse">
<stop stop-color="white"/>
<stop offset="1" stop-color="white" stop-opacity="0.01"/>
</linearGradient>
</defs>
</svg>
